<svg width="42" height="42" viewBox="0 0 42 42" fill="none" xmlns="http://www.w3.org/2000/svg">
<rect width="42" height="42" rx="10" fill="#BCDDFE"/>
<path d="M33.3296 24.0075C32.8526 24.0075 32.43 23.928 32.062 23.769C31.6939 23.6071 31.4054 23.3862 31.1963 23.1065C30.9902 22.8268 30.8871 22.5103 30.8871 22.1569C30.8871 21.8831 30.9475 21.6299 31.0682 21.3973C31.189 21.1646 31.3524 20.9703 31.5585 20.8143C31.7675 20.6582 32.0016 20.5581 32.2607 20.5139V20.4742C31.9221 20.3976 31.6483 20.2239 31.4392 19.953C31.2302 19.6821 31.1256 19.3685 31.1256 19.0123C31.1256 18.6736 31.2199 18.3718 31.4083 18.1068C31.5997 17.8418 31.8618 17.6328 32.1945 17.4797C32.5272 17.3266 32.9056 17.25 33.3296 17.25C33.7506 17.25 34.1275 17.3266 34.4602 17.4797C34.793 17.6328 35.055 17.8418 35.2464 18.1068C35.4378 18.3718 35.5335 18.6736 35.5335 19.0123C35.5335 19.3685 35.4275 19.6821 35.2155 19.953C35.0035 20.2239 34.7326 20.3976 34.4028 20.4742V20.5139C34.656 20.5581 34.8872 20.6582 35.0962 20.8143C35.3053 20.9703 35.4702 21.1646 35.5909 21.3973C35.7146 21.6299 35.7764 21.8831 35.7764 22.1569C35.7764 22.5103 35.6719 22.8268 35.4628 23.1065C35.2538 23.3862 34.9652 23.6071 34.5972 23.769C34.2291 23.928 33.8066 24.0075 33.3296 24.0075ZM33.3296 23.0933C33.5769 23.0933 33.7918 23.0506 33.9744 22.9652C34.157 22.8798 34.2983 22.7605 34.3984 22.6074C34.4985 22.4514 34.5486 22.2732 34.5486 22.073C34.5486 21.864 34.4956 21.6785 34.3896 21.5165C34.2836 21.3546 34.1393 21.228 33.9567 21.1367C33.7742 21.0425 33.5651 20.9953 33.3296 20.9953C33.094 20.9953 32.8835 21.0425 32.698 21.1367C32.5154 21.228 32.3711 21.3546 32.2651 21.5165C32.1621 21.6755 32.1106 21.861 32.1106 22.073C32.1106 22.2732 32.1606 22.4514 32.2607 22.6074C32.3608 22.7605 32.5022 22.8798 32.6847 22.9652C32.8673 23.0506 33.0822 23.0933 33.3296 23.0933ZM33.3296 20.0943C33.5298 20.0943 33.7079 20.0546 33.864 19.9751C34.02 19.8926 34.1437 19.7793 34.235 19.635C34.3263 19.4878 34.3719 19.3199 34.3719 19.1315C34.3719 18.9401 34.3277 18.7738 34.2394 18.6324C34.1511 18.4911 34.0289 18.3821 33.8728 18.3056C33.7168 18.2261 33.5357 18.1863 33.3296 18.1863C33.1235 18.1863 32.9409 18.2261 32.7819 18.3056C32.6258 18.3821 32.5036 18.4911 32.4153 18.6324C32.3299 18.7738 32.2872 18.9401 32.2872 19.1315C32.2872 19.3199 32.3314 19.4863 32.4197 19.6306C32.5081 19.7749 32.6303 19.8882 32.7863 19.9707C32.9453 20.0531 33.1264 20.0943 33.3296 20.0943Z" fill="#1150A1"/>
<path d="M29.2177 23.557L25.4502 19.794L26.1746 19.0608L29.9376 22.8326L29.2177 23.557ZM26.1746 23.557L25.4502 22.8326L29.2177 19.0608L29.9376 19.794L26.1746 23.557Z" fill="#1150A1"/>
<path d="M14.2701 12.7273C9.55852 12.7273 5.72728 15.7452 5.72728 19.4539C5.72728 19.5074 5.73155 19.5588 5.73155 19.6122H5.72728C5.72728 21.2774 5.72728 22.1286 5.72728 22.1409C5.76788 25.8167 9.59912 28.8079 14.2701 28.8079C18.9411 28.8079 22.8129 25.79 22.8129 22.0813V19.4539C22.8108 15.7452 18.9796 12.7273 14.2701 12.7273ZM14.2701 25.0355C11.4966 25.0355 9.07774 23.8637 7.82559 22.1368L21.0138 17.2357C21.4048 17.9162 21.6206 18.6666 21.6206 19.4539C21.6206 22.5315 18.3236 25.0355 14.268 25.0355H14.2701ZM14.2701 13.8724C16.7659 13.8724 18.9753 14.8222 20.3044 16.2715L7.25294 21.1212C7.03499 20.5949 6.91746 20.0337 6.91746 19.4539C6.91746 16.3764 10.2145 13.8724 14.2701 13.8724ZM14.2701 27.6628C10.6419 27.6628 7.60337 25.6399 7.02003 23.0043C8.53073 24.9101 11.2145 26.1806 14.2701 26.1806C17.3257 26.1806 20.0095 24.9101 21.5181 23.0064C20.9347 25.644 17.9069 27.6628 14.2701 27.6628Z" fill="#1150A1"/>
</svg>
