<svg width="42" height="42" viewBox="0 0 42 42" fill="none" xmlns="http://www.w3.org/2000/svg">
<rect width="42" height="42" rx="10" fill="#FBBCE1"/>
<path d="M30.6925 22.5423V21.5994L33.4686 17.2181H34.2493V18.5601H33.7712L31.903 21.516V21.5687H35.7755V22.5423H30.6925ZM33.8063 23.7527V22.2572L33.8239 21.8318V17.2181H34.9378V23.7527H33.8063Z" fill="#DD0984"/>
<path d="M29.0523 23.393L25.3114 19.6565L26.0306 18.9285L29.7672 22.6738L29.0523 23.393ZM26.0306 23.393L25.3114 22.6738L29.0523 18.9285L29.7672 19.6565L26.0306 23.393Z" fill="#DD0984"/>
<path d="M14.21 12.7273C9.53158 12.7273 5.72728 15.724 5.72728 19.4066C5.72728 19.4597 5.73152 19.5107 5.73152 19.5638H5.72728C5.72728 21.2173 5.72728 22.0624 5.72728 22.0747C5.76759 25.7247 9.57189 28.6948 14.21 28.6948C18.8482 28.6948 22.6928 25.6981 22.6928 22.0155V19.4066C22.6907 15.724 18.8864 12.7273 14.21 12.7273ZM14.21 24.9489C11.456 24.9489 9.05418 23.7854 7.81084 22.0706L20.9063 17.204C21.2946 17.8797 21.5089 18.6248 21.5089 19.4066C21.5089 22.4626 18.235 24.9489 14.2079 24.9489H14.21ZM14.21 13.8643C16.6882 13.8643 18.8821 14.8074 20.2019 16.2466L7.24221 21.0622C7.02579 20.5396 6.90909 19.9823 6.90909 19.4066C6.90909 16.3507 10.183 13.8643 14.21 13.8643ZM14.21 27.5578C10.6073 27.5578 7.59018 25.5491 7.01094 22.9321C8.51102 24.8244 11.1759 26.086 14.21 26.086C17.2441 26.086 19.9091 24.8244 21.407 22.9341C20.8278 25.5532 17.8213 27.5578 14.21 27.5578Z" fill="#DD0984"/>
</svg>
