<svg width="42" height="42" viewBox="0 0 42 42" fill="none" xmlns="http://www.w3.org/2000/svg">
<rect width="42" height="42" rx="10" fill="#BCDDFE"/>
<path d="M21 9.54541C14.6745 9.54541 9.54546 14.6745 9.54546 21C9.54546 27.3254 14.6745 32.4545 21 32.4545C27.3255 32.4545 32.4545 27.3254 32.4545 21C32.4545 14.6745 27.3255 9.54541 21 9.54541ZM21 31.1818C15.3771 31.1818 10.8182 26.6229 10.8182 21C10.8182 15.377 15.3771 10.8181 21 10.8181C26.6229 10.8181 31.1818 15.377 31.1818 21C31.1818 26.6229 26.6229 31.1818 21 31.1818Z" fill="#1150A1"/>
<path d="M29.782 21.6365H28.5093C28.158 21.6365 27.873 21.3514 27.873 21.0001C27.873 20.6489 28.158 20.3638 28.5093 20.3638H29.782C30.1333 20.3638 30.4184 20.6489 30.4184 21.0001C30.4184 21.3514 30.1333 21.6365 29.782 21.6365Z" fill="#1150A1"/>
<path d="M13.2361 21.6365H11.9634C11.6121 21.6365 11.327 21.3514 11.327 21.0001C11.327 20.6489 11.6121 20.3638 11.9634 20.3638H13.2361C13.5874 20.3638 13.8725 20.6489 13.8725 21.0001C13.8725 21.3514 13.5874 21.6365 13.2361 21.6365Z" fill="#1150A1"/>
<path d="M27.4861 17.8185C27.8376 17.8185 28.1225 17.5336 28.1225 17.1821C28.1225 16.8307 27.8376 16.5458 27.4861 16.5458C27.1347 16.5458 26.8497 16.8307 26.8497 17.1821C26.8497 17.5336 27.1347 17.8185 27.4861 17.8185Z" fill="#1150A1"/>
<path d="M14.2595 25.4547C14.611 25.4547 14.8959 25.1698 14.8959 24.8184C14.8959 24.4669 14.611 24.182 14.2595 24.182C13.908 24.182 13.6231 24.4669 13.6231 24.8184C13.6231 25.1698 13.908 25.4547 14.2595 25.4547Z" fill="#1150A1"/>
<path d="M24.6908 15.0233C25.0423 15.0233 25.3272 14.7384 25.3272 14.387C25.3272 14.0355 25.0423 13.7506 24.6908 13.7506C24.3394 13.7506 24.0545 14.0355 24.0545 14.387C24.0545 14.7384 24.3394 15.0233 24.6908 15.0233Z" fill="#1150A1"/>
<path d="M17.0548 28.2495C17.4062 28.2495 17.6911 27.9646 17.6911 27.6132C17.6911 27.2617 17.4062 26.9768 17.0548 26.9768C16.7033 26.9768 16.4184 27.2617 16.4184 27.6132C16.4184 27.9646 16.7033 28.2495 17.0548 28.2495Z" fill="#1150A1"/>
<path d="M17.0548 15.0236C17.4062 15.0236 17.6911 14.7387 17.6911 14.3872C17.6911 14.0358 17.4062 13.7509 17.0548 13.7509C16.7033 13.7509 16.4184 14.0358 16.4184 14.3872C16.4184 14.7387 16.7033 15.0236 17.0548 15.0236Z" fill="#1150A1"/>
<path d="M24.6908 28.2495C25.0423 28.2495 25.3272 27.9646 25.3272 27.6132C25.3272 27.2617 25.0423 26.9768 24.6908 26.9768C24.3394 26.9768 24.0545 27.2617 24.0545 27.6132C24.0545 27.9646 24.3394 28.2495 24.6908 28.2495Z" fill="#1150A1"/>
<path d="M14.2595 17.8185C14.611 17.8185 14.8959 17.5336 14.8959 17.1821C14.8959 16.8307 14.611 16.5458 14.2595 16.5458C13.908 16.5458 13.6231 16.8307 13.6231 17.1821C13.6231 17.5336 13.908 17.8185 14.2595 17.8185Z" fill="#1150A1"/>
<path d="M27.4861 25.4545C27.8376 25.4545 28.1225 25.1696 28.1225 24.8181C28.1225 24.4667 27.8376 24.1818 27.4861 24.1818C27.1347 24.1818 26.8497 24.4667 26.8497 24.8181C26.8497 25.1696 27.1347 25.4545 27.4861 25.4545Z" fill="#1150A1"/>
<path d="M21.5092 12.091V13.3637C21.5092 13.715 21.2241 14 20.8728 14C20.5215 14 20.2364 13.715 20.2364 13.3637V12.091C20.2364 11.7397 20.5215 11.4546 20.8728 11.4546C21.2241 11.4546 21.5092 11.7397 21.5092 12.091Z" fill="#1150A1"/>
<path d="M21.5092 28.6362V29.909C21.5092 30.2602 21.2241 30.5453 20.8728 30.5453C20.5215 30.5453 20.2364 30.2602 20.2364 29.909V28.6362C20.2364 28.285 20.5215 27.9999 20.8728 27.9999C21.2241 27.9999 21.5092 28.285 21.5092 28.6362Z" fill="#1150A1"/>
<path d="M21.6358 21C21.6358 21.3513 21.3507 21.6363 20.9994 21.6363C20.6482 21.6363 20.3631 21.3513 20.3631 21V15.9091C20.3631 15.5578 20.6482 15.2727 20.9994 15.2727C21.3507 15.2727 21.6358 15.5578 21.6358 15.9091V21Z" fill="#1150A1"/>
<path d="M21.3179 21.551L20.6815 20.4488L22.8859 19.1761C23.1901 19.0005 23.5798 19.1048 23.7552 19.409C23.9308 19.7132 23.8265 20.1027 23.5223 20.2783L21.3179 21.551Z" fill="#1150A1"/>
</svg>
