<svg width="42" height="42" viewBox="0 0 42 42" fill="none" xmlns="http://www.w3.org/2000/svg">
<rect width="42" height="42" rx="7.77778" fill="#BADBFF"/>
<path d="M20.9999 9.33331C17.9053 9.33331 14.9383 10.5622 12.7505 12.7506C10.562 14.9381 9.33328 17.9053 9.33328 21C9.33328 24.0947 10.5622 27.0617 12.7505 29.2494C14.938 31.4379 17.9053 32.6666 20.9999 32.6666C24.0946 32.6666 27.0616 31.4378 29.2494 29.2494C31.4379 27.0619 32.6666 24.0947 32.6666 21C32.6637 17.9063 31.4329 14.941 29.2454 12.7545C27.0589 10.567 24.0936 9.3363 20.9999 9.33331ZM20.9999 31.1111C17.569 31.113 14.3703 29.3737 12.5076 26.492C10.6449 23.6102 10.3716 19.98 11.7823 16.8525C13.193 13.724 16.0951 11.5258 19.4882 11.0143C18.7639 12.1994 17.8889 13.827 17.8889 14.7778C17.8889 16.4957 19.2821 17.8889 21 17.8889C22.7179 17.8889 24.1111 16.4957 24.1111 14.7778C24.1111 14.348 23.763 14 23.3333 14C22.9036 14 22.5555 14.348 22.5555 14.7778C22.5555 15.6372 21.8594 16.3333 21 16.3333C20.1405 16.3333 19.4444 15.6372 19.4444 14.7778C19.4444 14.1808 20.4196 12.3861 21.4015 10.9093C24.9629 11.0483 28.1877 13.054 29.8871 16.1855C31.5875 19.318 31.5117 23.1135 29.6888 26.1761C27.8649 29.2387 24.564 31.1131 20.9999 31.1111ZM16.722 21.7778C16.2505 21.7778 15.8247 21.4939 15.6439 21.0573C15.464 20.6218 15.5632 20.1201 15.8966 19.7857C16.2311 19.4522 16.7327 19.353 17.1683 19.5329C17.6048 19.7137 17.8887 20.1396 17.8887 20.6111C17.8887 21.2557 17.3666 21.7778 16.722 21.7778ZM26.4441 20.6111C26.4441 21.0826 26.1603 21.5085 25.7237 21.6893C25.2882 21.8691 24.7865 21.77 24.4521 21.4365C24.1186 21.102 24.0194 20.6004 24.1993 20.1648C24.3801 19.7283 24.806 19.4444 25.2775 19.4444C25.9221 19.4444 26.4441 19.9665 26.4441 20.6111ZM25.3339 24.4017C25.6858 24.6476 25.7723 25.1328 25.5264 25.4847C24.4949 26.9664 22.804 27.8482 20.9996 27.8482C19.1951 27.8482 17.5044 26.9664 16.4728 25.4847C16.3542 25.3156 16.3075 25.1065 16.3435 24.9034C16.3795 24.6992 16.4952 24.5183 16.6643 24.4007C16.8335 24.2821 17.0435 24.2364 17.2467 24.2724C17.4499 24.3093 17.6307 24.425 17.7483 24.5952C18.4892 25.6588 19.7035 26.2936 20.9993 26.2936C22.2952 26.2936 23.5096 25.6588 24.2503 24.5952C24.368 24.426 24.5488 24.3103 24.752 24.2743C24.9552 24.2374 25.1642 24.2841 25.3334 24.4017L25.3339 24.4017Z" fill="#1150A1"/>
</svg>
