<svg width="42" height="42" viewBox="0 0 42 42" fill="none" xmlns="http://www.w3.org/2000/svg">
<rect width="42" height="42" rx="7.77778" fill="#FBBCE1"/>
<path d="M20.9999 8.50067C13.6766 8.50067 7.72285 14.4544 7.72285 21.7778C7.72285 29.1011 13.6766 35.0549 20.9999 35.0549C28.3233 35.0549 34.277 29.1011 34.277 21.7778C34.277 14.4544 28.3233 8.50067 20.9999 8.50067ZM8.64526 21.7778C8.64526 18.5354 9.90309 15.6004 11.9436 13.3922L14.6269 16.0756L15.5214 15.6563L12.6144 12.7214C14.8226 10.6809 17.7575 9.42308 20.9999 9.42308C27.8202 9.42308 33.3546 14.9575 33.3546 21.7778C33.3546 25.0202 32.0968 27.9551 30.0563 30.1633L27.6525 27.7595C27.5966 27.8154 27.5407 27.8433 27.4568 27.8713L26.786 28.2067L29.4134 30.8342C27.2052 32.8746 24.2703 34.1325 21.0279 34.1325C14.1797 34.1325 8.64526 28.598 8.64526 21.7778Z" fill="#DD0984" stroke="#DD0984" stroke-width="0.311111"/>
<path d="M27.3451 26.6414V22.812L29.1061 22.0014C29.2738 21.9175 29.3856 21.7498 29.3856 21.5821V16.9142C29.3856 16.7465 29.2738 16.5788 29.1061 16.4949L25.053 14.6501C24.9412 14.5942 24.8015 14.5942 24.6617 14.6501L20.6087 16.4949C20.441 16.5788 20.3292 16.7465 20.3292 16.9142V17.7248L16.975 16.1874C16.8632 16.1315 16.7234 16.1315 16.5837 16.1874L12.5306 18.0322C12.3629 18.1161 12.2511 18.2838 12.2511 18.4515V23.1195C12.2511 23.2872 12.3629 23.4549 12.5306 23.5388L16.5837 25.3836C16.6396 25.4115 16.7234 25.4115 16.7793 25.4115C16.8352 25.4115 16.9191 25.4115 16.975 25.3836L18.3446 24.7686V26.6414C18.3446 26.8091 18.4564 26.9768 18.6241 27.0607L22.6771 28.9055C22.733 28.9334 22.8169 28.9334 22.8728 28.9334C22.9287 28.9334 23.0126 28.9334 23.0685 28.9055L27.1215 27.0607C27.2333 26.9768 27.3451 26.8091 27.3451 26.6414ZM28.4352 21.3026L27.3171 21.8057C27.2892 21.6939 27.1774 21.5821 27.0656 21.5262L25.3046 20.7156V19.0665L28.4073 17.6409V21.3026H28.4352ZM24.8574 15.5725L27.7923 16.9142L24.8574 18.2559L21.9224 16.9142L24.8574 15.5725ZM21.2796 17.6409L24.3822 19.0665V20.2963L23.0126 19.6814C22.9008 19.6255 22.761 19.6255 22.6212 19.6814L21.2796 20.2963V17.6409ZM16.3321 24.2375L13.2294 22.812V19.1503L16.3321 20.5759V24.2375ZM16.7793 19.7932L13.8444 18.4515L16.7793 17.1098L19.7143 18.4515L16.7793 19.7932ZM18.3446 21.9455V23.7344L17.2545 24.2375V20.5759L20.3571 19.1503V20.7156L18.5962 21.5262C18.4564 21.6101 18.3446 21.7778 18.3446 21.9455ZM22.3976 27.7595L19.295 26.3339V22.6722L22.3976 24.0978V27.7595ZM22.8449 23.2872L19.9099 21.9455L22.8449 20.6038L25.7798 21.9455L22.8449 23.2872ZM26.4227 26.3339L23.32 27.7595V24.0978L26.4227 22.6722V26.3339Z" fill="#DD0984" stroke="#DD0984" stroke-width="0.155556"/>
</svg>
