<svg width="42" height="42" viewBox="0 0 42 42" fill="none" xmlns="http://www.w3.org/2000/svg">
<rect width="42" height="42" rx="7.77778" fill="#BADBFF"/>
<path d="M21.311 8.67118C24.6425 8.67118 27.68 9.94498 29.9336 12.068L28.2026 13.799C28.0066 13.995 28.0066 14.289 28.2026 14.4523C28.3985 14.6482 28.6925 14.6482 28.8558 14.4523L30.5868 12.7212C32.6772 14.9749 33.951 17.9797 33.951 21.3112C33.951 28.3007 28.3005 33.9512 21.311 33.9512C17.9795 33.9512 14.9746 32.6774 12.721 30.5871L16.5751 26.733C16.771 26.537 16.771 26.2431 16.5751 26.0798C16.4771 25.9818 16.3791 25.9491 16.2484 25.9491C16.1178 25.9491 16.0198 26.0144 15.9218 26.0798L12.0351 29.9012C9.94478 27.6475 8.67098 24.6427 8.67098 21.3112C8.67098 14.3216 14.3214 8.67118 21.311 8.67118ZM21.311 7.724C13.8315 7.724 7.72379 13.8317 7.72379 21.3112C7.72379 28.7907 13.7988 34.8984 21.311 34.8984C28.8231 34.8984 34.8982 28.7907 34.8982 21.3112C34.8982 13.8317 28.7905 7.724 21.311 7.724Z" fill="#1150A1" stroke="#1150A1" stroke-width="0.311111"/>
<path fill-rule="evenodd" clip-rule="evenodd" d="M18.3715 21.2458C17.9469 21.2458 17.5876 20.9192 17.5876 20.5599C17.5876 20.2006 17.9469 19.874 18.3715 19.874C18.7961 19.874 19.1554 20.2006 19.1554 20.5599C19.1554 20.9192 18.8288 21.2458 18.3715 21.2458Z" fill="#1150A1" stroke="#1150A1" stroke-width="0.466667"/>
<path fill-rule="evenodd" clip-rule="evenodd" d="M24.1527 21.2785C23.7281 21.2785 23.3688 20.9518 23.3688 20.5926C23.3688 20.2333 23.7281 19.9067 24.1527 19.9067C24.5773 19.9067 24.9366 20.2333 24.9366 20.5926C24.9366 20.9518 24.61 21.2785 24.1527 21.2785Z" fill="#1150A1" stroke="#1150A1" stroke-width="0.466667"/>
<path d="M22.7154 29.7379C22.4868 30.1298 22.0295 30.5217 21.2783 30.5217C20.5271 30.5217 20.0698 30.1625 19.8412 29.7379C20.3311 29.5092 20.8537 29.0846 21.2456 29.1173C21.9315 29.1499 22.1928 29.4766 22.7154 29.7379ZM24.2178 28.1374C24.2178 28.562 24.0872 28.9213 23.8259 29.0193C23.434 29.2153 23.1727 29.1499 22.8134 28.9213C22.3888 28.6927 21.9969 28.3661 21.2456 28.3007C21.213 28.3007 21.213 28.3007 21.1803 28.3007C20.5271 28.3661 20.1351 28.6927 19.7105 28.9213C19.3513 29.1499 19.0573 29.1826 18.698 29.0193C18.4694 28.9213 18.3061 28.562 18.3061 28.1374C18.4041 26.4717 20.1025 25.5572 21.2456 25.5572C23.0094 25.5245 24.2178 27.027 24.2178 28.1374ZM16.3138 15.2035L17.1956 16.3793C17.065 16.5426 16.9343 16.7059 16.8363 16.9345C16.7383 17.1305 16.8037 17.3591 16.9996 17.4571C17.1956 17.5551 17.4242 17.4571 17.5222 17.2938C17.6202 17.0979 17.7182 16.9345 17.8815 16.7386C17.9142 16.7386 17.9468 16.7059 17.9468 16.6733C18.8613 15.8241 20.2985 15.4321 21.2783 15.4321C22.2908 15.4321 23.6952 15.8241 24.6098 16.6733C24.6424 16.7059 24.6751 16.7059 24.6751 16.7386C24.8384 16.9345 24.969 17.0979 25.0344 17.2938C25.1324 17.4898 25.361 17.5551 25.557 17.4571C25.7529 17.3591 25.8182 17.1305 25.7203 16.9345C25.6223 16.7386 25.4916 16.5753 25.3936 16.412L26.2755 15.2361C26.4715 14.9422 26.6348 14.9422 26.7654 15.0075C26.8961 15.0728 27.0267 15.2361 26.9614 15.6281C26.7001 16.8039 26.2102 17.7184 25.6223 18.3717C25.3936 18.6329 25.5896 19.0249 25.9162 19.0249C25.9162 19.0249 28.0066 18.8616 29.0517 18.7963C29.3457 18.7963 29.411 18.8616 29.4763 19.0249C29.5417 19.2535 29.4763 19.4495 29.3784 19.6128C29.0517 20.168 28.5945 20.6253 28.1372 20.8213C27.68 21.0499 27.19 21.0499 26.5041 20.658C26.2428 20.4946 25.9162 20.6906 25.9162 20.9846C25.8836 22.389 25.5896 23.0749 25.1977 23.8914C24.9037 24.512 24.5444 25.2306 24.2832 26.2757C23.6626 25.4265 22.6174 24.806 21.213 24.806C19.8739 24.806 18.8287 25.3939 18.2081 26.2104C17.9468 25.1979 17.6202 24.512 17.3263 23.8914C16.9343 23.0749 16.6077 22.389 16.6077 20.9846C16.6077 20.6906 16.2811 20.4946 16.0198 20.658C15.3339 21.0826 14.844 21.0499 14.4194 20.8213C13.9621 20.5926 13.5375 20.1354 13.1782 19.6128C13.0476 19.4168 13.0476 19.2209 13.0803 19.0249C13.1129 18.8616 13.2109 18.7636 13.5049 18.7963L16.6404 19.0249C16.9996 19.0575 17.1956 18.6329 16.9343 18.3717C16.3138 17.7511 15.7912 16.8039 15.5952 15.6607C15.5299 15.2688 15.6605 15.0402 15.7912 15.0075C16.0851 14.8769 16.2158 15.0402 16.3138 15.2035ZM26.6674 14.191C26.3082 14.191 25.9489 14.4196 25.6876 14.7789L24.8057 15.8894C23.7279 15.0402 22.3888 14.6482 21.311 14.6482C20.2658 14.6482 18.894 15.0402 17.8162 15.8894L16.9343 14.7789C16.575 14.2563 15.9545 14.0603 15.4972 14.289C15.04 14.5176 14.7787 15.1055 14.9093 15.7587C15.1053 16.7712 15.4646 17.4898 15.9871 18.2083L13.6028 18.045C13.0476 18.0124 12.5903 18.339 12.427 18.7636C12.2637 19.1882 12.329 19.6455 12.5903 20.0374C12.9823 20.6253 13.4722 21.2132 14.1254 21.5398C14.648 21.8011 15.3339 21.7684 15.9871 21.5072C16.0851 22.6503 16.3138 23.5648 16.6404 24.2507C17.0323 25.0346 17.4242 25.8185 17.6529 27.2882C17.5549 27.5822 17.5222 27.8761 17.5222 28.1701C17.5222 28.7907 17.7509 29.3786 18.2408 29.7052C18.4694 29.8685 18.7634 29.9338 19.0573 29.9338C19.3839 30.685 20.1351 31.3056 21.2456 31.3056C22.3561 31.3056 23.14 30.685 23.434 29.9338C23.7279 29.9338 23.9892 29.8685 24.2178 29.7052C24.7078 29.3786 24.9364 28.7907 24.9364 28.1701C24.9364 27.9415 24.9037 27.7128 24.8384 27.4842C25.067 25.8838 25.459 25.0673 25.8509 24.2507C26.1775 23.5322 26.4388 22.6503 26.5368 21.5072C27.2227 21.7684 27.8759 21.8011 28.3985 21.5398C29.0517 21.2132 29.5417 20.658 29.9336 20.0374C30.1949 19.6455 30.2602 19.1555 30.0969 18.7636C29.9336 18.339 29.4763 18.0124 28.9211 18.045L26.5368 18.2083C27.0267 17.5225 27.4187 16.7712 27.6146 15.7914C27.7453 15.1382 27.484 14.5503 27.0267 14.3216C26.9941 14.191 26.8308 14.1583 26.6674 14.191Z" fill="#1150A1" stroke="#1150A1" stroke-width="0.466667"/>
<path d="M19.868 27.7439C19.7619 27.6543 19.6522 27.4809 19.631 27.3217L19.868 27.7439Z" fill="#1150A1"/>
<path d="M19.868 27.7439C19.7619 27.6543 19.6522 27.4809 19.631 27.3217" stroke="#1150A1" stroke-width="1.01111" stroke-linecap="round"/>
<path d="M22.6389 27.7439C22.745 27.6543 22.8547 27.4809 22.8759 27.3217L22.6389 27.7439Z" fill="#1150A1"/>
<path d="M22.6389 27.7439C22.745 27.6543 22.8547 27.4809 22.8759 27.3217" stroke="#1150A1" stroke-width="1.01111" stroke-linecap="round"/>
</svg>
