<svg width="42" height="42" viewBox="0 0 42 42" fill="none" xmlns="http://www.w3.org/2000/svg">
<rect width="42" height="42" rx="7.77778" fill="#FBBCE1"/>
<mask id="path-2-outside-1_619_3718" maskUnits="userSpaceOnUse" x="9.88882" y="8.33331" width="22" height="25" fill="black">
<rect fill="white" x="9.88882" y="8.33331" width="22" height="25"/>
<path d="M31.0217 15.9496C30.9761 15.9027 30.9203 15.8668 30.8587 15.8447C30.7971 15.8225 30.7313 15.8147 30.6662 15.8219L29.831 15.9148C31.4641 12.9384 29.7965 9.70925 29.7182 9.56155C29.7152 9.55588 29.7107 9.55144 29.7074 9.54593C29.6961 9.52623 29.6831 9.50747 29.6688 9.48982C29.662 9.4816 29.6548 9.47405 29.6474 9.46638C29.6332 9.45151 29.6178 9.43771 29.6016 9.42508C29.5929 9.41831 29.5843 9.41168 29.5752 9.4056C29.558 9.39451 29.5401 9.38467 29.5215 9.37614C29.5114 9.37135 29.5017 9.36607 29.4912 9.36206C29.4872 9.36054 29.4838 9.35816 29.4798 9.35675C29.461 9.3509 29.4419 9.34636 29.4225 9.34316C29.4161 9.34188 29.4102 9.33896 29.4036 9.33796C29.4025 9.33778 29.4013 9.338 29.4001 9.33782C29.3693 9.3333 29.338 9.33217 29.3069 9.33447C29.2992 9.33504 29.2918 9.33722 29.2841 9.33823C29.2613 9.34095 29.2387 9.3455 29.2166 9.35186C29.2062 9.35499 29.1964 9.35925 29.1862 9.36315C29.1672 9.37032 29.1487 9.37884 29.1309 9.38863C29.1215 9.3939 29.1124 9.39942 29.1034 9.40541C29.0851 9.4176 29.0677 9.43119 29.0515 9.44606C29.0469 9.45026 29.0413 9.45311 29.0369 9.45754C28.8829 9.61015 28.7276 9.77246 28.5657 9.94147C27.7561 10.7874 26.8447 11.7395 25.1718 12.5007L24.8115 11.985C24.7742 11.9315 24.7251 11.8872 24.6681 11.8556C24.611 11.8239 24.5475 11.8057 24.4824 11.8023C23.8528 11.7697 23.2748 12.4843 22.4702 13.5795C22.3783 13.7047 22.2725 13.8484 22.1717 13.9804L21.9304 13.3061C21.8994 13.2195 21.8414 13.1452 21.765 13.094C21.6886 13.0429 21.5978 13.0177 21.506 13.022C20.8143 13.0553 20.2257 13.9126 19.4692 15.1201C19.4007 15.2291 19.3229 15.3534 19.2487 15.4695L18.9803 15.0069C18.928 14.9164 18.8445 14.8482 18.7454 14.8151C18.6464 14.7819 18.5386 14.7861 18.4424 14.8268C17.6507 15.1609 17.1822 16.0404 16.8401 16.6826C16.8114 16.737 16.7796 16.7965 16.7477 16.8557L16.2481 16.1149C16.2165 16.068 16.1759 16.0279 16.1288 15.9967C16.0816 15.9656 16.0288 15.9441 15.9733 15.9334C15.9177 15.9228 15.8607 15.9232 15.8053 15.9347C15.75 15.9462 15.6975 15.9685 15.6508 16.0003C15.2357 16.2833 14.5644 17.4833 14.2343 18.793C14.0429 18.5729 13.7851 18.4209 13.4998 18.3601C13.4015 18.3486 13.3019 18.36 13.2088 18.3933C13.1156 18.4266 13.0314 18.4809 12.9626 18.5521C12.6545 18.8655 12.536 19.8499 12.5793 20.8159C12.374 20.6729 12.1265 20.6032 11.8767 20.618C11.7674 20.633 11.6636 20.6753 11.575 20.7412C11.4864 20.807 11.416 20.8942 11.3701 20.9946C10.6465 22.4782 10.6414 24.9345 12.0326 26.7586C12.2625 27.0597 12.5259 27.3339 12.8175 27.5759C12.0543 29.0191 11.5082 30.567 11.1968 32.1696C11.1788 32.2819 11.2061 32.3966 11.2726 32.4888C11.3392 32.5809 11.4396 32.6429 11.5517 32.6611C11.6639 32.6793 11.7788 32.6523 11.871 32.5859C11.9633 32.5195 12.0254 32.4192 12.0438 32.3071C12.3435 30.8339 12.8465 29.4095 13.5384 28.0748C14.4776 28.5877 15.5347 28.8457 16.6046 28.8231C17.1817 28.8204 17.7574 28.764 18.3241 28.6547C18.4249 28.6358 18.5156 28.5813 18.5797 28.5012C18.6438 28.4212 18.677 28.3208 18.6734 28.2183L18.654 27.6616C19.3074 27.8197 19.9894 27.8165 20.6413 27.6521C21.5599 27.4389 22.4336 27.0646 23.2217 26.5467C23.2798 26.5044 23.3262 26.4482 23.3569 26.3832C23.3876 26.3182 23.4014 26.2466 23.3972 26.1749C23.393 26.1032 23.3708 26.0337 23.3328 25.9728C23.2947 25.9119 23.2419 25.8615 23.1793 25.8262L22.426 25.4025C23.3721 25.2317 24.6571 24.9164 25.6214 24.3655C25.6813 24.3312 25.732 24.283 25.7693 24.225C25.8066 24.167 25.8294 24.1008 25.8357 24.0322C25.842 23.9635 25.8316 23.8943 25.8055 23.8304C25.7794 23.7666 25.7382 23.71 25.6856 23.6655C25.5652 23.5635 25.3792 23.4085 25.1757 23.2481C26.3248 22.9837 28.1693 22.4377 29.2535 21.489C29.3098 21.4398 29.3522 21.3768 29.3766 21.3061C29.401 21.2355 29.4065 21.1597 29.3926 21.0863C29.3787 21.0128 29.3459 20.9443 29.2973 20.8875C29.2488 20.8307 29.1862 20.7875 29.1159 20.7623L28.0192 20.3692C30.4216 19.0629 30.9545 17.5968 31.1383 16.3088C31.1475 16.244 31.1418 16.178 31.1216 16.1157C31.1014 16.0535 31.0672 15.9966 31.0217 15.9496ZM28.6705 16.1243C27.7198 16.7298 26.6173 17.0541 25.4902 17.0598C27.1476 15.2874 28.4559 13.2183 29.3465 10.9611C29.7205 12.1822 30.0464 14.3093 28.6705 16.1243ZM28.1541 11.5556C27.3186 13.3834 26.1886 15.0615 24.809 16.5229C24.7228 15.4417 24.9055 14.356 25.3408 13.3626C26.3726 12.9211 27.3235 12.3104 28.1541 11.5556ZM23.1616 14.0876C23.4925 13.6015 23.8708 13.1493 24.2909 12.7379L24.5278 13.077C23.9524 14.3981 23.7896 15.8622 24.0606 17.2774C23.4429 17.8639 22.7953 18.4182 22.1205 18.9381C21.9191 17.6394 22.0031 16.3123 22.3666 15.0493C22.6658 14.7586 22.9324 14.4361 23.1616 14.0876ZM21.2867 14.0535L21.5488 14.7862C21.3804 15.3536 20.843 17.4481 21.3685 19.5058C20.7682 19.9468 20.1698 20.362 19.5831 20.7668C19.1604 19.0272 19.4913 16.9836 19.5901 16.4559C19.8159 16.1795 20.0186 15.8851 20.1962 15.5755C20.5138 15.0368 20.8787 14.5275 21.2867 14.0535ZM18.4613 15.822L18.744 16.3096C18.6219 16.9532 18.2472 19.3041 18.8354 21.2843C18.1285 21.7747 17.4492 22.2606 16.8041 22.7694C16.7324 21.9868 16.7154 20.4459 17.1343 17.8244C17.3183 17.5982 17.474 17.3502 17.5976 17.086C17.8135 16.6197 18.1053 16.1926 18.4613 15.822ZM13.5353 19.3095C13.7608 19.5287 13.9593 19.7742 14.1263 20.0408C14.1743 20.1162 14.2446 20.1748 14.3275 20.2083C14.4103 20.2419 14.5016 20.2487 14.5885 20.2279C14.6755 20.207 14.7537 20.1595 14.8124 20.0921C14.871 20.0246 14.9071 19.9405 14.9156 19.8515C15.0335 18.87 15.3552 17.924 15.86 17.0742L16.2845 17.7035C15.7416 21.1065 15.909 22.792 16.0244 23.4139C15.5943 23.7935 15.1894 24.2006 14.8122 24.6327C14.2574 23.7427 13.833 22.7777 13.5519 21.7673C13.386 20.957 13.3804 20.122 13.5353 19.3095ZM12.7149 26.2382C12.2174 25.569 11.8979 24.7845 11.7862 23.9581C11.6745 23.1318 11.7742 22.2906 12.0761 21.5133C12.3236 21.6721 12.5494 21.8623 12.7481 22.0791C12.8701 22.5082 13.3732 24.1447 14.2484 25.322C13.884 25.7984 13.5482 26.296 13.2426 26.8121C13.0495 26.6374 12.8729 26.4453 12.7149 26.2382ZM13.9476 27.3261C14.2295 26.8414 14.5394 26.3735 14.8755 25.9248C15.7573 26.5896 16.741 27.1069 17.7885 27.4567L17.803 27.8731C16.0538 28.1366 14.8175 27.8315 13.9476 27.3261ZM20.432 26.82C20.1031 26.9031 19.6059 27.0281 18.3091 26.7073L18.306 26.707L18.3026 26.7058C17.1526 26.4405 15.9781 25.6645 15.4141 25.254C15.7676 24.8416 16.1481 24.4532 16.5533 24.0914C17.2539 24.4776 19.1692 25.443 20.9796 25.5734L22.1042 26.2059C21.5706 26.4702 21.0099 26.6761 20.432 26.82ZM21.1071 24.724C19.67 24.6394 18.0811 23.9173 17.2676 23.4979C17.9291 22.9721 18.634 22.4679 19.3714 21.9567C20.0688 22.317 22.1554 23.3201 23.983 23.447C24.204 23.5856 24.4162 23.7378 24.6184 23.9028C23.4888 24.3285 22.3083 24.6045 21.1071 24.724ZM28.054 21.2932C26.599 22.1495 24.4185 22.5361 24.0752 22.5929C22.686 22.5059 21.0538 21.816 20.1789 21.3981C20.8012 20.9684 21.436 20.5258 22.0716 20.0538C22.4436 20.2577 23.7764 20.8844 26.1108 20.8844C26.3474 20.8844 26.5961 20.8768 26.8534 20.8627L28.054 21.2932ZM26.8158 20.0053C24.7837 20.1166 23.4617 19.7215 22.8404 19.4666C23.461 18.9784 24.0778 18.4555 24.6794 17.8803C24.927 17.9093 25.1761 17.9234 25.4253 17.9227C26.7328 17.9292 28.0144 17.5594 29.1174 16.8573L30.1819 16.739C29.9047 17.8281 29.1621 18.9531 26.8158 20.0053Z"/>
</mask>
<path d="M31.0217 15.9496C30.9761 15.9027 30.9203 15.8668 30.8587 15.8447C30.7971 15.8225 30.7313 15.8147 30.6662 15.8219L29.831 15.9148C31.4641 12.9384 29.7965 9.70925 29.7182 9.56155C29.7152 9.55588 29.7107 9.55144 29.7074 9.54593C29.6961 9.52623 29.6831 9.50747 29.6688 9.48982C29.662 9.4816 29.6548 9.47405 29.6474 9.46638C29.6332 9.45151 29.6178 9.43771 29.6016 9.42508C29.5929 9.41831 29.5843 9.41168 29.5752 9.4056C29.558 9.39451 29.5401 9.38467 29.5215 9.37614C29.5114 9.37135 29.5017 9.36607 29.4912 9.36206C29.4872 9.36054 29.4838 9.35816 29.4798 9.35675C29.461 9.3509 29.4419 9.34636 29.4225 9.34316C29.4161 9.34188 29.4102 9.33896 29.4036 9.33796C29.4025 9.33778 29.4013 9.338 29.4001 9.33782C29.3693 9.3333 29.338 9.33217 29.3069 9.33447C29.2992 9.33504 29.2918 9.33722 29.2841 9.33823C29.2613 9.34095 29.2387 9.3455 29.2166 9.35186C29.2062 9.35499 29.1964 9.35925 29.1862 9.36315C29.1672 9.37032 29.1487 9.37884 29.1309 9.38863C29.1215 9.3939 29.1124 9.39942 29.1034 9.40541C29.0851 9.4176 29.0677 9.43119 29.0515 9.44606C29.0469 9.45026 29.0413 9.45311 29.0369 9.45754C28.8829 9.61015 28.7276 9.77246 28.5657 9.94147C27.7561 10.7874 26.8447 11.7395 25.1718 12.5007L24.8115 11.985C24.7742 11.9315 24.7251 11.8872 24.6681 11.8556C24.611 11.8239 24.5475 11.8057 24.4824 11.8023C23.8528 11.7697 23.2748 12.4843 22.4702 13.5795C22.3783 13.7047 22.2725 13.8484 22.1717 13.9804L21.9304 13.3061C21.8994 13.2195 21.8414 13.1452 21.765 13.094C21.6886 13.0429 21.5978 13.0177 21.506 13.022C20.8143 13.0553 20.2257 13.9126 19.4692 15.1201C19.4007 15.2291 19.3229 15.3534 19.2487 15.4695L18.9803 15.0069C18.928 14.9164 18.8445 14.8482 18.7454 14.8151C18.6464 14.7819 18.5386 14.7861 18.4424 14.8268C17.6507 15.1609 17.1822 16.0404 16.8401 16.6826C16.8114 16.737 16.7796 16.7965 16.7477 16.8557L16.2481 16.1149C16.2165 16.068 16.1759 16.0279 16.1288 15.9967C16.0816 15.9656 16.0288 15.9441 15.9733 15.9334C15.9177 15.9228 15.8607 15.9232 15.8053 15.9347C15.75 15.9462 15.6975 15.9685 15.6508 16.0003C15.2357 16.2833 14.5644 17.4833 14.2343 18.793C14.0429 18.5729 13.7851 18.4209 13.4998 18.3601C13.4015 18.3486 13.3019 18.36 13.2088 18.3933C13.1156 18.4266 13.0314 18.4809 12.9626 18.5521C12.6545 18.8655 12.536 19.8499 12.5793 20.8159C12.374 20.6729 12.1265 20.6032 11.8767 20.618C11.7674 20.633 11.6636 20.6753 11.575 20.7412C11.4864 20.807 11.416 20.8942 11.3701 20.9946C10.6465 22.4782 10.6414 24.9345 12.0326 26.7586C12.2625 27.0597 12.5259 27.3339 12.8175 27.5759C12.0543 29.0191 11.5082 30.567 11.1968 32.1696C11.1788 32.2819 11.2061 32.3966 11.2726 32.4888C11.3392 32.5809 11.4396 32.6429 11.5517 32.6611C11.6639 32.6793 11.7788 32.6523 11.871 32.5859C11.9633 32.5195 12.0254 32.4192 12.0438 32.3071C12.3435 30.8339 12.8465 29.4095 13.5384 28.0748C14.4776 28.5877 15.5347 28.8457 16.6046 28.8231C17.1817 28.8204 17.7574 28.764 18.3241 28.6547C18.4249 28.6358 18.5156 28.5813 18.5797 28.5012C18.6438 28.4212 18.677 28.3208 18.6734 28.2183L18.654 27.6616C19.3074 27.8197 19.9894 27.8165 20.6413 27.6521C21.5599 27.4389 22.4336 27.0646 23.2217 26.5467C23.2798 26.5044 23.3262 26.4482 23.3569 26.3832C23.3876 26.3182 23.4014 26.2466 23.3972 26.1749C23.393 26.1032 23.3708 26.0337 23.3328 25.9728C23.2947 25.9119 23.2419 25.8615 23.1793 25.8262L22.426 25.4025C23.3721 25.2317 24.6571 24.9164 25.6214 24.3655C25.6813 24.3312 25.732 24.283 25.7693 24.225C25.8066 24.167 25.8294 24.1008 25.8357 24.0322C25.842 23.9635 25.8316 23.8943 25.8055 23.8304C25.7794 23.7666 25.7382 23.71 25.6856 23.6655C25.5652 23.5635 25.3792 23.4085 25.1757 23.2481C26.3248 22.9837 28.1693 22.4377 29.2535 21.489C29.3098 21.4398 29.3522 21.3768 29.3766 21.3061C29.401 21.2355 29.4065 21.1597 29.3926 21.0863C29.3787 21.0128 29.3459 20.9443 29.2973 20.8875C29.2488 20.8307 29.1862 20.7875 29.1159 20.7623L28.0192 20.3692C30.4216 19.0629 30.9545 17.5968 31.1383 16.3088C31.1475 16.244 31.1418 16.178 31.1216 16.1157C31.1014 16.0535 31.0672 15.9966 31.0217 15.9496ZM28.6705 16.1243C27.7198 16.7298 26.6173 17.0541 25.4902 17.0598C27.1476 15.2874 28.4559 13.2183 29.3465 10.9611C29.7205 12.1822 30.0464 14.3093 28.6705 16.1243ZM28.1541 11.5556C27.3186 13.3834 26.1886 15.0615 24.809 16.5229C24.7228 15.4417 24.9055 14.356 25.3408 13.3626C26.3726 12.9211 27.3235 12.3104 28.1541 11.5556ZM23.1616 14.0876C23.4925 13.6015 23.8708 13.1493 24.2909 12.7379L24.5278 13.077C23.9524 14.3981 23.7896 15.8622 24.0606 17.2774C23.4429 17.8639 22.7953 18.4182 22.1205 18.9381C21.9191 17.6394 22.0031 16.3123 22.3666 15.0493C22.6658 14.7586 22.9324 14.4361 23.1616 14.0876ZM21.2867 14.0535L21.5488 14.7862C21.3804 15.3536 20.843 17.4481 21.3685 19.5058C20.7682 19.9468 20.1698 20.362 19.5831 20.7668C19.1604 19.0272 19.4913 16.9836 19.5901 16.4559C19.8159 16.1795 20.0186 15.8851 20.1962 15.5755C20.5138 15.0368 20.8787 14.5275 21.2867 14.0535ZM18.4613 15.822L18.744 16.3096C18.6219 16.9532 18.2472 19.3041 18.8354 21.2843C18.1285 21.7747 17.4492 22.2606 16.8041 22.7694C16.7324 21.9868 16.7154 20.4459 17.1343 17.8244C17.3183 17.5982 17.474 17.3502 17.5976 17.086C17.8135 16.6197 18.1053 16.1926 18.4613 15.822ZM13.5353 19.3095C13.7608 19.5287 13.9593 19.7742 14.1263 20.0408C14.1743 20.1162 14.2446 20.1748 14.3275 20.2083C14.4103 20.2419 14.5016 20.2487 14.5885 20.2279C14.6755 20.207 14.7537 20.1595 14.8124 20.0921C14.871 20.0246 14.9071 19.9405 14.9156 19.8515C15.0335 18.87 15.3552 17.924 15.86 17.0742L16.2845 17.7035C15.7416 21.1065 15.909 22.792 16.0244 23.4139C15.5943 23.7935 15.1894 24.2006 14.8122 24.6327C14.2574 23.7427 13.833 22.7777 13.5519 21.7673C13.386 20.957 13.3804 20.122 13.5353 19.3095ZM12.7149 26.2382C12.2174 25.569 11.8979 24.7845 11.7862 23.9581C11.6745 23.1318 11.7742 22.2906 12.0761 21.5133C12.3236 21.6721 12.5494 21.8623 12.7481 22.0791C12.8701 22.5082 13.3732 24.1447 14.2484 25.322C13.884 25.7984 13.5482 26.296 13.2426 26.8121C13.0495 26.6374 12.8729 26.4453 12.7149 26.2382ZM13.9476 27.3261C14.2295 26.8414 14.5394 26.3735 14.8755 25.9248C15.7573 26.5896 16.741 27.1069 17.7885 27.4567L17.803 27.8731C16.0538 28.1366 14.8175 27.8315 13.9476 27.3261ZM20.432 26.82C20.1031 26.9031 19.6059 27.0281 18.3091 26.7073L18.306 26.707L18.3026 26.7058C17.1526 26.4405 15.9781 25.6645 15.4141 25.254C15.7676 24.8416 16.1481 24.4532 16.5533 24.0914C17.2539 24.4776 19.1692 25.443 20.9796 25.5734L22.1042 26.2059C21.5706 26.4702 21.0099 26.6761 20.432 26.82ZM21.1071 24.724C19.67 24.6394 18.0811 23.9173 17.2676 23.4979C17.9291 22.9721 18.634 22.4679 19.3714 21.9567C20.0688 22.317 22.1554 23.3201 23.983 23.447C24.204 23.5856 24.4162 23.7378 24.6184 23.9028C23.4888 24.3285 22.3083 24.6045 21.1071 24.724ZM28.054 21.2932C26.599 22.1495 24.4185 22.5361 24.0752 22.5929C22.686 22.5059 21.0538 21.816 20.1789 21.3981C20.8012 20.9684 21.436 20.5258 22.0716 20.0538C22.4436 20.2577 23.7764 20.8844 26.1108 20.8844C26.3474 20.8844 26.5961 20.8768 26.8534 20.8627L28.054 21.2932ZM26.8158 20.0053C24.7837 20.1166 23.4617 19.7215 22.8404 19.4666C23.461 18.9784 24.0778 18.4555 24.6794 17.8803C24.927 17.9093 25.1761 17.9234 25.4253 17.9227C26.7328 17.9292 28.0144 17.5594 29.1174 16.8573L30.1819 16.739C29.9047 17.8281 29.1621 18.9531 26.8158 20.0053Z" fill="#DD0984"/>
<path d="M31.0217 15.9496C30.9761 15.9027 30.9203 15.8668 30.8587 15.8447C30.7971 15.8225 30.7313 15.8147 30.6662 15.8219L29.831 15.9148C31.4641 12.9384 29.7965 9.70925 29.7182 9.56155C29.7152 9.55588 29.7107 9.55144 29.7074 9.54593C29.6961 9.52623 29.6831 9.50747 29.6688 9.48982C29.662 9.4816 29.6548 9.47405 29.6474 9.46638C29.6332 9.45151 29.6178 9.43771 29.6016 9.42508C29.5929 9.41831 29.5843 9.41168 29.5752 9.4056C29.558 9.39451 29.5401 9.38467 29.5215 9.37614C29.5114 9.37135 29.5017 9.36607 29.4912 9.36206C29.4872 9.36054 29.4838 9.35816 29.4798 9.35675C29.461 9.3509 29.4419 9.34636 29.4225 9.34316C29.4161 9.34188 29.4102 9.33896 29.4036 9.33796C29.4025 9.33778 29.4013 9.338 29.4001 9.33782C29.3693 9.3333 29.338 9.33217 29.3069 9.33447C29.2992 9.33504 29.2918 9.33722 29.2841 9.33823C29.2613 9.34095 29.2387 9.3455 29.2166 9.35186C29.2062 9.35499 29.1964 9.35925 29.1862 9.36315C29.1672 9.37032 29.1487 9.37884 29.1309 9.38863C29.1215 9.3939 29.1124 9.39942 29.1034 9.40541C29.0851 9.4176 29.0677 9.43119 29.0515 9.44606C29.0469 9.45026 29.0413 9.45311 29.0369 9.45754C28.8829 9.61015 28.7276 9.77246 28.5657 9.94147C27.7561 10.7874 26.8447 11.7395 25.1718 12.5007L24.8115 11.985C24.7742 11.9315 24.7251 11.8872 24.6681 11.8556C24.611 11.8239 24.5475 11.8057 24.4824 11.8023C23.8528 11.7697 23.2748 12.4843 22.4702 13.5795C22.3783 13.7047 22.2725 13.8484 22.1717 13.9804L21.9304 13.3061C21.8994 13.2195 21.8414 13.1452 21.765 13.094C21.6886 13.0429 21.5978 13.0177 21.506 13.022C20.8143 13.0553 20.2257 13.9126 19.4692 15.1201C19.4007 15.2291 19.3229 15.3534 19.2487 15.4695L18.9803 15.0069C18.928 14.9164 18.8445 14.8482 18.7454 14.8151C18.6464 14.7819 18.5386 14.7861 18.4424 14.8268C17.6507 15.1609 17.1822 16.0404 16.8401 16.6826C16.8114 16.737 16.7796 16.7965 16.7477 16.8557L16.2481 16.1149C16.2165 16.068 16.1759 16.0279 16.1288 15.9967C16.0816 15.9656 16.0288 15.9441 15.9733 15.9334C15.9177 15.9228 15.8607 15.9232 15.8053 15.9347C15.75 15.9462 15.6975 15.9685 15.6508 16.0003C15.2357 16.2833 14.5644 17.4833 14.2343 18.793C14.0429 18.5729 13.7851 18.4209 13.4998 18.3601C13.4015 18.3486 13.3019 18.36 13.2088 18.3933C13.1156 18.4266 13.0314 18.4809 12.9626 18.5521C12.6545 18.8655 12.536 19.8499 12.5793 20.8159C12.374 20.6729 12.1265 20.6032 11.8767 20.618C11.7674 20.633 11.6636 20.6753 11.575 20.7412C11.4864 20.807 11.416 20.8942 11.3701 20.9946C10.6465 22.4782 10.6414 24.9345 12.0326 26.7586C12.2625 27.0597 12.5259 27.3339 12.8175 27.5759C12.0543 29.0191 11.5082 30.567 11.1968 32.1696C11.1788 32.2819 11.2061 32.3966 11.2726 32.4888C11.3392 32.5809 11.4396 32.6429 11.5517 32.6611C11.6639 32.6793 11.7788 32.6523 11.871 32.5859C11.9633 32.5195 12.0254 32.4192 12.0438 32.3071C12.3435 30.8339 12.8465 29.4095 13.5384 28.0748C14.4776 28.5877 15.5347 28.8457 16.6046 28.8231C17.1817 28.8204 17.7574 28.764 18.3241 28.6547C18.4249 28.6358 18.5156 28.5813 18.5797 28.5012C18.6438 28.4212 18.677 28.3208 18.6734 28.2183L18.654 27.6616C19.3074 27.8197 19.9894 27.8165 20.6413 27.6521C21.5599 27.4389 22.4336 27.0646 23.2217 26.5467C23.2798 26.5044 23.3262 26.4482 23.3569 26.3832C23.3876 26.3182 23.4014 26.2466 23.3972 26.1749C23.393 26.1032 23.3708 26.0337 23.3328 25.9728C23.2947 25.9119 23.2419 25.8615 23.1793 25.8262L22.426 25.4025C23.3721 25.2317 24.6571 24.9164 25.6214 24.3655C25.6813 24.3312 25.732 24.283 25.7693 24.225C25.8066 24.167 25.8294 24.1008 25.8357 24.0322C25.842 23.9635 25.8316 23.8943 25.8055 23.8304C25.7794 23.7666 25.7382 23.71 25.6856 23.6655C25.5652 23.5635 25.3792 23.4085 25.1757 23.2481C26.3248 22.9837 28.1693 22.4377 29.2535 21.489C29.3098 21.4398 29.3522 21.3768 29.3766 21.3061C29.401 21.2355 29.4065 21.1597 29.3926 21.0863C29.3787 21.0128 29.3459 20.9443 29.2973 20.8875C29.2488 20.8307 29.1862 20.7875 29.1159 20.7623L28.0192 20.3692C30.4216 19.0629 30.9545 17.5968 31.1383 16.3088C31.1475 16.244 31.1418 16.178 31.1216 16.1157C31.1014 16.0535 31.0672 15.9966 31.0217 15.9496ZM28.6705 16.1243C27.7198 16.7298 26.6173 17.0541 25.4902 17.0598C27.1476 15.2874 28.4559 13.2183 29.3465 10.9611C29.7205 12.1822 30.0464 14.3093 28.6705 16.1243ZM28.1541 11.5556C27.3186 13.3834 26.1886 15.0615 24.809 16.5229C24.7228 15.4417 24.9055 14.356 25.3408 13.3626C26.3726 12.9211 27.3235 12.3104 28.1541 11.5556ZM23.1616 14.0876C23.4925 13.6015 23.8708 13.1493 24.2909 12.7379L24.5278 13.077C23.9524 14.3981 23.7896 15.8622 24.0606 17.2774C23.4429 17.8639 22.7953 18.4182 22.1205 18.9381C21.9191 17.6394 22.0031 16.3123 22.3666 15.0493C22.6658 14.7586 22.9324 14.4361 23.1616 14.0876ZM21.2867 14.0535L21.5488 14.7862C21.3804 15.3536 20.843 17.4481 21.3685 19.5058C20.7682 19.9468 20.1698 20.362 19.5831 20.7668C19.1604 19.0272 19.4913 16.9836 19.5901 16.4559C19.8159 16.1795 20.0186 15.8851 20.1962 15.5755C20.5138 15.0368 20.8787 14.5275 21.2867 14.0535ZM18.4613 15.822L18.744 16.3096C18.6219 16.9532 18.2472 19.3041 18.8354 21.2843C18.1285 21.7747 17.4492 22.2606 16.8041 22.7694C16.7324 21.9868 16.7154 20.4459 17.1343 17.8244C17.3183 17.5982 17.474 17.3502 17.5976 17.086C17.8135 16.6197 18.1053 16.1926 18.4613 15.822ZM13.5353 19.3095C13.7608 19.5287 13.9593 19.7742 14.1263 20.0408C14.1743 20.1162 14.2446 20.1748 14.3275 20.2083C14.4103 20.2419 14.5016 20.2487 14.5885 20.2279C14.6755 20.207 14.7537 20.1595 14.8124 20.0921C14.871 20.0246 14.9071 19.9405 14.9156 19.8515C15.0335 18.87 15.3552 17.924 15.86 17.0742L16.2845 17.7035C15.7416 21.1065 15.909 22.792 16.0244 23.4139C15.5943 23.7935 15.1894 24.2006 14.8122 24.6327C14.2574 23.7427 13.833 22.7777 13.5519 21.7673C13.386 20.957 13.3804 20.122 13.5353 19.3095ZM12.7149 26.2382C12.2174 25.569 11.8979 24.7845 11.7862 23.9581C11.6745 23.1318 11.7742 22.2906 12.0761 21.5133C12.3236 21.6721 12.5494 21.8623 12.7481 22.0791C12.8701 22.5082 13.3732 24.1447 14.2484 25.322C13.884 25.7984 13.5482 26.296 13.2426 26.8121C13.0495 26.6374 12.8729 26.4453 12.7149 26.2382ZM13.9476 27.3261C14.2295 26.8414 14.5394 26.3735 14.8755 25.9248C15.7573 26.5896 16.741 27.1069 17.7885 27.4567L17.803 27.8731C16.0538 28.1366 14.8175 27.8315 13.9476 27.3261ZM20.432 26.82C20.1031 26.9031 19.6059 27.0281 18.3091 26.7073L18.306 26.707L18.3026 26.7058C17.1526 26.4405 15.9781 25.6645 15.4141 25.254C15.7676 24.8416 16.1481 24.4532 16.5533 24.0914C17.2539 24.4776 19.1692 25.443 20.9796 25.5734L22.1042 26.2059C21.5706 26.4702 21.0099 26.6761 20.432 26.82ZM21.1071 24.724C19.67 24.6394 18.0811 23.9173 17.2676 23.4979C17.9291 22.9721 18.634 22.4679 19.3714 21.9567C20.0688 22.317 22.1554 23.3201 23.983 23.447C24.204 23.5856 24.4162 23.7378 24.6184 23.9028C23.4888 24.3285 22.3083 24.6045 21.1071 24.724ZM28.054 21.2932C26.599 22.1495 24.4185 22.5361 24.0752 22.5929C22.686 22.5059 21.0538 21.816 20.1789 21.3981C20.8012 20.9684 21.436 20.5258 22.0716 20.0538C22.4436 20.2577 23.7764 20.8844 26.1108 20.8844C26.3474 20.8844 26.5961 20.8768 26.8534 20.8627L28.054 21.2932ZM26.8158 20.0053C24.7837 20.1166 23.4617 19.7215 22.8404 19.4666C23.461 18.9784 24.0778 18.4555 24.6794 17.8803C24.927 17.9093 25.1761 17.9234 25.4253 17.9227C26.7328 17.9292 28.0144 17.5594 29.1174 16.8573L30.1819 16.739C29.9047 17.8281 29.1621 18.9531 26.8158 20.0053Z" stroke="#DD0984" stroke-width="0.311111" mask="url(#path-2-outside-1_619_3718)"/>
</svg>
