<svg width="42" height="42" viewBox="0 0 42 42" fill="none" xmlns="http://www.w3.org/2000/svg">
<rect width="42" height="42" rx="10" fill="#ABD2FC"/>
<path d="M20.9213 9.33331C12.9597 9.64922 9.33334 15.6515 9.33334 21.022C9.41216 35.8697 31.7207 37.2122 32.6667 21.022C32.6667 14.6249 27.385 9.33331 20.9213 9.33331ZM21.0001 31.2099C14.0632 30.894 10.91 25.7606 10.91 21.022C10.9889 8.22763 30.3019 7.0431 31.0902 21.022C31.0902 26.6295 26.5181 31.2099 21.0001 31.2099ZM26.4392 17.0728C25.8086 16.2041 27.0698 15.3353 27.7005 16.1251C28.3311 16.9939 27.0698 17.9416 26.4392 17.0728ZM24.9414 15.5723C24.0743 14.9405 25.0203 13.6768 25.8874 14.3086C26.6757 14.9405 25.8086 16.2041 24.9414 15.5723ZM27.9369 17.9416C28.9617 17.6257 29.4347 19.1263 28.4099 19.4422C27.3851 19.7581 26.9122 18.3365 27.9369 17.9416ZM22.5766 13.5977C22.8919 12.65 24.3896 13.1238 24.0743 14.0716C23.759 15.0983 22.2613 14.6244 22.5766 13.5977ZM29.2769 21.1007C28.6463 32.4734 13.0382 31.6837 12.7228 21.3376C12.5652 17.3096 15.1665 12.966 20.921 12.7292C21.1575 12.7292 21.394 12.8082 21.4728 12.9661C21.7882 13.2821 21.7093 13.9929 21.7093 14.4667C21.7093 15.5724 20.0539 15.4934 20.1328 14.3877C16.4277 14.8616 14.5358 17.6257 14.2205 20.3112C15.3241 20.3112 15.3241 21.8907 14.2205 21.8907C14.5358 24.5759 16.4277 27.34 20.1328 27.8141C20.1328 26.7085 21.7882 26.7085 21.7093 27.8141C24.7838 27.4982 27.2274 24.971 27.6216 21.8907C26.518 21.9697 26.4392 20.3112 27.5428 20.3112C27.9369 20.3112 28.7252 20.1532 29.0405 20.5481C29.1982 20.6271 29.277 20.864 29.277 21.1009L29.2769 21.1007ZM21.788 17.3098V20.2318H23.4434C23.9164 20.2318 24.2317 20.5477 24.2317 21.0216C24.2317 21.4955 23.9164 21.8114 23.4434 21.8114H20.9998C20.5268 21.8114 20.2115 21.4955 20.2115 21.0216V17.2307C20.2115 16.204 21.7092 16.2041 21.788 17.3098Z" fill="#1150A1"/>
</svg>
