<svg width="15" height="41" viewBox="0 0 15 41" fill="none" xmlns="http://www.w3.org/2000/svg">
<path d="M6.7929 40.7071C7.18342 41.0976 7.81658 41.0976 8.20711 40.7071L14.5711 34.3431C14.9616 33.9526 14.9616 33.3195 14.5711 32.9289C14.1805 32.5384 13.5474 32.5384 13.1569 32.9289L7.5 38.5858L1.84315 32.9289C1.45262 32.5384 0.819458 32.5384 0.428934 32.9289C0.0384093 33.3195 0.0384093 33.9526 0.428934 34.3431L6.7929 40.7071ZM6.5 0.476191C6.5 1.02848 6.94772 1.47619 7.5 1.47619C8.05228 1.47619 8.5 1.02848 8.5 0.47619L6.5 0.476191ZM8.5 6.19048C8.5 5.63819 8.05229 5.19048 7.5 5.19048C6.94772 5.19048 6.5 5.63819 6.5 6.19048L8.5 6.19048ZM6.5 7.14286C6.5 7.69514 6.94772 8.14286 7.5 8.14286C8.05229 8.14286 8.5 7.69514 8.5 7.14286L6.5 7.14286ZM8.5 12.8571C8.5 12.3049 8.05229 11.8571 7.5 11.8571C6.94772 11.8571 6.5 12.3049 6.5 12.8571L8.5 12.8571ZM6.5 13.8095C6.5 14.3618 6.94772 14.8095 7.5 14.8095C8.05229 14.8095 8.5 14.3618 8.5 13.8095L6.5 13.8095ZM8.5 19.5238C8.5 18.9715 8.05229 18.5238 7.5 18.5238C6.94772 18.5238 6.5 18.9715 6.5 19.5238L8.5 19.5238ZM6.5 20.4762C6.5 21.0285 6.94772 21.4762 7.5 21.4762C8.05229 21.4762 8.5 21.0285 8.5 20.4762L6.5 20.4762ZM8.5 26.1905C8.5 25.6382 8.05229 25.1905 7.5 25.1905C6.94772 25.1905 6.5 25.6382 6.5 26.1905L8.5 26.1905ZM6.5 27.1429C6.5 27.6951 6.94772 28.1429 7.5 28.1429C8.05229 28.1429 8.5 27.6951 8.5 27.1429L6.5 27.1429ZM8.5 32.8571C8.5 32.3049 8.05229 31.8571 7.5 31.8571C6.94772 31.8571 6.5 32.3049 6.5 32.8571L8.5 32.8571ZM6.5 33.8095C6.5 34.3618 6.94772 34.8095 7.5 34.8095C8.05229 34.8095 8.5 34.3618 8.5 33.8095L6.5 33.8095ZM8.5 39.5238C8.5 38.9715 8.05229 38.5238 7.5 38.5238C6.94772 38.5238 6.5 38.9715 6.5 39.5238L8.5 39.5238ZM6.5 4.37114e-08L6.5 0.476191L8.5 0.47619L8.5 -4.37114e-08L6.5 4.37114e-08ZM6.5 6.19048L6.5 7.14286L8.5 7.14286L8.5 6.19048L6.5 6.19048ZM6.5 12.8571L6.5 13.8095L8.5 13.8095L8.5 12.8571L6.5 12.8571ZM6.5 19.5238L6.5 20.4762L8.5 20.4762L8.5 19.5238L6.5 19.5238ZM6.5 26.1905L6.5 27.1429L8.5 27.1429L8.5 26.1905L6.5 26.1905ZM6.5 32.8571L6.5 33.8095L8.5 33.8095L8.5 32.8571L6.5 32.8571ZM6.5 39.5238L6.5 40L8.5 40L8.5 39.5238L6.5 39.5238Z" fill="#1150A1"/>
</svg>
