<svg width="54" height="54" viewBox="0 0 54 54" fill="none" xmlns="http://www.w3.org/2000/svg">
<rect width="54" height="54" rx="10" fill="#BADBFF"/>
<path d="M26.8988 12C16.6625 12.4062 12 20.1234 12 27.0283C12.1014 46.1182 40.7838 47.8443 42 27.0283C42 18.8035 35.2093 12 26.8988 12ZM27.0002 40.1271C18.0812 39.7209 14.0272 33.1208 14.0272 27.0283C14.1285 10.5784 38.9596 9.05543 39.9731 27.0283C39.9731 34.2379 34.0948 40.1271 27.0002 40.1271ZM33.9932 21.9508C33.1824 20.8339 34.8041 19.7169 35.6149 20.7323C36.4257 21.8493 34.8041 23.0678 33.9932 21.9508ZM32.0676 20.0215C30.9527 19.2092 32.1689 17.5845 33.2838 18.3968C34.2973 19.2092 33.1824 20.8339 32.0676 20.0215ZM35.9189 23.0678C37.2365 22.6616 37.8446 24.5909 36.527 24.9971C35.2095 25.4033 34.6014 23.5755 35.9189 23.0678ZM29.027 17.4828C29.4324 16.2643 31.3581 16.8735 30.9527 18.0921C30.5473 19.4121 28.6216 18.8028 29.027 17.4828ZM37.6417 27.1295C36.8309 41.7516 16.7634 40.7362 16.3579 27.4341C16.1552 22.2553 19.4998 16.6706 26.8985 16.3662C27.2025 16.3662 27.5066 16.4677 27.6079 16.6708C28.0134 17.077 27.912 17.9908 27.912 18.6001C27.912 20.0217 25.7836 19.9201 25.885 18.4985C21.1213 19.1078 18.6889 22.6616 18.2835 26.1144C19.7024 26.1144 19.7024 28.1452 18.2835 28.1452C18.6889 31.5977 21.1213 35.1515 25.885 35.7611C25.885 34.3395 28.0134 34.3395 27.912 35.7611C31.8649 35.3549 35.0066 32.1055 35.5135 28.1452C34.0946 28.2468 33.9932 26.1144 35.4122 26.1144C35.9189 26.1144 36.9324 25.9113 37.3378 26.419C37.5405 26.5206 37.6419 26.8252 37.6419 27.1298L37.6417 27.1295ZM28.0132 22.2555V26.0124H30.1416C30.7497 26.0124 31.1551 26.4185 31.1551 27.0278C31.1551 27.637 30.7497 28.0432 30.1416 28.0432H26.9997C26.3916 28.0432 25.9862 27.637 25.9862 27.0278V22.1537C25.9862 20.8337 27.9118 20.8339 28.0132 22.2555Z" fill="#1150A1"/>
</svg>
