<svg width="57" height="56" viewBox="0 0 57 56" fill="none" xmlns="http://www.w3.org/2000/svg">
<path d="M28.3111 0C9.20331 0.758183 0.5 15.1637 0.5 28.0528C0.689189 63.6874 54.2297 66.9093 56.5 28.0528C56.5 12.6999 43.824 0 28.3111 0ZM28.5003 52.5039C11.8517 51.7457 4.28409 39.4255 4.28409 28.0528C4.47328 -2.65364 50.8246 -5.49652 52.7165 28.0528C52.7165 41.5108 41.7435 52.5039 28.5003 52.5039ZM41.5541 18.5749C40.0405 16.4899 43.0676 14.4049 44.5811 16.3003C46.0946 18.3853 43.0676 20.6599 41.5541 18.5749ZM37.9595 14.9735C35.8784 13.4571 38.1486 10.4244 40.2297 11.9408C42.1216 13.4571 40.0405 16.4899 37.9595 14.9735ZM45.1486 20.6599C47.6081 19.9017 48.7432 23.5031 46.2838 24.2612C43.8243 25.0194 42.6892 21.6076 45.1486 20.6599ZM32.2838 10.2346C33.0405 7.96001 36.6351 9.09728 35.8784 11.3718C35.1216 13.8359 31.527 12.6987 32.2838 10.2346ZM48.3646 28.2417C46.851 55.5363 9.39159 53.6408 8.63483 28.8103C8.25645 19.1432 14.4997 8.7185 28.3105 8.15016C28.8781 8.15016 29.4456 8.33971 29.6348 8.7188C30.3916 9.47698 30.2024 11.1829 30.2024 12.3202C30.2024 14.9738 26.2294 14.7843 26.4186 12.1306C17.5264 13.2679 12.9859 19.9017 12.2291 26.3469C14.8778 26.3469 14.8778 30.1378 12.2291 30.1378C12.9859 36.5823 17.5264 43.2161 26.4186 44.354C26.4186 41.7004 30.3916 41.7004 30.2024 44.354C37.5811 43.5958 43.4456 37.5303 44.3919 30.1378C41.7432 30.3273 41.5541 26.3469 44.2027 26.3469C45.1486 26.3469 47.0405 25.9678 47.7973 26.9155C48.1757 27.105 48.3649 27.6737 48.3649 28.2423L48.3646 28.2417ZM30.3913 19.1435V26.1564H34.3643C35.4994 26.1564 36.2561 26.9146 36.2561 28.0519C36.2561 29.1891 35.4994 29.9473 34.3643 29.9473H28.4994C27.3643 29.9473 26.6075 29.1891 26.6075 28.0519V18.9537C26.6075 16.4896 30.2021 16.4899 30.3913 19.1435Z" fill="white"/>
</svg>
