<svg width="270" height="270" viewBox="0 0 270 270" fill="none" xmlns="http://www.w3.org/2000/svg">
<path d="M270 135C270 209.558 209.558 270 135 270C60.4416 270 0 209.558 0 135C0 60.4416 60.4416 0 135 0C209.558 0 270 60.4416 270 135ZM27 135C27 194.647 75.3532 243 135 243C194.647 243 243 194.647 243 135C243 75.3532 194.647 27 135 27C75.3532 27 27 75.3532 27 135Z" fill="#3C7ED3"/>
<path d="M135 0C167.144 3.83312e-07 198.233 11.4694 222.675 32.3452C247.118 53.221 263.31 82.1332 268.338 113.881C273.366 145.63 266.902 178.13 250.106 205.537C233.311 232.945 207.288 253.46 176.717 263.393C146.147 273.326 113.035 272.025 83.3377 259.724C53.6406 247.423 29.3071 224.929 14.7141 196.289C0.121073 167.648 -3.77379 134.741 3.73007 103.485C11.2339 72.229 29.644 44.6764 55.649 25.7827L71.5192 47.6261C50.7152 62.7411 35.9871 84.7832 29.9841 109.788C23.981 134.792 27.0969 161.119 38.7713 184.031C50.4457 206.943 69.9125 224.938 93.6702 234.779C117.428 244.62 143.917 245.661 168.374 237.714C192.83 229.768 213.649 213.356 227.085 191.43C240.521 169.504 245.693 143.504 241.67 118.105C237.648 92.7065 224.694 69.5768 205.14 52.8762C185.586 36.1755 160.715 27 135 27V0Z" fill="#CBE4FF"/>
<path d="M66.19 136.224C63.694 136.288 62.926 135.52 64.27 133.408C64.91 133.024 65.614 132.704 66.254 132.384C68.75 129.888 79.246 124.256 79.246 121.632C79.246 120.48 77.646 120.032 76.494 118.88C74.19 117.664 71.95 115.552 69.646 114.4C69.646 113.504 67.406 112.224 65.038 110.88C64.142 108.704 65.038 108.192 67.214 108.96L67.406 109.152C73.166 112.16 77.902 116.128 82.51 118.496C83.662 118.496 84.814 120.8 84.814 121.952C84.814 123.168 82.51 125.408 81.422 125.408C79.182 127.584 75.854 128.224 73.294 131.232C72.206 132.512 69.774 133.472 68.622 134.752C67.598 135.264 66.83 135.712 66.19 136.224ZM94.4075 149.216C100.104 150.624 103.112 143.648 105.096 139.936C107.912 133.536 107.912 129.184 107.912 121.248C104.008 121.248 97.9275 120.416 95.9435 117.216C93.7035 113.632 91.1435 110.816 90.7595 105.376C90.2475 98.208 94.5995 91.936 101.256 91.936H105.288H106.632C109.32 91.936 111.944 94.56 114.568 95.968C117.256 99.936 118.6 105.248 118.6 113.184C118.6 124.32 114.888 137.632 110.408 146.592C109 150.56 105.096 153.248 102.344 154.528C99.7195 155.872 96.5195 156.512 94.4075 155.872C91.5275 154.976 87.7515 151.008 87.7515 147.936C87.7515 146.592 89.0955 143.904 89.0955 143.904C90.3755 142.56 90.5035 141.408 91.7835 141.28C95.1115 140.96 93.0635 146.592 94.4075 149.216ZM107.208 101.728C106.888 100.512 105.8 97.824 104.008 97.248C98.3115 95.456 97.3515 101.216 95.9435 103.904C95.9435 107.936 97.3515 111.904 98.6315 113.184C101.256 115.936 102.6 115.936 105.288 117.216H107.912C109.32 111.904 108.232 105.696 107.208 101.728ZM137.382 92.576C141.03 91.616 146.406 92.448 149.094 95.136C151.782 97.824 153.126 102.304 154.086 105.184C154.982 107.936 155.238 109.216 155.814 111.84C156.454 114.912 156.07 118.624 156.07 122.848C156.07 126.88 156.07 130.912 154.726 134.944C154.726 138.976 153.446 143.52 152.038 147.104C150.566 150.816 147.622 154.336 144.486 155.168C133.03 158.112 131.814 152.48 127.782 147.104C126.438 143.072 125.094 138.976 123.75 133.6C125.094 132.256 123.75 132.256 123.75 130.912C123.75 117.472 123.366 105.824 130.47 97.248C132.198 95.2 132.07 93.984 137.382 92.576ZM138.598 99.104C137.254 100.448 135.654 101.984 135.142 103.2C134.438 104.928 134.374 105.632 133.67 107.36C133.606 107.424 132.71 114.144 132.71 114.592C132.71 118.624 132.07 124.192 132.07 128.224V136.544C132.07 141.984 134.502 147.104 137.19 149.792C138.534 151.136 141.862 151.008 143.206 149.664C144.55 148.32 145.958 144.8 146.662 143.072C148.198 139.296 148.006 135.264 148.006 132.256C148.006 128.224 148.134 126.432 148.006 121.504C147.942 119.584 148.006 118.816 148.006 116.128V112.096C148.006 109.408 148.966 106.976 147.366 104.416C145.958 102.112 145.958 102.304 144.934 99.808C144.23 98.08 140.006 97.76 138.598 99.104ZM168.543 93.664C171.7 93.664 174.089 94.9227 175.711 97.44C177.332 99.9147 178.143 103.413 178.143 107.936C178.143 112.459 177.353 116 175.775 118.56C174.239 121.077 171.828 122.336 168.543 122.336C166.537 122.336 164.831 121.76 163.423 120.608C162.015 119.456 160.948 117.813 160.223 115.68C159.54 113.504 159.199 110.923 159.199 107.936C159.199 103.413 159.945 99.9147 161.439 97.44C162.932 94.9227 165.3 93.664 168.543 93.664ZM168.543 97.632C166.921 97.632 165.727 98.5067 164.959 100.256C164.233 101.963 163.871 104.523 163.871 107.936C163.871 111.349 164.233 113.931 164.959 115.68C165.727 117.429 166.921 118.304 168.543 118.304C170.207 118.304 171.444 117.451 172.255 115.744C173.065 113.995 173.471 111.392 173.471 107.936C173.471 104.523 173.065 101.963 172.255 100.256C171.444 98.5067 170.207 97.632 168.543 97.632ZM197.791 94.304L172.447 140H167.519L192.863 94.304H197.791ZM196.511 111.968C198.601 111.968 200.351 112.544 201.759 113.696C203.167 114.805 204.233 116.427 204.959 118.56C205.727 120.651 206.111 123.211 206.111 126.24C206.111 130.763 205.321 134.304 203.743 136.864C202.207 139.381 199.796 140.64 196.511 140.64C194.505 140.64 192.799 140.064 191.391 138.912C189.983 137.76 188.916 136.117 188.191 133.984C187.508 131.808 187.167 129.227 187.167 126.24C187.167 121.717 187.913 118.219 189.407 115.744C190.9 113.227 193.268 111.968 196.511 111.968ZM196.511 116C194.889 116 193.695 116.853 192.927 118.56C192.201 120.267 191.839 122.827 191.839 126.24C191.839 129.696 192.201 132.299 192.927 134.048C193.695 135.755 194.889 136.608 196.511 136.608C198.175 136.608 199.412 135.755 200.223 134.048C201.033 132.341 201.439 129.739 201.439 126.24C201.439 122.827 201.033 120.267 200.223 118.56C199.412 116.853 198.175 116 196.511 116Z" fill="#CBE4FF"/>
<path d="M96.896 180.682C97.742 185.254 93.818 187.63 90.884 187.072C88.994 186.712 87.05 184.552 86.834 182.284C86.798 181.834 86.834 181.384 86.834 180.592C86.51 178.738 87.554 176.938 88.616 175.192C89.246 174.13 90.344 173.41 91.568 173.248C92.72 173.086 93.854 172.924 94.7 171.988C94.97 171.682 95.384 171.556 95.744 171.844C96.158 172.168 96.14 172.636 95.888 173.05C95.168 174.346 93.854 174.562 92.576 174.616C91.334 174.688 90.362 175.138 89.606 176.092C89.372 176.38 89.102 176.74 89.48 177.1C89.768 177.37 90.074 177.19 90.362 177.082C93.386 175.948 96.302 177.55 96.896 180.682ZM94.844 183.742C95.33 182.806 95.15 181.87 94.97 180.916C94.646 179.062 93.206 177.946 91.46 178.126C89.966 178.306 88.67 179.836 88.634 181.672C88.67 181.978 88.688 182.428 88.778 182.86C89.066 184.318 90.164 185.308 91.694 185.506C92.882 185.668 94.214 184.912 94.844 183.742ZM109.617 184.372C109.977 184.696 109.905 185.182 109.761 185.632C109.329 186.964 107.907 187.612 106.809 186.82C106.143 186.37 105.693 186.424 105.063 186.766C103.641 187.558 102.129 187.486 100.599 187.144C99.3213 186.874 98.3133 185.848 98.1873 184.714C98.0793 183.598 98.6553 182.608 99.9333 182.014C101.391 181.348 102.885 180.79 104.361 180.178C105.009 179.89 105.729 179.62 105.531 178.684C105.387 177.928 104.613 177.478 103.587 177.532C103.209 177.55 102.831 177.64 102.435 177.64C101.517 177.676 101.013 178.09 101.067 179.08C101.103 179.71 100.887 180.214 100.221 180.394C99.6993 180.556 99.1953 180.556 98.8173 180.106C98.3313 179.566 98.3133 178.936 98.6013 178.306C99.0153 177.424 99.7353 176.722 100.653 176.38C102.237 175.768 103.875 175.678 105.495 176.308C106.755 176.812 107.421 177.802 107.565 179.098C107.655 179.908 107.583 180.754 107.583 181.582C107.493 182.41 107.763 183.22 107.457 184.048C107.349 184.354 107.349 184.696 107.673 184.912C108.015 185.128 108.267 184.912 108.501 184.66C108.807 184.318 109.149 183.94 109.617 184.372ZM102.777 186.01C104.595 186.01 106.179 184.3 105.855 182.698C105.711 181.924 105.279 181.528 104.523 181.906C103.767 182.266 102.975 182.41 102.183 182.662C100.941 183.058 100.221 183.958 100.401 184.786C100.545 185.434 101.679 186.028 102.777 186.01ZM121.269 183.04C122.043 183.22 121.755 184.102 121.737 184.714C121.701 186.262 121.269 186.748 119.901 186.856C118.605 186.982 117.669 186.316 117.417 185.002C117.273 184.264 117.291 183.49 116.949 182.77C116.535 181.852 115.815 181.384 114.861 181.312C114.105 181.258 113.619 181.618 113.655 182.428C113.709 183.598 113.439 184.966 115.221 185.218C115.599 185.254 115.833 185.668 115.761 186.1C115.689 186.442 115.401 186.676 115.059 186.658C113.781 186.676 112.503 186.64 111.225 186.604C110.883 186.604 110.595 186.37 110.541 186.028C110.469 185.65 110.739 185.434 111.027 185.308C111.639 185.074 111.963 184.642 111.981 183.994C111.999 182.086 112.197 180.178 112.071 178.252C112.017 177.424 111.459 177.082 110.919 176.614C110.397 176.164 110.595 175.606 111.261 175.552C111.963 175.48 112.683 175.534 113.385 175.534V175.516C113.961 175.516 114.537 175.498 115.113 175.516C115.437 175.516 115.761 175.606 115.869 175.984C115.977 176.416 115.797 176.722 115.437 176.956C115.275 177.046 115.095 177.118 114.915 177.19C114.069 177.46 113.655 178.018 113.781 178.918C113.871 179.512 114.249 179.836 114.843 179.836C115.707 179.854 116.535 179.692 116.877 178.756C117.129 178.108 117.201 177.388 117.453 176.722C117.651 176.146 118.119 175.696 118.695 175.498C119.289 175.3 119.937 175.39 120.441 175.732C120.819 175.984 121.143 176.326 121.089 176.83C121.071 177.064 120.963 177.28 120.783 177.424C120.621 177.568 120.387 177.658 120.153 177.64C119.019 177.586 118.551 178.126 118.443 179.188C118.407 179.458 118.101 179.71 117.867 179.926C117.471 180.34 117.489 180.718 117.903 181.078C118.929 181.906 119.433 182.932 119.145 184.282C119.091 184.606 119.253 184.948 119.649 184.93C119.919 184.93 120.081 184.696 120.153 184.426C120.315 183.778 120.243 182.788 121.269 183.04ZM133.217 177.712C133.235 178.288 133.217 178.864 133.163 179.422C133.127 179.836 132.803 180.142 132.389 180.178C131.903 180.214 131.777 179.818 131.705 179.422C131.615 178.99 131.579 178.54 131.489 178.09C131.381 177.478 131.057 177.01 130.355 177.046C129.671 177.082 129.041 177.316 128.897 178.054C128.771 178.684 128.735 179.332 128.771 179.962C128.861 181.042 128.825 182.14 128.681 183.22C128.465 184.768 128.987 185.308 130.553 185.254C130.931 185.236 131.345 185.092 131.507 185.56C131.687 186.1 131.327 186.406 130.913 186.64C130.697 186.766 130.445 186.838 130.193 186.856C128.987 186.91 127.763 186.946 126.557 186.964C125.963 186.982 125.387 186.838 124.901 186.532C124.559 186.316 124.307 186.028 124.433 185.578C124.559 185.2 124.883 185.218 125.207 185.218C126.935 185.146 127.115 185.038 127.061 183.418C127.007 182.014 126.971 180.61 127.115 179.206C127.169 178.684 127.079 178.18 126.845 177.712C126.539 177.136 126.071 176.866 125.423 177.01C124.775 177.136 124.415 177.532 124.397 178.198C124.379 178.702 124.433 179.224 124.397 179.728C124.361 179.98 124.145 180.196 123.875 180.232C123.623 180.286 123.353 180.178 123.209 179.962C122.525 178.846 122.543 177.622 122.813 176.416C122.939 175.858 123.533 175.768 124.073 175.732C125.225 175.642 126.377 175.534 127.547 175.768C128.681 175.714 129.833 175.678 130.985 175.588C132.857 175.462 133.199 175.75 133.217 177.712ZM144.446 183.274C144.698 183.634 144.572 184.03 144.284 184.318C142.646 186.028 140.828 187.342 138.254 186.964C137.426 186.856 136.652 186.496 136.04 185.92C134.582 184.48 134.006 182.788 134.258 180.862C134.222 180.628 134.258 180.394 134.366 180.178C134.78 178.774 135.194 177.334 136.526 176.488C139.442 174.652 141.98 175.804 143.672 178.396C144.05 178.972 144.266 179.656 144.482 180.322C144.626 180.736 144.68 181.204 144.104 181.42C142.61 181.816 141.098 181.852 139.568 181.78C138.992 181.744 138.416 181.564 137.858 181.78C137.3 181.978 136.472 181.42 136.166 182.266C135.932 182.932 136.94 184.66 137.642 184.93C139.694 185.722 140.954 185.362 142.502 183.544C142.718 183.31 142.916 183.058 143.24 182.95C143.69 182.824 144.14 182.86 144.446 183.274ZM136.526 178.972C136.13 179.638 136.346 180.124 137.084 180.16C137.786 180.196 138.488 180.16 139.19 180.16C139.19 180.124 139.19 180.106 139.19 180.07C139.568 180.034 139.946 180.016 140.324 179.998C140.936 179.962 141.782 180.376 142.016 179.584C142.286 178.738 141.35 178.486 140.81 178.09C139.442 177.1 137.372 177.55 136.526 178.972ZM152.314 175.696C156.688 177.586 157.426 183.04 153.772 186.1C152.53 187.126 151.342 187.324 149.92 186.478C148.804 185.812 148.552 186.028 148.498 187.36C148.48 188.404 148.786 189.088 149.902 189.286C150.352 189.376 150.766 189.646 150.676 190.204C150.586 190.726 150.136 190.924 149.668 190.942C149.038 190.978 148.39 190.96 147.76 190.96V190.942C147.112 190.942 146.464 190.978 145.834 190.924C145.438 190.906 145.096 190.6 145.06 190.186C145.006 189.718 145.312 189.466 145.726 189.448C146.824 189.394 146.914 188.71 146.914 187.864C146.914 185.434 146.914 183.004 147.004 180.574C147.058 179.134 146.878 177.892 145.546 177.046C145.222 176.848 144.952 176.524 145.096 176.092C145.24 175.642 145.672 175.624 146.068 175.678C147.076 175.804 148.192 175.246 149.128 176.254C149.488 176.65 150.082 176.182 150.496 175.876C151.072 175.462 151.648 175.426 152.314 175.696ZM153.448 184.048C154.042 183.292 154.186 182.446 154.096 181.51C154.24 180.502 153.88 179.638 153.304 178.846C152.26 177.442 150.766 177.37 149.542 178.648C148.012 180.304 148.462 183.544 150.406 184.678C151.54 185.326 152.656 185.074 153.448 184.048ZM169.387 185.056C169.837 185.164 170.197 185.488 170.017 186.046C169.873 186.55 169.441 186.73 168.973 186.73C167.821 186.748 166.669 186.766 165.517 186.748C165.013 186.73 164.635 186.514 164.563 185.974C164.509 185.524 164.797 185.236 165.211 185.164C166.165 185.002 166.273 184.39 166.165 183.598C166.039 182.626 166.363 181.69 166.381 180.736C166.399 180.412 166.309 180.088 165.949 179.962C165.607 179.836 165.337 180.016 165.139 180.286C164.077 181.672 162.673 182.716 161.413 183.886C160.711 184.534 160.765 184.822 161.701 185.2C162.205 185.398 162.781 185.47 162.619 186.172C162.475 186.748 161.899 186.82 161.359 186.82C160.279 186.838 159.181 186.838 158.101 186.82C157.633 186.82 157.165 186.676 157.021 186.19C156.895 185.704 157.291 185.506 157.651 185.38C158.461 185.11 158.677 184.498 158.695 183.742C158.731 181.888 159.163 180.07 158.749 178.216C158.605 177.496 158.425 176.992 157.579 177.046C157.147 177.064 156.787 176.902 156.805 176.398C156.805 175.822 157.237 175.642 157.705 175.66C159.001 175.714 160.279 175.732 161.539 175.516C161.935 175.444 162.331 175.588 162.439 176.038C162.511 176.218 162.475 176.434 162.367 176.596C162.259 176.758 162.097 176.866 161.899 176.902C160.765 177.118 160.783 177.946 160.747 178.81C160.693 179.692 160.567 180.592 160.513 181.492C160.495 181.726 160.567 181.996 160.873 182.104C161.143 182.194 161.359 182.068 161.557 181.888C162.727 180.7 163.879 179.512 165.049 178.324C165.607 177.766 165.445 177.316 164.923 176.866C164.635 176.596 164.365 176.29 164.599 175.876C164.815 175.444 165.247 175.552 165.607 175.588C166.129 175.606 166.633 175.66 167.011 175.696C167.785 175.624 168.415 175.552 169.063 175.516C169.477 175.498 169.837 175.624 169.981 176.038C170.143 176.452 170.053 176.884 169.693 177.064C167.965 177.82 168.037 179.296 168.091 180.808C168.073 181.384 168.037 181.96 167.947 182.536C167.839 183.706 167.983 184.714 169.387 185.056ZM182.605 184.876C183.073 184.948 183.469 185.236 183.397 185.794C183.325 186.388 182.821 186.406 182.371 186.406C181.291 186.442 180.193 186.46 179.113 186.46C178.699 186.46 178.303 186.352 178.231 185.884C178.159 185.524 178.447 185.362 178.735 185.182C180.283 184.156 180.337 184.12 179.869 182.428C179.689 181.744 180.175 180.664 179.203 180.448C178.447 180.268 178.195 181.294 177.673 181.726C176.665 182.59 175.693 183.49 174.649 184.408C174.847 184.768 175.207 185.002 175.621 185.056C176.107 185.164 176.467 185.416 176.305 185.992C176.197 186.388 175.819 186.64 175.405 186.55C174.199 186.37 172.993 186.37 171.787 186.37C171.445 186.388 171.139 186.172 171.049 185.848C170.923 185.398 171.229 185.146 171.643 185.038C172.579 184.768 172.813 184.012 172.687 183.22C172.471 181.942 172.669 180.664 172.615 179.404C172.561 178.36 172.507 177.334 171.337 176.83C171.031 176.704 170.815 176.416 170.923 176.056C171.067 175.588 171.463 175.57 171.859 175.624C172.435 175.696 172.993 175.84 173.551 175.894C173.785 175.93 174.001 175.93 174.235 175.912C174.505 175.966 174.775 176.002 175.027 176.074C175.207 176.11 175.369 176.164 175.531 176.236C175.585 176.254 175.621 176.272 175.657 176.308C175.657 176.308 175.657 176.326 175.657 176.344C175.549 176.632 174.955 176.884 174.739 177.118C174.667 177.19 174.595 177.28 174.541 177.388C174.217 177.532 174.073 177.856 174.127 178.252C174.271 179.332 174.289 180.376 174.001 181.438C173.911 181.744 174.073 182.086 174.361 182.248C174.631 182.428 175.009 182.356 175.207 182.068C175.675 181.402 176.485 181.042 176.863 180.286L178.825 178.342C179.059 178.108 179.203 177.928 179.257 177.766C179.311 177.73 179.383 177.676 179.437 177.622C179.527 177.514 179.581 177.388 179.563 177.244C179.545 177.118 179.455 177.01 179.347 176.938C178.969 176.686 178.537 176.524 178.087 176.434C178.087 176.398 178.069 176.362 178.051 176.326C178.015 176.272 177.997 176.218 177.979 176.182C178.411 176.056 178.825 175.912 179.239 175.75C179.563 175.966 180.049 175.678 180.445 175.66C181.093 175.606 181.723 175.57 182.371 175.552C182.767 175.534 183.145 175.642 183.271 176.092C183.397 176.524 183.145 176.866 182.731 176.956C181.471 177.28 181.507 178.162 181.561 179.188C181.651 180.538 181.633 181.888 181.525 183.22C181.471 184.102 181.579 184.732 182.605 184.876ZM174.199 174.544C173.929 174.292 173.605 174.04 173.389 173.734C173.047 173.248 172.975 172.636 173.209 172.096C173.353 171.718 173.713 171.484 174.109 171.466C174.631 171.448 174.973 171.736 175.135 172.186C175.513 173.158 175.855 174.22 177.151 174.166C178.339 174.13 178.519 173.014 178.969 172.186C179.257 171.664 179.653 171.142 180.337 171.466C181.021 171.79 181.093 172.456 180.913 173.122C180.751 173.716 180.283 174.058 179.833 174.418C179.653 174.562 179.383 174.688 179.185 174.832C178.645 175.048 178.105 175.228 177.529 175.372C176.269 175.696 175.405 175.282 174.325 174.652C174.289 174.616 174.235 174.58 174.199 174.544Z" fill="white"/>
</svg>
