<svg width="270" height="270" viewBox="0 0 270 270" fill="none" xmlns="http://www.w3.org/2000/svg">
<path d="M270 135C270 209.558 209.558 270 135 270C60.4416 270 0 209.558 0 135C0 60.4416 60.4416 0 135 0C209.558 0 270 60.4416 270 135ZM27 135C27 194.647 75.3532 243 135 243C194.647 243 243 194.647 243 135C243 75.3532 194.647 27 135 27C75.3532 27 27 75.3532 27 135Z" fill="#3C7ED3"/>
<path d="M135 0C170.437 4.22582e-07 204.453 13.9337 229.707 38.7938C254.96 63.654 269.427 97.4469 269.983 132.88C270.54 168.312 257.142 202.543 232.682 228.184C208.221 253.825 174.66 268.82 139.24 269.933C103.821 271.046 69.384 258.188 43.3619 234.133C17.3397 210.079 1.81916 176.757 0.149864 141.359C-1.51943 105.962 10.7964 71.327 34.4394 44.9303C58.0823 18.5335 91.1563 2.49147 126.523 0.266386L128.219 27.2131C99.9251 28.9932 73.4658 41.8268 54.5515 62.9442C35.6371 84.0616 25.7845 111.769 27.1199 140.087C28.4553 168.406 40.8718 195.063 61.6895 214.307C82.5072 233.551 110.057 243.837 138.392 242.947C166.728 242.056 193.577 230.06 213.146 209.547C232.714 189.034 243.432 161.65 242.987 133.304C242.541 104.958 230.968 77.9232 210.765 58.035C190.562 38.1469 163.35 27 135 27V0Z" fill="#CBE4FF"/>
<path d="M69.44 136.224C66.944 136.288 66.176 135.52 67.52 133.408C68.16 133.024 68.864 132.704 69.504 132.384C72 129.888 82.496 124.256 82.496 121.632C82.496 120.48 80.896 120.032 79.744 118.88C77.44 117.664 75.2 115.552 72.896 114.4C72.896 113.504 70.656 112.224 68.288 110.88C67.392 108.704 68.288 108.192 70.464 108.96L70.656 109.152C76.416 112.16 81.152 116.128 85.76 118.496C86.912 118.496 88.064 120.8 88.064 121.952C88.064 123.168 85.76 125.408 84.672 125.408C82.432 127.584 79.104 128.224 76.544 131.232C75.456 132.512 73.024 133.472 71.872 134.752C70.848 135.264 70.08 135.712 69.44 136.224ZM97.6575 149.216C103.354 150.624 106.362 143.648 108.346 139.936C111.162 133.536 111.162 129.184 111.162 121.248C107.258 121.248 101.178 120.416 99.1935 117.216C96.9535 113.632 94.3935 110.816 94.0095 105.376C93.4975 98.208 97.8495 91.936 104.506 91.936H108.538H109.882C112.57 91.936 115.194 94.56 117.818 95.968C120.506 99.936 121.85 105.248 121.85 113.184C121.85 124.32 118.138 137.632 113.658 146.592C112.25 150.56 108.346 153.248 105.594 154.528C102.97 155.872 99.7695 156.512 97.6575 155.872C94.7775 154.976 91.0015 151.008 91.0015 147.936C91.0015 146.592 92.3455 143.904 92.3455 143.904C93.6255 142.56 93.7535 141.408 95.0335 141.28C98.3615 140.96 96.3135 146.592 97.6575 149.216ZM110.458 101.728C110.138 100.512 109.05 97.824 107.258 97.248C101.562 95.456 100.602 101.216 99.1935 103.904C99.1935 107.936 100.602 111.904 101.882 113.184C104.506 115.936 105.85 115.936 108.538 117.216H111.162C112.57 111.904 111.482 105.696 110.458 101.728ZM128.595 149.216C134.291 150.624 137.299 143.648 139.283 139.936C142.099 133.536 142.099 129.184 142.099 121.248C138.195 121.248 132.115 120.416 130.131 117.216C127.891 113.632 125.331 110.816 124.947 105.376C124.435 98.208 128.787 91.936 135.443 91.936H139.475H140.819C143.507 91.936 146.131 94.56 148.755 95.968C151.443 99.936 152.787 105.248 152.787 113.184C152.787 124.32 149.075 137.632 144.595 146.592C143.187 150.56 139.283 153.248 136.531 154.528C133.907 155.872 130.707 156.512 128.595 155.872C125.715 154.976 121.939 151.008 121.939 147.936C121.939 146.592 123.283 143.904 123.283 143.904C124.563 142.56 124.691 141.408 125.971 141.28C129.299 140.96 127.251 146.592 128.595 149.216ZM141.395 101.728C141.075 100.512 139.987 97.824 138.195 97.248C132.499 95.456 131.539 101.216 130.131 103.904C130.131 107.936 131.539 111.904 132.819 113.184C135.443 115.936 136.787 115.936 139.475 117.216H142.099C143.507 111.904 142.419 105.696 141.395 101.728ZM165.293 93.664C168.45 93.664 170.839 94.9227 172.461 97.44C174.082 99.9147 174.893 103.413 174.893 107.936C174.893 112.459 174.103 116 172.525 118.56C170.989 121.077 168.578 122.336 165.293 122.336C163.287 122.336 161.581 121.76 160.173 120.608C158.765 119.456 157.698 117.813 156.973 115.68C156.29 113.504 155.949 110.923 155.949 107.936C155.949 103.413 156.695 99.9147 158.189 97.44C159.682 94.9227 162.05 93.664 165.293 93.664ZM165.293 97.632C163.671 97.632 162.477 98.5067 161.709 100.256C160.983 101.963 160.621 104.523 160.621 107.936C160.621 111.349 160.983 113.931 161.709 115.68C162.477 117.429 163.671 118.304 165.293 118.304C166.957 118.304 168.194 117.451 169.005 115.744C169.815 113.995 170.221 111.392 170.221 107.936C170.221 104.523 169.815 101.963 169.005 100.256C168.194 98.5067 166.957 97.632 165.293 97.632ZM194.541 94.304L169.197 140H164.269L189.613 94.304H194.541ZM193.261 111.968C195.351 111.968 197.101 112.544 198.509 113.696C199.917 114.805 200.983 116.427 201.709 118.56C202.477 120.651 202.861 123.211 202.861 126.24C202.861 130.763 202.071 134.304 200.493 136.864C198.957 139.381 196.546 140.64 193.261 140.64C191.255 140.64 189.549 140.064 188.141 138.912C186.733 137.76 185.666 136.117 184.941 133.984C184.258 131.808 183.917 129.227 183.917 126.24C183.917 121.717 184.663 118.219 186.157 115.744C187.65 113.227 190.018 111.968 193.261 111.968ZM193.261 116C191.639 116 190.445 116.853 189.677 118.56C188.951 120.267 188.589 122.827 188.589 126.24C188.589 129.696 188.951 132.299 189.677 134.048C190.445 135.755 191.639 136.608 193.261 136.608C194.925 136.608 196.162 135.755 196.973 134.048C197.783 132.341 198.189 129.739 198.189 126.24C198.189 122.827 197.783 120.267 196.973 118.56C196.162 116.853 194.925 116 193.261 116Z" fill="#CBE4FF"/>
<path d="M104.377 181.294C105.349 182.23 105.727 183.328 104.935 184.57C104.179 185.74 103.315 186.658 101.677 186.442C100.723 186.334 99.7507 186.388 98.8147 186.622C97.5007 186.91 96.1687 186.19 94.8547 186.766C94.5847 186.892 94.2427 186.64 94.1347 186.298C94.0447 186.028 94.0987 185.704 94.3507 185.632C96.6367 184.984 95.5927 183.004 95.9167 181.618C96.0787 180.898 95.8447 180.088 95.7727 179.332C95.6827 178.558 95.5387 177.802 94.6747 177.46C94.2427 177.298 93.8287 177.01 93.9727 176.47C94.1167 175.876 94.6387 175.714 95.1787 175.696C96.3307 175.678 97.4827 175.696 98.6347 175.696V175.57C99.5347 175.57 100.417 175.606 101.317 175.57C102.613 175.516 103.513 176.272 104.323 177.064C105.025 177.784 104.773 178.666 104.215 179.332C103.549 180.124 103.729 180.664 104.377 181.294ZM97.4827 178.342C97.4107 179.26 98.1307 179.998 99.1747 179.944C100.057 179.908 100.975 179.962 101.821 179.548C102.343 179.278 102.973 179.062 102.793 178.324C102.613 177.586 102.109 177.082 101.263 177.172C100.759 177.208 100.291 177.496 99.7687 177.28C99.5707 177.226 99.3907 177.19 99.1927 177.154C98.2387 177.118 97.5547 177.604 97.4827 178.342ZM103.315 183.454C103.369 182.23 102.883 181.636 101.551 181.384C100.741 181.24 99.9127 181.078 99.0667 181.312C97.7167 181.672 97.3927 182.05 97.5367 183.274C97.7347 184.768 98.2747 185.344 99.5527 185.362C100.183 185.29 100.831 185.236 101.461 185.164C102.829 185.002 103.279 184.588 103.315 183.454ZM118.806 185.056C119.256 185.164 119.616 185.488 119.436 186.046C119.292 186.55 118.86 186.73 118.392 186.73C117.24 186.748 116.088 186.766 114.936 186.748C114.432 186.73 114.054 186.514 113.982 185.974C113.928 185.524 114.216 185.236 114.63 185.164C115.584 185.002 115.692 184.39 115.584 183.598C115.458 182.626 115.782 181.69 115.8 180.736C115.818 180.412 115.728 180.088 115.368 179.962C115.026 179.836 114.756 180.016 114.558 180.286C113.496 181.672 112.092 182.716 110.832 183.886C110.13 184.534 110.184 184.822 111.12 185.2C111.624 185.398 112.2 185.47 112.038 186.172C111.894 186.748 111.318 186.82 110.778 186.82C109.698 186.838 108.6 186.838 107.52 186.82C107.052 186.82 106.584 186.676 106.44 186.19C106.314 185.704 106.71 185.506 107.07 185.38C107.88 185.11 108.096 184.498 108.114 183.742C108.15 181.888 108.582 180.07 108.168 178.216C108.024 177.496 107.844 176.992 106.998 177.046C106.566 177.064 106.206 176.902 106.224 176.398C106.224 175.822 106.656 175.642 107.124 175.66C108.42 175.714 109.698 175.732 110.958 175.516C111.354 175.444 111.75 175.588 111.858 176.038C111.93 176.218 111.894 176.434 111.786 176.596C111.678 176.758 111.516 176.866 111.318 176.902C110.184 177.118 110.202 177.946 110.166 178.81C110.112 179.692 109.986 180.592 109.932 181.492C109.914 181.726 109.986 181.996 110.292 182.104C110.562 182.194 110.778 182.068 110.976 181.888C112.146 180.7 113.298 179.512 114.468 178.324C115.026 177.766 114.864 177.316 114.342 176.866C114.054 176.596 113.784 176.29 114.018 175.876C114.234 175.444 114.666 175.552 115.026 175.588C115.548 175.606 116.052 175.66 116.43 175.696C117.204 175.624 117.834 175.552 118.482 175.516C118.896 175.498 119.256 175.624 119.4 176.038C119.562 176.452 119.472 176.884 119.112 177.064C117.384 177.82 117.456 179.296 117.51 180.808C117.492 181.384 117.456 181.96 117.366 182.536C117.258 183.706 117.402 184.714 118.806 185.056ZM127.38 175.696C131.754 177.586 132.492 183.04 128.838 186.1C127.596 187.126 126.408 187.324 124.986 186.478C123.87 185.812 123.618 186.028 123.564 187.36C123.546 188.404 123.852 189.088 124.968 189.286C125.418 189.376 125.832 189.646 125.742 190.204C125.652 190.726 125.202 190.924 124.734 190.942C124.104 190.978 123.456 190.96 122.826 190.96V190.942C122.178 190.942 121.53 190.978 120.9 190.924C120.504 190.906 120.162 190.6 120.126 190.186C120.072 189.718 120.378 189.466 120.792 189.448C121.89 189.394 121.98 188.71 121.98 187.864C121.98 185.434 121.98 183.004 122.07 180.574C122.124 179.134 121.944 177.892 120.612 177.046C120.288 176.848 120.018 176.524 120.162 176.092C120.306 175.642 120.738 175.624 121.134 175.678C122.142 175.804 123.258 175.246 124.194 176.254C124.554 176.65 125.148 176.182 125.562 175.876C126.138 175.462 126.714 175.426 127.38 175.696ZM128.514 184.048C129.108 183.292 129.252 182.446 129.162 181.51C129.306 180.502 128.946 179.638 128.37 178.846C127.326 177.442 125.832 177.37 124.608 178.648C123.078 180.304 123.528 183.544 125.472 184.678C126.606 185.326 127.722 185.074 128.514 184.048ZM141.755 175.534C142.601 175.678 142.871 176.254 142.295 176.884C140.837 178.468 140.441 180.484 139.739 182.392C139.073 184.12 138.425 185.866 137.777 187.594C137.381 188.638 136.607 189.286 135.635 189.7C134.645 190.132 133.547 189.556 133.151 188.53C132.953 187.972 133.097 187.522 133.493 187.144C133.961 186.694 134.357 186.874 134.843 187.216C136.049 188.08 136.247 187.954 136.445 186.568C136.589 185.614 136.427 184.624 135.959 183.778C135.131 182.266 134.285 180.772 133.691 179.134C133.367 178.288 132.791 177.568 132.053 177.046C131.693 176.776 131.297 176.452 131.549 175.93C131.783 175.444 132.287 175.552 132.719 175.552C133.493 175.552 134.249 175.462 135.023 175.498C136.085 175.57 136.445 176.254 135.707 176.992C134.879 177.82 134.969 178.486 135.527 179.35C136.175 180.322 136.535 181.42 136.841 182.536C137.147 182.806 137.543 182.95 137.957 182.932C138.317 181.762 138.479 180.556 139.055 179.458C139.505 178.594 139.361 177.802 138.731 176.974C138.173 176.254 138.389 175.822 139.271 175.624C140.081 175.426 140.927 175.408 141.755 175.534ZM151.947 181.942C152.595 182.158 152.739 182.716 152.595 183.364C152.127 185.47 150.057 187.072 147.825 187.054C145.467 187.036 143.991 185.866 143.379 183.616C142.821 181.69 143.001 179.638 143.883 177.82C144.891 175.678 146.907 175.678 148.833 175.66C150.345 175.642 151.569 176.758 152.055 178.252C152.271 178.9 152.325 179.494 151.857 180.052C151.191 180.844 150.111 180.7 149.679 179.764C149.643 179.71 149.625 179.656 149.625 179.584C149.571 178.396 149.229 177.388 147.825 177.316C146.727 177.244 145.161 178.486 144.891 179.728C144.621 181.042 144.567 182.41 145.071 183.706C145.521 184.894 146.403 185.578 147.519 185.506C148.779 185.434 149.913 185.02 150.507 183.778C150.633 183.49 150.687 183.166 150.777 182.842C150.939 182.248 151.209 181.69 151.947 181.942ZM161.087 176.02C162.815 177.244 163.175 179.116 163.571 180.772C163.247 182.068 163.535 183.238 162.941 184.21C161.987 185.776 160.565 186.766 158.675 186.73C156.749 186.694 155.237 185.758 154.319 184.048C153.257 182.068 153.761 178.324 155.219 176.632C156.425 175.246 159.539 174.922 161.087 176.02ZM160.331 184.21C161.879 182.554 161.771 179.674 160.079 178.144C159.215 177.352 157.595 177.388 156.749 178.198C155.201 179.692 155.093 182.338 156.497 183.94C157.019 184.534 157.631 184.966 158.477 184.966C159.233 185.056 159.827 184.768 160.331 184.21ZM174.9 181.294C175.872 182.23 176.25 183.328 175.458 184.57C174.702 185.74 173.838 186.658 172.2 186.442C171.246 186.334 170.274 186.388 169.338 186.622C168.024 186.91 166.692 186.19 165.378 186.766C165.108 186.892 164.766 186.64 164.658 186.298C164.568 186.028 164.622 185.704 164.874 185.632C167.16 184.984 166.116 183.004 166.44 181.618C166.602 180.898 166.368 180.088 166.296 179.332C166.206 178.558 166.062 177.802 165.198 177.46C164.766 177.298 164.352 177.01 164.496 176.47C164.64 175.876 165.162 175.714 165.702 175.696C166.854 175.678 168.006 175.696 169.158 175.696V175.57C170.058 175.57 170.94 175.606 171.84 175.57C173.136 175.516 174.036 176.272 174.846 177.064C175.548 177.784 175.296 178.666 174.738 179.332C174.072 180.124 174.252 180.664 174.9 181.294ZM168.006 178.342C167.934 179.26 168.654 179.998 169.698 179.944C170.58 179.908 171.498 179.962 172.344 179.548C172.866 179.278 173.496 179.062 173.316 178.324C173.136 177.586 172.632 177.082 171.786 177.172C171.282 177.208 170.814 177.496 170.292 177.28C170.094 177.226 169.914 177.19 169.716 177.154C168.762 177.118 168.078 177.604 168.006 178.342ZM173.838 183.454C173.892 182.23 173.406 181.636 172.074 181.384C171.264 181.24 170.436 181.078 169.59 181.312C168.24 181.672 167.916 182.05 168.06 183.274C168.258 184.768 168.798 185.344 170.076 185.362C170.706 185.29 171.354 185.236 171.984 185.164C173.352 185.002 173.802 184.588 173.838 183.454Z" fill="white"/>
</svg>
