<svg width="54" height="54" viewBox="0 0 54 54" fill="none" xmlns="http://www.w3.org/2000/svg">
<rect width="54" height="54" rx="10" fill="#BADBFF"/>
<path d="M31.9306 17.8824L32.8175 16.8234C33.3453 16.1932 33.2625 15.2495 32.6307 14.7184L29.1646 11.8256C28.5327 11.3156 27.6215 11.3984 27.0823 12.0221L25.4012 14.0313C25.0942 14.3984 25.1429 14.9441 25.51 15.2511C25.8787 15.5581 26.4244 15.5094 26.7298 15.1423L28.2534 13.3215L31.3362 15.8943L26.1777 22.0566L23.4766 19.8021C23.3678 19.7111 23.3337 19.69 23.2476 19.6137L23.0981 19.487L24.5145 17.7913C25.2372 16.9256 23.9135 15.8114 23.1842 16.6803L21.6184 18.5563C21.1897 19.0354 21.1442 19.7891 21.508 20.3186C21.4918 20.3414 21.4512 20.4778 21.4365 20.5022L20.7625 22.232C20.5318 22.8281 20.7056 23.5038 21.1962 23.9115L22.1674 24.722C22.6596 25.1313 23.3564 25.18 23.8989 24.847L25.6433 23.7734C26.2199 24.0398 26.9476 23.8498 27.3455 23.3625L28.5134 21.9672C30.9416 22.8898 32.5659 25.2141 32.5659 27.8226C32.6065 33.2896 25.856 36.1583 21.9595 32.3591H22.921C24.0613 32.338 24.058 30.6471 22.921 30.6276H13.8527C12.7239 30.6422 12.7076 32.3412 13.8527 32.3591H15.7531C17.0963 35.4532 19.6903 37.7596 22.8509 38.7325L21.2218 41C20.4161 42.0476 21.2591 43.6962 22.5812 43.6507H30.7398C32.0603 43.6913 32.9065 42.0541 32.0993 41.0016L30.2964 38.4889C31.9044 37.8765 33.3776 36.9183 34.5696 35.6432C35.3379 34.8083 34.0839 33.6389 33.3059 34.4591C28.9495 39.3024 20.606 38.1656 17.6808 32.3589H19.7127C24.1373 38.7927 34.2755 35.6286 34.2967 27.8225C34.2967 24.6942 32.4694 21.8794 29.6775 20.5733L30.7998 19.2317C35.229 21.5057 37.2398 27.2846 35.0893 31.7969C34.818 32.3508 35.2647 33.0363 35.8754 33.0232C36.2051 33.0232 36.5186 32.8364 36.6631 32.5181C37.3421 31.0352 37.6864 29.4499 37.6864 27.8012C37.6864 23.6984 35.4547 19.9092 31.93 17.8805L31.9306 17.8824ZM23.1384 23.2783L22.44 22.6952L22.8802 21.5647L24.1714 22.6416L23.1384 23.2783ZM24.6944 39.1342C25.9614 39.3243 27.2884 39.2772 28.5406 39.014L30.6245 41.9182H22.6951L24.6962 39.1326L24.6944 39.1342Z" fill="#1150A1"/>
<path d="M33.8325 14.2233C34.7015 14.9445 35.8108 13.624 34.9419 12.8931L30.5273 9.20927C29.6566 8.48647 28.5506 9.81023 29.4179 10.5395L33.8325 14.2233Z" fill="#1150A1"/>
</svg>
