<svg width="30" height="30" viewBox="0 0 30 30" fill="none" xmlns="http://www.w3.org/2000/svg">
<rect width="30" height="30" rx="10" fill="#BADBFF"/>
<path d="M17.052 17.836C17.388 17.908 17.58 18.124 17.568 18.46C17.556 18.808 17.316 19.06 16.992 19.036C15.792 18.952 14.628 19.216 13.44 19.252C13.224 19.252 13.02 19.156 12.864 19C12.672 18.82 12.504 18.628 12.588 18.34C12.672 18.052 12.924 17.992 13.188 17.956C14.544 17.776 14.712 17.548 14.388 16.18C14.256 15.724 14.244 15.256 14.328 14.788C14.58 13.672 14.268 12.592 14.256 11.488C14.244 10.936 14.004 10.6 13.368 10.72C13.02 10.78 12.648 10.78 12.612 10.3C12.588 9.832 12.984 9.784 13.32 9.748C13.668 9.7 14.004 9.7 14.34 9.664C15.696 9.52 15.708 9.532 15.564 11.032C15.84 12.508 15.192 14.176 15.804 15.796C15.9 16.048 15.804 16.384 15.792 16.672C15.744 17.668 15.78 17.716 16.8 17.836C16.884 17.848 16.968 17.824 17.052 17.836Z" fill="#1150A1"/>
</svg>
