<svg width="30" height="30" viewBox="0 0 30 30" fill="none" xmlns="http://www.w3.org/2000/svg">
<rect width="30" height="30" rx="10" fill="#FBBCE1"/>
<path d="M16.204 9.4C17.596 9.676 18.34 10.78 18.232 12.196C18.124 13.78 17.092 14.632 15.856 15.244C14.812 15.76 13.912 16.48 12.916 17.044C12.688 17.176 12.46 17.38 12.556 17.668C12.652 17.956 12.94 17.956 13.204 17.956C13.84 17.956 14.476 18.148 14.992 18.016C15.16 18.016 15.196 18.016 15.244 18.016C17.176 17.98 17.176 17.98 17.14 16.036C17.14 15.676 17.164 15.316 17.632 15.316C18.028 15.328 18.064 15.676 18.076 15.976C18.112 16.744 18.136 17.512 18.136 18.28C18.124 18.844 17.824 19.204 17.236 19.096C16.072 18.868 14.896 19.372 13.696 18.988C13.168 18.82 12.52 19.06 11.92 19.096C11.416 19.132 10.984 18.952 10.756 18.484C10.492 17.932 10.852 17.56 11.224 17.284C12.148 16.588 13.096 15.94 14.032 15.292C14.74 14.8 15.472 14.368 16.168 13.864C17.092 13.18 17.368 12.328 17.092 11.284C16.888 10.564 16.216 10.216 15.016 10.12C13.972 10.024 13.072 10.252 12.4 11.116C11.8 11.86 11.824 12.208 12.592 12.796C12.868 13.024 13.432 13.168 13.12 13.624C12.844 14.044 12.424 13.684 12.1 13.528C11.08 13.012 10.708 12.328 10.9 11.236C11.068 10.216 11.896 9.724 12.76 9.52C13.888 9.232 15.064 9.184 16.204 9.4Z" fill="#DD0984"/>
</svg>
