<?xml version="1.0" standalone="no"?>
  <!DOCTYPE svg PUBLIC "-//W3C//DTD SVG 1.1//EN" "http://www.w3.org/Graphics/SVG/1.1/DTD/svg11.dtd" >
  <svg>
  <metadata>
  Created by font-carrier
  </metadata>
  <defs>
  <font id="OldSovietRegular" horiz-adv-x="950" vert-adv-y="950" >
    <font-face
      
      font-family="Old Soviet"
      
      font-weight="400"
      
      font-stretch="normal"
      
      units-per-em="1000"
      
      ascent="935"
      
      descent="-225"
      
    />
      <missing-glyph />

      

      
      <glyph glyph-name="uni21" unicode="&#x21;" d="M159.78 802.25C122.96 805.42 84.54 765.19 72.63 709.96C65.86 678.57 68.52 646.95 69.30 614.99C71.88 502.83 113.60 393.16 88.80 279.06C83.25 253.53 95.26 228.31 127.14 226.26C160.81 224.09 165.97 249.53 169.42 275.49C187.71 412.33 206.03 549.17 224.37 686.01C230.98 747.14 201.25 798.68 159.78 802.25ZM139.97 147.48C97.97 147.23 60.37 105.98 63.14 63.13C65.60 24.91 102.88-6.42 143.61-4.52C184.09-2.60 223.27 32.23 223.21 66.21C223.08 103.69 178.02 147.69 139.97 147.48Z"  horiz-adv-x="288" vert-adv-y="1000"  />

      
      <glyph glyph-name="uni28" unicode="&#x28;" d="M343.53 1024.56C330.74 1033.06 315.62 1028.77 304.61 1018.29C294.45 1008.40 285.15 997.66 276.83 986.19C136.89 797.51 61.51 587.19 64.15 357.78C61.87 206.67 86.11 67.78 146.71-64.07C164.66-103.13 183.61-141.31 216.57-169.95C227.64-179.80 243.96-180.94 256.29-172.71C269.18-165.36 275.32-150.09 271.10-135.86C265.46-119.11 257.14-103.38 246.46-89.29C168.36 15.37 150.90 144.36 139.74 263.69C128.47 384.15 142.99 512.10 170.80 634.04C197.19 749.77 238.09 858.94 325.60 944.79C335.90 954.52 344.85 965.60 352.18 977.73C361.98 994.73 360.75 1013.11 343.53 1024.56Z"  horiz-adv-x="307" vert-adv-y="1000"  />

      
      <glyph glyph-name="uni29" unicode="&#x29;" d="M116.22 975.60C103.08 996.65 86.99 1024.91 59.30 1010.44C29.27 994.76 45.79 967.16 60.32 946.79C83.50 914.29 94.80 877.88 106.07 840.03C156.62 670.26 155.84 497.41 141.66 323.53C127.80 153.72 80.91-2.54-46.72-124.82C-62.86-134.48-69.99-149.19-61.20-165.68C-52.19-182.59-36.40-184.31-20.07-173.62C85.33-101.65 134.95 5.24 175.78 121.67C272.09 396.31 252.39 663.90 140.93 928.47C133.96 944.81 125.69 960.57 116.22 975.60Z"  horiz-adv-x="302" vert-adv-y="1000"  />

      
      <glyph glyph-name="uni2c" unicode="&#x2c;" d="M121.74 184.58C89.31 181.26 61.73 159.46 51.01 128.67C37.19 94.77 48.18 68.21 73.94 43.79C105.62 13.77 139.26-19.24 83.36-57.12C57.75-74.48 33.01-91.76 61.01-122.38C87.55-151.43 114.74-138.61 144.73-118.41C216.92-69.72 238.25 0.56 240.11 112.68C239.38 147.65 187.60 192.78 121.74 184.58Z"  horiz-adv-x="287" vert-adv-y="1000"  />

      
      <glyph glyph-name="uni2d" unicode="&#x2d;" d="M368.97 476.76C305.35 470.30 241.16 472.57 178.16 483.49C154.41 487.67 128.65 481.39 103.92 478.79C61.00 474.29 41.14 449.17 43.14 406.91C45.17 363.90 68.10 342.90 111.61 343.54C154.21 344.16 196.82 343.68 239.42 343.68C281.86 337.10 323.97 347.47 367.00 339.42C418.78 329.73 436.55 366.07 442.07 408.04C447.65 450.32 418.35 481.49 368.97 476.76Z"  horiz-adv-x="486" vert-adv-y="1000"  />

      
      <glyph glyph-name="uni2e" unicode="&#x2e;" d="M159.82 200.62C114.00 201.73 45.26 144.97 45.00 105.75C44.70 59.25 103.47-2.45 147.34-1.73C187.88-1.03 253.87 62.31 255.98 102.55C258.28 146.46 206.29 199.48 159.82 200.62Z"  horiz-adv-x="303" vert-adv-y="1000"  />

      
      <glyph glyph-name="uni30" unicode="&#x30;" d="M422.80 819.65C227.36 815.78 136.07 738.85 84.18 568.85C48.24 451.04 53.12 322.64 93.79 201.28C101.52 177.70 113.08 155.56 128.00 135.73C297.01-82.53 595.93-29.27 704.67 198.34C759.92 313.95 753.41 428.95 731.00 550.87C702.74 704.59 579.28 819.62 422.80 819.65ZM646.16 441.79C644.15 359.09 638.79 263.84 573.67 192.85C455.23 63.70 371.60 69.82 257.38 178.74C221.98 212.49 198.09 258.29 168.93 298.58C128.64 403.24 125.47 505.16 191.41 601.97C259.81 751.45 454.52 812.82 590.38 652.98C642.03 592.26 647.82 508.72 646.18 441.82Z"  horiz-adv-x="807" vert-adv-y="1000"  />

      
      <glyph glyph-name="uni31" unicode="&#x31;" d="M421.46 97.53C414.67 98.87 407.22 96.54 400.24 97.36C315.80 107.33 312.13 111.84 316.53 194.23C317.84 218.78 325.92 246.29 317.86 267.48C266.49 402.47 320.80 541.50 297.51 664.37C309.35 789.85 308.90 790.08 195.88 778.11C167.67 775.12 139.12 775.22 110.96 771.98C82.36 768.69 49.81 764.63 51.88 725.81C54.03 685.62 85.30 685.47 114.96 690.95C167.90 700.73 187.41 672.67 188.13 626.32C189.56 534.69 215.28 444.19 194.90 351.18C187.46 312.71 188.87 273.05 199.04 235.20C226.95 121.92 212.95 102.09 99.97 87.29C77.76 84.37 56.99 79.40 49.85 55.51C42.83 31.97 56.91 15.15 72.90 0.18C85.24-12.94 102.38-20.50 120.40-20.77C219.33-17.44 316.95 4.42 416.84-2.34C443.16-4.13 463.66 16.75 464.49 45.40C465.30 73.07 449.79 91.97 421.46 97.53Z"  horiz-adv-x="493" vert-adv-y="1000"  />

      
      <glyph glyph-name="uni32" unicode="&#x32;" d="M517.02 800.74C422.05 818.13 324.45 814.69 230.95 790.64C158.60 773.01 89.89 732.81 75.19 647.72C59.35 556.10 90.77 499.41 175.55 456.73C202.46 443.18 237.97 413.11 260.84 448.23C286.08 486.99 239.97 498.83 216.12 517.31C152.65 566.48 150.32 595.00 200.13 657.97C256.75 729.52 331.45 748.07 418.85 740.99C518.94 732.88 574.40 703.89 591.02 643.14C614.75 556.45 591.48 485.69 514.00 428.36C456.92 386.13 395.33 350.02 336.82 309.62C258.07 255.26 179.15 201.01 102.79 143.39C71.98 120.15 41.33 89.51 63.64 43.81C82.96 4.23 118.38-10.68 160.90-7.85C210.49-4.55 264.99 15.92 308.47 1.75C408.10-30.71 506.01 11.37 603.94-7.04C652.32-16.14 677.76 13.92 678.13 60.78C678.62 124.65 676.02 188.55 673.86 252.45C672.99 277.85 669.76 306.61 636.90 307.15C597.81 307.79 595.07 277.86 595.70 247.13C598.99 85.45 598.79 85.44 437.50 82.17C433.95 82.10 430.39 82.17 416.28 82.17C373.16 71.67 320.48 87.95 267.20 87.85C245.56 87.80 221.35 87.75 213.67 111.81C205.99 135.87 224.84 152.62 243.21 163.01C326.68 210.15 401.33 270.52 488.20 313.72C591.39 364.98 677.23 435.94 686.94 567.64C695.55 685.78 633.51 777.98 517.02 800.74Z"  horiz-adv-x="752" vert-adv-y="1000"  />

      
      <glyph glyph-name="uni33" unicode="&#x33;" d="M536.41 515.34C491.06 543.08 488.04 580.17 512.28 624.85C534.69 666.10 566.77 699.13 596.64 734.30C608.61 748.40 613.64 765.56 603.73 783.49C595.14 800.06 575.68 807.80 558.06 801.66C476.23 777.60 395.44 805.95 313.95 807.54C271.49 804.18 229.02 801.12 186.60 797.34C160.33 795.03 131.35 785.75 130.09 758.10C127.52 701.53 119.36 645.97 113.09 589.98C111.94 579.06 115.19 568.13 122.12 559.61C129.05 551.09 139.09 545.68 150.02 544.58C175.08 540.72 191.08 556.11 195.94 579.07C200.31 599.72 198.88 621.50 201.35 642.62C210.85 722.65 242.21 746.06 323.50 729.65C354.52 722.52 386.04 717.78 417.79 715.48C469.35 713.02 482.08 689.75 449.27 647.53C395.17 577.89 375.08 484.57 296.09 432.18C278.61 420.59 268.66 397.23 285.24 376.09C303.56 352.71 327.58 350.76 350.51 369.36C369.70 384.91 384.62 406.50 405.22 419.37C439.47 440.77 475.71 450.34 514.82 424.25C581.42 379.83 618.89 294.28 593.36 219.78C563.02 131.24 493.75 85.30 404.27 65.86C318.39 47.20 240.73 62.00 177.95 125.10C134.15 169.15 136.64 212.77 180.41 255.19C192.92 267.30 211.43 273.26 223.78 285.47C247.40 308.83 238.57 330.93 214.15 347.13C191.38 362.25 167.19 358.25 142.94 347.65C54.33 308.93 29.33 191.58 91.12 102.03C178.29-24.41 336.20-60.69 490.18-10.65C667.46 46.96 772.80 300.14 603.59 463.78C583.19 483.41 560.66 500.71 536.41 515.34Z"  horiz-adv-x="746" vert-adv-y="1000"  />

      
      <glyph glyph-name="uni34" unicode="&#x34;" d="M623.96 95.35C610.89 100.12 595.86 99.21 582.11 102.50C520.07 117.38 511.53 138.83 518.05 233.80C521.64 286.04 552.34 288.90 591.77 283.58C624.04 279.22 650.50 286.50 652.82 324.22C655.02 359.90 631.65 373.98 599.22 376.73C572.07 379.05 540.67 362.41 519.04 389.57C496.66 417.64 511.80 451.51 509.93 482.78C508.24 511.17 506.90 539.58 505.40 567.98L508.16 567.98C510.77 621.25 518.10 674.81 514.70 727.69C511.21 781.79 469.00 800.33 423.82 771.82C406.24 759.65 390.18 745.42 376.01 729.41C282.46 631.76 189.17 533.86 96.13 435.72C70.69 410.42 52.92 378.44 44.89 343.47C36.50 303.42 56.54 274.69 95.70 283.89C170.34 301.41 243.32 275.13 318.56 287.58C415.94 303.70 436.30 274.19 431.64 174.67C428.46 106.88 394.72 89.66 333.78 97.39C304.83 101.08 285.34 82.90 285.81 53.15C286.18 29.09 304.60 16.05 326.92 10.28C337.11 6.94 347.80 5.40 358.52 5.73C443.49 15.39 529.14 17.69 614.50 12.59C636.84 11.10 657.15 21.17 659.12 47.84C660.99 72.69 645.19 87.58 623.96 95.35ZM428.76 523.55C428.76 502.61 429.13 484.96 428.70 467.34C426.79 389.35 424.29 387.80 346.88 379.17C315.65 375.69 285.14 365.96 253.96 361.32C228.05 357.45 202.41 363.03 191.18 389.19C181.69 411.25 195.77 430.22 211.62 445.05C250.11 481.07 288.57 517.21 328.64 551.44C360.91 579.00 360.58 657.27 416.50 636.70C461.55 620.16 415.04 559.74 428.76 523.55Z"  horiz-adv-x="711" vert-adv-y="1000"  />

      
      <glyph glyph-name="uni35" unicode="&#x35;" d="M452.97 571.03C388.37 576.34 320.36 600.55 255.96 555.93C225.21 534.61 202.00 557.18 197.13 591.60C180.95 705.88 233.35 760.63 346.92 749.51C410.71 743.27 474.70 738.97 538.59 745.93C565.68 748.87 587.45 764.74 582.21 795.21C578.13 818.88 556.70 828.27 533.42 827.52C487.25 826.04 441.10 823.30 394.94 821.08L394.85 825.23C366.38 825.23 337.91 825.14 309.45 825.23C180.28 825.66 152.23 802.04 138.14 675.79C130.28 605.41 131.53 533.87 108.50 465.62C99.02 437.53 92.27 408.59 124.74 390.84C156.01 373.73 177.40 392.55 198.45 414.46C243.01 461.53 303.63 490.13 368.29 494.61C525.72 507.34 631.07 356.33 564.11 215.26C513.96 109.60 363.67 45.07 255.45 84.29C214.80 99.02 179.04 122.07 155.19 160.25C132.54 196.52 145.52 227.49 166.79 258.70C172.45 265.78 175.03 274.84 173.97 283.84C172.91 292.84 168.28 301.05 161.13 306.62C144.22 321.34 118.91 320.89 102.54 305.56C88.71 294.46 77.48 280.45 69.67 264.53C38.62 195.27 67.29 108.83 126.78 56.53C193.25-1.90 271.38-17.21 354.24-17.67C513.41-18.60 700.30 127.02 677.25 316.21C663.40 430.12 559.69 562.25 452.97 571.03Z"  horiz-adv-x="735" vert-adv-y="1000"  />

      
      <glyph glyph-name="uni36" unicode="&#x36;" d="M671.87 464.04C657.83 474.90 644.60 486.78 632.31 499.59C539.80 610.42 419.24 612.72 291.88 588.02C274.64 584.68 258.65 575.22 241.57 570.60C223.50 565.73 217.15 612.24 223.09 625.83C261.45 713.55 372.19 783.73 464.40 759.64C515.56 746.28 552.99 717.31 562.40 659.85C572.71 596.86 612.55 578.94 671.42 595.86C694.49 674.85 660.81 753.14 587.17 800.33C508.47 850.76 424.01 841.83 339.65 826.60C224.14 804.94 137.55 708.45 128.47 591.28C124.99 567.64 119.38 544.36 111.71 521.73C111.71 521.73 48.75 401.71 57.91 337.01C73.56 226.41 91.74 115.33 206.96 49.84C261.00 19.13 315.17 17.05 370.42 14.29C562.57 4.64 719.42 171.95 697.69 361.30C693.68 396.09 680.71 429.84 671.87 464.04ZM366.76 102.26C270.53 101.71 172.39 205.05 172.11 307.16C171.80 420.17 264.41 500.33 394.35 499.52C505.69 498.83 590.95 428.33 594.18 334.28C597.72 231.41 471.76 102.88 366.76 102.29Z"  horiz-adv-x="761" vert-adv-y="1000"  />

      
      <glyph glyph-name="uni37" unicode="&#x37;" d="M585.43 846.88C461.36 826.79 337.89 849.90 214.22 848.55C86.95 847.16 1.85 689.68 68.00 582.02C77.67 566.30 91.59 555.26 111.72 557.54C134.19 558.87 151.61 577.67 151.22 600.17C152.13 617.17 146.09 634.61 142.53 651.73C128.21 720.51 141.07 745.19 207.60 754.06C252.94 760.10 299.73 755.22 345.88 755.22C345.88 754.22 345.94 753.22 345.97 752.23C367.20 753.50 388.67 753.22 409.60 756.43C437.74 760.75 467.88 771.69 487.07 741.58C505.85 712.13 487.13 687.79 469.11 664.91C354.48 519.39 306.93 346.35 266.18 170.59C259.77 142.94 253.42 114.95 259.99 86.28C270.46 40.85 309.41 5.97 349.65 9.30C395.29 13.09 420.23 43.19 425.90 85.40C431.23 120.52 431.34 156.23 426.22 191.38C411.01 282.21 437.10 366.89 460.85 451.40C491.10 561.75 550.41 661.95 632.58 741.56C650.81 759.28 666.59 780.20 654.47 807.61C643.87 835.57 614.89 852.06 585.43 846.88Z"  horiz-adv-x="684" vert-adv-y="1000"  />

      
      <glyph glyph-name="uni38" unicode="&#x38;" d="M668.27 531.23C701.01 559.44 705.84 597.38 699.61 638.51C686.26 726.62 642.79 788.55 556.02 820.14C442.88 861.31 329.57 850.12 221.37 813.18C80.63 765.12 43.61 634.87 132.49 515.98C163.31 474.76 155.61 450.89 125.44 415.79C-1.64 267.96 64.14 76.94 255.59 34.06C290.05 26.33 325.62 23.60 360.70 18.60C430.79 14.34 496.16 37.35 559.17 58.75C711.23 110.39 767.84 300.04 669.76 423.54C638.30 463.01 624.43 493.45 668.27 531.23ZM234.90 724.55C278.41 756.03 323.34 768.08 401.44 767.89C453.93 772.89 505.81 753.52 542.16 715.34C593.83 661.46 587.13 568.11 522.19 543.12C433.21 508.89 339.19 485.85 245.62 538.54C160.56 586.41 155.16 666.82 234.90 724.55ZM530.51 144.04C486.13 117.76 437.14 111.46 381.69 109.90C330.03 112.88 279.35 125.28 232.15 146.48C187.23 167.58 142.98 192.85 145.79 255.19C148.53 316.25 166.65 368.90 226.73 393.45C306.33 425.99 392.12 433.38 476.55 433.59C537.26 433.74 589.97 381.40 599.21 331.67C612.18 261.91 579.50 173.08 530.51 144.04Z"  horiz-adv-x="780" vert-adv-y="1000"  />

      
      <glyph glyph-name="uni39" unicode="&#x39;" d="M678.19 538.99C651.32 662.76 598.58 769.03 464.60 807.40C321.27 848.43 201.12 803.24 110.31 677.93C37.38 577.30 40.75 484.98 129.72 354.17C134.67 347.07 138.95 339.53 142.50 331.63C160.55 314.16 179.73 297.90 199.91 282.94C212.43 278.87 223.80 271.87 233.07 262.52C234.16 261.39 235.17 260.20 236.16 258.96C249.11 251.34 262.53 244.57 276.35 238.68C279.28 238.86 282.26 238.98 285.33 238.94C299.40 238.75 313.44 236.62 340.62 234.19C370.64 230.78 411.51 241.36 452.55 252.70C469.89 257.49 488.20 255.61 497.32 236.06C503.84 222.07 498.82 208.12 492.07 195.67C451.11 120.15 363.65 81.54 275.82 99.84C235.25 108.34 197.12 123.36 203.17 173.34C204.22 182.70 206.85 191.82 210.95 200.30C209.42 206.76 206.85 212.93 203.34 218.56C191.07 226.01 178.80 233.40 166.32 240.30C151.54 241.99 136.64 242.54 121.77 241.94C119.99 241.93 118.22 242.09 116.48 242.43C62.67 156.03 91.62 56.42 192.22 25.40C286.51-3.63 390.77-15.17 481.65 39.25C624.31 124.69 690.83 255.76 688.32 422.37C685.21 461.32 686.36 501.16 678.19 538.99ZM381.92 343.38C250.58 340.17 171.12 409.48 169.72 528.48C168.39 642.39 249.27 731.53 353.73 731.28C464.74 731.01 548.44 651.27 553.13 541.30C557.21 446.17 470.15 345.54 381.88 343.38Z"  horiz-adv-x="748" vert-adv-y="1000"  />

      
      <glyph glyph-name="uni3a" unicode="&#x3a;" d="M131.75 663.26C87.87 658.38 53.69 611.38 58.82 562.95C63.64 517.37 101.59 477.25 138.34 478.88C180.97 480.79 252.43 543.06 250.66 576.78C248.58 616.69 177.54 668.35 131.75 663.26ZM129.86 288.81C96.37 286.89 53.81 228.06 54.00 183.93C54.21 137.26 98.05 83.06 134.18 84.90C168.58 86.67 236.43 151.54 236.19 182.40C235.82 221.39 166.36 290.90 129.86 288.81Z"  horiz-adv-x="303" vert-adv-y="1000"  />

      
      <glyph glyph-name="uni3b" unicode="&#x3b;" d="M110.41 194.67C62.71 158.82 50.25 117.14 85.41 71.48C119.66 26.94 121.66-9.52 81.79-48.80C71.31-58.07 62.66-69.21 56.28-81.66C53.52-91.62 54.78-102.26 59.79-111.30C67.25-125.47 82.41-127.20 96.62-123.41C149.85-109.23 249.78 13.24 250.91 64.78C253.35 104.08 238.15 142.42 209.43 169.35C181.97 196.89 154.61 227.89 110.41 194.67ZM147.43 430.13C188.29 429.40 249.24 485.00 248.42 522.21C247.70 555.36 190.82 609.80 155.38 611.26C125.33 612.52 53.67 546.34 53.01 516.73C52.30 484.82 111.23 430.76 147.43 430.13Z"  horiz-adv-x="306" vert-adv-y="1000"  />

      
      <glyph glyph-name="uni3f" unicode="&#x3f;" d="M358.71 161.64C339.05 167.58 318.90 171.81 298.51 174.27C284.68 171.73 270.88 169.02 257.09 166.12C256.39 165.68 255.68 165.18 254.98 164.73C253.53 143.46 247.31 122.80 236.80 104.26C220.15 74.74 251.11 46.10 282.75 31.96C316.59 16.80 344.46 27.83 368.31 53.13C392.31 78.63 404.97 107.88 378.73 137.37C371.60 145.07 364.92 153.18 358.71 161.64ZM360.72 825.74C325.16 828.42 289.43 828.13 253.91 824.87C107.79 807.86 9.26 643.53 66.54 515.21C79.46 486.26 99.77 466.73 132.65 474.85C167.04 483.35 173.61 510.65 166.83 542.09C160.88 569.48 142.35 593.69 148.28 624.19C160.99 689.95 245.49 757.01 312.60 753.66C389.51 749.80 460.04 694.87 469.00 631.80C481.31 545.13 428.18 461.00 347.60 443.05C317.46 436.33 282.10 448.74 259.36 417.06C220.67 387.39 237.34 346.91 238.44 309.55C238.67 301.82 239.36 294.09 240.32 286.36C261.68 263.28 289.90 247.69 320.81 241.89C329.39 243.09 338.04 243.70 346.70 243.71C352.88 254.60 361.94 266.00 362.39 276.95C362.53 281.64 364.06 286.18 366.77 290.01C369.53 328.54 400.44 349.63 431.19 371.42C556.61 417.39 624.17 510.93 607.52 615.55C588.29 736.29 491.99 818.93 360.74 825.74Z"  horiz-adv-x="662" vert-adv-y="1000"  />

      
      <glyph glyph-name="uni41" unicode="&#x41;" d="M794.03 95.86C728.60 109.97 694.97 156.25 684.93 213.87C649.20 419.01 540.50 599.72 492.93 800.62C481.94 846.99 451.08 874.41 401.02 873.57C354.35 872.80 332.44 846.35 323.22 801.79C305.93 718.16 278.21 637.36 252.85 555.81C211.85 423.95 140.58 303.09 115.50 165.41C108.44 126.67 85.46 93.31 41.52 81.94C21.16 76.68-3.81 70.41-1.90 43.48C0.19 14.11 24.94 0.55 50.70 0.28C136.04-0.62 221.42 0.71 306.72 3.37C328.73 4.06 348.03 16.36 349.17 42.35C350.09 63.44 334.55 73.83 317.31 79.91C304.06 84.54 289.34 84.96 275.82 89.05C207.71 109.64 199.50 132.89 228.93 198.15C266.38 281.22 334.20 288.23 414.30 288.19C530.60 288.14 557.38 274.91 594.80 173.45C609.59 133.34 606.14 104.41 564.89 85.92C555.15 81.55 545.11 77.84 535.26 73.74C516.99 66.13 505.76 52.45 508.69 32.69C512.79 5.09 535.66 3.32 557.38 2.99C596.51 2.46 635.67 2.84 674.81 2.84L674.81 1.17C706.84 1.17 738.88 1.41 770.90 1.10C800.31 0.81 832.02 1.37 840.62 35.66C849.45 70.65 822.99 89.61 794.03 95.86ZM443.16 376.11C415.04 375.22 386.93 377.92 359.50 384.16C332.16 389.40 317.33 407.91 319.17 446.18C322.47 457.86 324.58 480.06 334.62 497.79C357.46 538.16 376.04 578.94 379.17 626.09C380.41 644.78 391.27 661.68 411.28 661.57C430.60 661.47 441.97 645.14 446.52 627.25C460.43 572.47 484.28 521.50 504.07 468.93C525.62 411.53 503.65 380.33 443.15 376.11Z"  horiz-adv-x="841" vert-adv-y="1000"  />

      
      <glyph glyph-name="unic0" unicode="&#xc0;" d="M794.03 95.86C728.60 109.97 694.97 156.25 684.93 213.87C649.20 419.01 540.50 599.72 492.93 800.62C481.94 846.99 451.08 874.41 401.02 873.57C354.35 872.80 332.44 846.35 323.22 801.79C305.93 718.16 278.21 637.36 252.85 555.81C211.85 423.95 140.58 303.09 115.50 165.41C108.44 126.67 85.46 93.31 41.52 81.94C21.16 76.68-3.81 70.41-1.90 43.48C0.19 14.11 24.94 0.55 50.70 0.28C136.04-0.62 221.42 0.71 306.72 3.37C328.73 4.06 348.03 16.36 349.17 42.35C350.09 63.44 334.55 73.83 317.31 79.91C304.06 84.54 289.34 84.96 275.82 89.05C207.71 109.64 199.50 132.89 228.93 198.15C266.38 281.22 334.20 288.23 414.30 288.19C530.60 288.14 557.38 274.91 594.80 173.45C609.59 133.34 606.14 104.41 564.89 85.92C555.15 81.55 545.11 77.84 535.26 73.74C516.99 66.13 505.76 52.45 508.69 32.69C512.79 5.09 535.66 3.32 557.38 2.99C596.51 2.46 635.67 2.84 674.81 2.84L674.81 1.17C706.84 1.17 738.88 1.41 770.90 1.10C800.31 0.81 832.02 1.37 840.62 35.66C849.45 70.65 822.99 89.61 794.03 95.86ZM443.16 376.11C415.04 375.22 386.93 377.92 359.50 384.16C332.16 389.40 317.33 407.91 319.17 446.18C322.47 457.86 324.58 480.06 334.62 497.79C357.46 538.16 376.04 578.94 379.17 626.09C380.41 644.78 391.27 661.68 411.28 661.57C430.60 661.47 441.97 645.14 446.52 627.25C460.43 572.47 484.28 521.50 504.07 468.93C525.62 411.53 503.65 380.33 443.15 376.11Z"  horiz-adv-x="841" vert-adv-y="1000"  />

      
      <glyph glyph-name="unic1" unicode="&#xc1;" d="M794.03 95.86C728.60 109.97 694.97 156.25 684.93 213.87C649.20 419.01 540.50 599.72 492.93 800.62C481.94 846.99 451.08 874.41 401.02 873.57C354.35 872.80 332.44 846.35 323.22 801.79C305.93 718.16 278.21 637.36 252.85 555.81C211.85 423.95 140.58 303.09 115.50 165.41C108.44 126.67 85.46 93.31 41.52 81.94C21.16 76.68-3.81 70.41-1.90 43.48C0.19 14.11 24.94 0.55 50.70 0.28C136.04-0.62 221.42 0.71 306.72 3.37C328.73 4.06 348.03 16.36 349.17 42.35C350.09 63.44 334.55 73.83 317.31 79.91C304.06 84.54 289.34 84.96 275.82 89.05C207.71 109.64 199.50 132.89 228.93 198.15C266.38 281.22 334.20 288.23 414.30 288.19C530.60 288.14 557.38 274.91 594.80 173.45C609.59 133.34 606.14 104.41 564.89 85.92C555.15 81.55 545.11 77.84 535.26 73.74C516.99 66.13 505.76 52.45 508.69 32.69C512.79 5.09 535.66 3.32 557.38 2.99C596.51 2.46 635.67 2.84 674.81 2.84L674.81 1.17C706.84 1.17 738.88 1.41 770.90 1.10C800.31 0.81 832.02 1.37 840.62 35.66C849.45 70.65 822.99 89.61 794.03 95.86ZM443.16 376.11C415.04 375.22 386.93 377.92 359.50 384.16C332.16 389.40 317.33 407.91 319.17 446.18C322.47 457.86 324.58 480.06 334.62 497.79C357.46 538.16 376.04 578.94 379.17 626.09C380.41 644.78 391.27 661.68 411.28 661.57C430.60 661.47 441.97 645.14 446.52 627.25C460.43 572.47 484.28 521.50 504.07 468.93C525.62 411.53 503.65 380.33 443.15 376.11Z"  horiz-adv-x="841" vert-adv-y="1000"  />

      
      <glyph glyph-name="unic2" unicode="&#xc2;" d="M794.03 95.86C728.60 109.97 694.97 156.25 684.93 213.87C649.20 419.01 540.50 599.72 492.93 800.62C481.94 846.99 451.08 874.41 401.02 873.57C354.35 872.80 332.44 846.35 323.22 801.79C305.93 718.16 278.21 637.36 252.85 555.81C211.85 423.95 140.58 303.09 115.50 165.41C108.44 126.67 85.46 93.31 41.52 81.94C21.16 76.68-3.81 70.41-1.90 43.48C0.19 14.11 24.94 0.55 50.70 0.28C136.04-0.62 221.42 0.71 306.72 3.37C328.73 4.06 348.03 16.36 349.17 42.35C350.09 63.44 334.55 73.83 317.31 79.91C304.06 84.54 289.34 84.96 275.82 89.05C207.71 109.64 199.50 132.89 228.93 198.15C266.38 281.22 334.20 288.23 414.30 288.19C530.60 288.14 557.38 274.91 594.80 173.45C609.59 133.34 606.14 104.41 564.89 85.92C555.15 81.55 545.11 77.84 535.26 73.74C516.99 66.13 505.76 52.45 508.69 32.69C512.79 5.09 535.66 3.32 557.38 2.99C596.51 2.46 635.67 2.84 674.81 2.84L674.81 1.17C706.84 1.17 738.88 1.41 770.90 1.10C800.31 0.81 832.02 1.37 840.62 35.66C849.45 70.65 822.99 89.61 794.03 95.86ZM443.16 376.11C415.04 375.22 386.93 377.92 359.50 384.16C332.16 389.40 317.33 407.91 319.17 446.18C322.47 457.86 324.58 480.06 334.62 497.79C357.46 538.16 376.04 578.94 379.17 626.09C380.41 644.78 391.27 661.68 411.28 661.57C430.60 661.47 441.97 645.14 446.52 627.25C460.43 572.47 484.28 521.50 504.07 468.93C525.62 411.53 503.65 380.33 443.15 376.11Z"  horiz-adv-x="841" vert-adv-y="1000"  />

      
      <glyph glyph-name="unic3" unicode="&#xc3;" d="M794.03 95.86C728.60 109.97 694.97 156.25 684.93 213.87C649.20 419.01 540.50 599.72 492.93 800.62C481.94 846.99 451.08 874.41 401.02 873.57C354.35 872.80 332.44 846.35 323.22 801.79C305.93 718.16 278.21 637.36 252.85 555.81C211.85 423.95 140.58 303.09 115.50 165.41C108.44 126.67 85.46 93.31 41.52 81.94C21.16 76.68-3.81 70.41-1.90 43.48C0.19 14.11 24.94 0.55 50.70 0.28C136.04-0.62 221.42 0.71 306.72 3.37C328.73 4.06 348.03 16.36 349.17 42.35C350.09 63.44 334.55 73.83 317.31 79.91C304.06 84.54 289.34 84.96 275.82 89.05C207.71 109.64 199.50 132.89 228.93 198.15C266.38 281.22 334.20 288.23 414.30 288.19C530.60 288.14 557.38 274.91 594.80 173.45C609.59 133.34 606.14 104.41 564.89 85.92C555.15 81.55 545.11 77.84 535.26 73.74C516.99 66.13 505.76 52.45 508.69 32.69C512.79 5.09 535.66 3.32 557.38 2.99C596.51 2.46 635.67 2.84 674.81 2.84L674.81 1.17C706.84 1.17 738.88 1.41 770.90 1.10C800.31 0.81 832.02 1.37 840.62 35.66C849.45 70.65 822.99 89.61 794.03 95.86ZM443.16 376.11C415.04 375.22 386.93 377.92 359.50 384.16C332.16 389.40 317.33 407.91 319.17 446.18C322.47 457.86 324.58 480.06 334.62 497.79C357.46 538.16 376.04 578.94 379.17 626.09C380.41 644.78 391.27 661.68 411.28 661.57C430.60 661.47 441.97 645.14 446.52 627.25C460.43 572.47 484.28 521.50 504.07 468.93C525.62 411.53 503.65 380.33 443.15 376.11Z"  horiz-adv-x="841" vert-adv-y="1000"  />

      
      <glyph glyph-name="unic4" unicode="&#xc4;" d="M794.03 95.86C728.60 109.97 694.97 156.25 684.93 213.87C649.20 419.01 540.50 599.72 492.93 800.62C481.94 846.99 451.08 874.41 401.02 873.57C354.35 872.80 332.44 846.35 323.22 801.79C305.93 718.16 278.21 637.36 252.85 555.81C211.85 423.95 140.58 303.09 115.50 165.41C108.44 126.67 85.46 93.31 41.52 81.94C21.16 76.68-3.81 70.41-1.90 43.48C0.19 14.11 24.94 0.55 50.70 0.28C136.04-0.62 221.42 0.71 306.72 3.37C328.73 4.06 348.03 16.36 349.17 42.35C350.09 63.44 334.55 73.83 317.31 79.91C304.06 84.54 289.34 84.96 275.82 89.05C207.71 109.64 199.50 132.89 228.93 198.15C266.38 281.22 334.20 288.23 414.30 288.19C530.60 288.14 557.38 274.91 594.80 173.45C609.59 133.34 606.14 104.41 564.89 85.92C555.15 81.55 545.11 77.84 535.26 73.74C516.99 66.13 505.76 52.45 508.69 32.69C512.79 5.09 535.66 3.32 557.38 2.99C596.51 2.46 635.67 2.84 674.81 2.84L674.81 1.17C706.84 1.17 738.88 1.41 770.90 1.10C800.31 0.81 832.02 1.37 840.62 35.66C849.45 70.65 822.99 89.61 794.03 95.86ZM443.16 376.11C415.04 375.22 386.93 377.92 359.50 384.16C332.16 389.40 317.33 407.91 319.17 446.18C322.47 457.86 324.58 480.06 334.62 497.79C357.46 538.16 376.04 578.94 379.17 626.09C380.41 644.78 391.27 661.68 411.28 661.57C430.60 661.47 441.97 645.14 446.52 627.25C460.43 572.47 484.28 521.50 504.07 468.93C525.62 411.53 503.65 380.33 443.15 376.11Z"  horiz-adv-x="841" vert-adv-y="1000"  />

      
      <glyph glyph-name="unic5" unicode="&#xc5;" d="M794.03 95.86C728.60 109.97 694.97 156.25 684.93 213.87C649.20 419.01 540.50 599.72 492.93 800.62C481.94 846.99 451.08 874.41 401.02 873.57C354.35 872.80 332.44 846.35 323.22 801.79C305.93 718.16 278.21 637.36 252.85 555.81C211.85 423.95 140.58 303.09 115.50 165.41C108.44 126.67 85.46 93.31 41.52 81.94C21.16 76.68-3.81 70.41-1.90 43.48C0.19 14.11 24.94 0.55 50.70 0.28C136.04-0.62 221.42 0.71 306.72 3.37C328.73 4.06 348.03 16.36 349.17 42.35C350.09 63.44 334.55 73.83 317.31 79.91C304.06 84.54 289.34 84.96 275.82 89.05C207.71 109.64 199.50 132.89 228.93 198.15C266.38 281.22 334.20 288.23 414.30 288.19C530.60 288.14 557.38 274.91 594.80 173.45C609.59 133.34 606.14 104.41 564.89 85.92C555.15 81.55 545.11 77.84 535.26 73.74C516.99 66.13 505.76 52.45 508.69 32.69C512.79 5.09 535.66 3.32 557.38 2.99C596.51 2.46 635.67 2.84 674.81 2.84L674.81 1.17C706.84 1.17 738.88 1.41 770.90 1.10C800.31 0.81 832.02 1.37 840.62 35.66C849.45 70.65 822.99 89.61 794.03 95.86ZM443.16 376.11C415.04 375.22 386.93 377.92 359.50 384.16C332.16 389.40 317.33 407.91 319.17 446.18C322.47 457.86 324.58 480.06 334.62 497.79C357.46 538.16 376.04 578.94 379.17 626.09C380.41 644.78 391.27 661.68 411.28 661.57C430.60 661.47 441.97 645.14 446.52 627.25C460.43 572.47 484.28 521.50 504.07 468.93C525.62 411.53 503.65 380.33 443.15 376.11Z"  horiz-adv-x="841" vert-adv-y="1000"  />

      
      <glyph glyph-name="uni42" unicode="&#x42;" d="M662.83 403.36C654.45 409.89 647.74 418.52 639.64 425.43C599.23 459.79 600.34 488.86 635.11 532.74C733.26 656.58 693.16 790.67 539.60 827.25C379.36 865.42 214.06 832.75 51.00 830.45C32.08 830.77 16.10 816.48 14.32 797.64C12.98 788.61 15.85 779.47 22.10 772.82C28.35 766.17 37.30 762.74 46.40 763.52C141.10 770.73 142.59 698.36 157.22 637.36C167.47 594.66 153.69 552.48 151.64 491.72C170.29 421.51 124.46 334.52 147.53 244.97C158.93 200.66 163.25 152.31 146.17 108.01C128.99 63.50 81.14 71.85 45.81 58.67C28.08 52.06 15.71 38.41 17.70 18.35C20.20-6.88 38.04-18.67 61.53-19.43C82.74-20.13 104.04-16.66 125.35-15.76C191.40-12.96 254.83 0.61 324.19-7.12C397.95-14.02 472.33-9.55 544.72 6.14C687.55 35.40 810.41 288.23 662.83 403.36ZM351.08 759.57C361.64 759.20 372.14 757.12 397.28 754.06C417.13 755.28 437.03 755.13 456.86 753.62C527.09 745.75 562.67 715.15 568.15 661.12C573.94 604.11 529.47 539.78 469.90 527.41C428.32 519.06 385.97 515.11 343.56 515.63C296.18 516.00 263.30 540.84 255.10 590.16C252.19 611.14 250.40 632.26 249.75 653.43C244.94 738.10 268.20 762.46 351.08 759.57ZM614.54 237.04C597.43 168.25 565.38 111.52 493.20 87.03C459.68 76.26 424.13 73.35 389.30 78.53C267.19 80.30 253.79 91.00 243.96 207.64C240.90 250.13 241.59 292.80 246.03 335.17C251.74 396.28 278.56 428.19 337.67 434.74C413.30 443.13 488.11 431.15 550.05 383.73C596.44 348.28 630.80 302.43 614.54 237.07Z"  horiz-adv-x="764" vert-adv-y="1000"  />

      
      <glyph glyph-name="uni43" unicode="&#x43;" d="M212.00 18.09C408.04-103.25 642.26 45.50 661.04 265.92C663.66 296.72 674.36 336.89 633.65 347.89C592.28 359.09 569.98 325.36 553.79 292.16C547.44 279.39 543.26 265.66 541.42 251.52C534.34 190.63 491.91 150.61 457.18 106.07C426.93 67.30 389.35 61.49 342.86 75.67C277.75 95.53 224.48 129.07 201.49 194.47C173.40 274.36 134.02 352.86 152.57 442.87C132.38 529.12 177.99 602.04 206.12 677.47C228.71 738.04 341.72 776.39 407.13 756.38C497.67 728.64 545.99 663.82 570.54 576.85C575.43 559.50 580.34 541.08 602.79 540.87C628.68 540.63 641.78 558.28 643.76 581.06C649.58 648.12 656.48 715.36 656.65 782.54C656.79 834.47 631.44 854.64 591.34 830.51C544.61 802.39 515.17 818.91 475.31 840.44C375.80 894.21 252.47 864.00 176.07 782.64C38.16 635.80 15.89 461.58 55.62 276.36C77.26 175.48 118.05 76.26 212.00 18.09Z"  horiz-adv-x="710" vert-adv-y="1000"  />

      
      <glyph glyph-name="unic7" unicode="&#xc7;" d="M212.00 18.09C408.04-103.25 642.26 45.50 661.04 265.92C663.66 296.72 674.36 336.89 633.65 347.89C592.28 359.09 569.98 325.36 553.79 292.16C547.44 279.39 543.26 265.66 541.42 251.52C534.34 190.63 491.91 150.61 457.18 106.07C426.93 67.30 389.35 61.49 342.86 75.67C277.75 95.53 224.48 129.07 201.49 194.47C173.40 274.36 134.02 352.86 152.57 442.87C132.38 529.12 177.99 602.04 206.12 677.47C228.71 738.04 341.72 776.39 407.13 756.38C497.67 728.64 545.99 663.82 570.54 576.85C575.43 559.50 580.34 541.08 602.79 540.87C628.68 540.63 641.78 558.28 643.76 581.06C649.58 648.12 656.48 715.36 656.65 782.54C656.79 834.47 631.44 854.64 591.34 830.51C544.61 802.39 515.17 818.91 475.31 840.44C375.80 894.21 252.47 864.00 176.07 782.64C38.16 635.80 15.89 461.58 55.62 276.36C77.26 175.48 118.05 76.26 212.00 18.09Z"  horiz-adv-x="710" vert-adv-y="1000"  />

      
      <glyph glyph-name="uni44" unicode="&#x44;" d="M687.39 655.43C639.02 745.93 571.08 803.60 472.92 832.70C421.87 847.84 375.13 822.08 325.10 831.30C241.18 846.75 154.79 824.17 70.10 844.04C44.72 849.99 19.81 838.70 17.16 806.17C15.46 785.26 27.83 775.36 47.45 769.85C147.10 741.69 146.22 741.36 146.01 638.52C145.72 501.08 147.12 363.91 138.83 226.26C134.36 151.90 138.74 92.02 47.71 76.77C24.05 72.81 14.78 50.22 22.01 26.67C28.02 7.06 46.18 0.02 64.56 2.67C117.14 10.04 170.51 9.56 222.95 1.24C287.87 5.44 352.12 6.60 415.53 14.37C508.63 24.93 593.50 72.71 650.82 146.83C763.13 286.58 775.42 490.70 687.39 655.43ZM635.27 427.20C634.02 309.72 575.66 218.47 492.20 143.16C430.74 87.70 348.77 115.61 276.57 107.99C236.78 103.79 238.19 149.31 239.48 182.36C244.78 320.75 249.35 459.17 254.01 597.59C254.73 618.82 255.16 640.10 254.58 661.34C252.26 746.85 263.12 761.41 350.53 759.58C546.74 755.49 575.43 685.57 634.46 490.92C640.37 471.39 635.24 448.52 635.24 427.20Z"  horiz-adv-x="779" vert-adv-y="1000"  />

      
      <glyph glyph-name="uni45" unicode="&#x45;" d="M698.27 339.49C698.32 361.91 680.10 377.66 654.99 377.20C629.02 376.72 616.52 358.84 614.90 336.29C611.87 294.12 600.86 253.17 605.92 209.54C613.85 141.20 603.00 125.30 540.18 113.52C459.34 98.34 377.31 103.41 295.96 112.84C263.18 116.64 245.53 137.85 245.95 171.02C246.83 241.89 249.81 312.56 244.90 383.64C241.70 429.74 278.10 440.65 317.40 441.69C355.64 442.71 390.26 439.08 392.55 389.20C394.32 350.61 388.52 309.79 425.01 281.69C443.24 267.65 463.66 260.50 483.15 276.11C503.95 292.78 498.30 313.09 483.98 331.98C480.28 410.32 508.92 486.90 497.48 565.45C492.68 598.40 479.71 629.08 440.82 633.13C401.02 637.28 396.22 607.54 392.54 577.76C391.69 569.98 389.80 562.35 386.91 555.07C380.01 545.71 371.94 537.27 362.88 529.97C343.25 521.80 317.28 526.44 294.18 528.29C240.40 532.60 214.99 560.05 218.05 611.09C220.99 660.35 230.70 709.25 237.42 758.23C227.37 750.88 219.22 741.23 213.65 730.08C215.87 743.10 224.98 753.89 237.45 758.26C280.73 781.45 329.77 763.60 374.34 777.58C437.72 761.11 503.23 785.51 566.55 767.89L566.61 767.85L599.07 714.36C612.77 707.20 622.00 693.69 623.68 678.32C618.48 692.13 610.04 704.49 599.07 714.36C600.74 675.51 599.07 636.14 605.01 597.96C611.41 557.00 630.72 529.73 675.64 565.41L675.69 565.41L675.62 565.46C714.45 601.24 701.73 637.48 677.46 673.82C701.15 856.21 694.46 869.45 516.83 854.67C513.44 854.53 510.04 854.25 506.63 853.80L498.94 853.15C492.71 851.95 486.67 849.87 481.02 846.96C341.91 868.01 202.72 828.17 63.44 846.68C49.47 848.54 38.30 837.01 31.24 824.12C9.21 793.87 16.92 778.22 54.35 777.17L87.89 778.40C95.23 776.26 102.21 773.03 108.59 768.83C102.07 772.78 95.12 775.99 87.89 778.40C114.99 762.87 129.10 741.79 123.40 708.55C118.61 688.14 122.85 666.66 135.04 649.60C135.13 515.39 135.23 381.17 135.33 246.94C114.76 216.80 122.19 186.89 134.34 155.88C149.94 115.97 134.01 95.10 91.83 92.27C77.74 92.45 63.70 90.47 50.21 86.39C36.83 80.54 28.50 66.97 29.35 52.38C27.94 33.84 41.40 17.48 59.87 15.29C73.87 13.23 88.10 13.11 102.13 14.92C258.12 30.34 414.37 29.61 570.77 24.31C602.76 23.94 634.70 27.00 666.04 33.44C692.72 38.36 714.22 57.92 710.86 85.11C701.40 169.56 697.20 254.52 698.27 339.49ZM667.80 687.04C668.92 685.41 670.14 683.86 671.47 682.40C673.26 680.29 674.83 678.00 676.18 675.57L676.18 675.07C672.87 678.67 670.05 682.70 667.80 687.04Z"  horiz-adv-x="760" vert-adv-y="1000"  />

      
      <glyph glyph-name="unic8" unicode="&#xc8;" d="M698.27 339.49C698.32 361.91 680.10 377.66 654.99 377.20C629.02 376.72 616.52 358.84 614.90 336.29C611.87 294.12 600.86 253.17 605.92 209.54C613.85 141.20 603.00 125.30 540.18 113.52C459.34 98.34 377.31 103.41 295.96 112.84C263.18 116.64 245.53 137.85 245.95 171.02C246.83 241.89 249.81 312.56 244.90 383.64C241.70 429.74 278.10 440.65 317.40 441.69C355.64 442.71 390.26 439.08 392.55 389.20C394.32 350.61 388.52 309.79 425.01 281.69C443.24 267.65 463.66 260.50 483.15 276.11C503.95 292.78 498.30 313.09 483.98 331.98C480.28 410.32 508.92 486.90 497.48 565.45C492.68 598.40 479.71 629.08 440.82 633.13C401.02 637.28 396.22 607.54 392.54 577.76C391.69 569.98 389.80 562.35 386.91 555.07C380.01 545.71 371.94 537.27 362.88 529.97C343.25 521.80 317.28 526.44 294.18 528.29C240.40 532.60 214.99 560.05 218.05 611.09C220.99 660.35 230.70 709.25 237.42 758.23C227.37 750.88 219.22 741.23 213.65 730.08C215.87 743.10 224.98 753.89 237.45 758.26C280.73 781.45 329.77 763.60 374.34 777.58C437.72 761.11 503.23 785.51 566.55 767.89L566.61 767.85L599.07 714.36C612.77 707.20 622.00 693.69 623.68 678.32C618.48 692.13 610.04 704.49 599.07 714.36C600.74 675.51 599.07 636.14 605.01 597.96C611.41 557.00 630.72 529.73 675.64 565.41L675.69 565.41L675.62 565.46C714.45 601.24 701.73 637.48 677.46 673.82C701.15 856.21 694.46 869.45 516.83 854.67C513.44 854.53 510.04 854.25 506.63 853.80L498.94 853.15C492.71 851.95 486.67 849.87 481.02 846.96C341.91 868.01 202.72 828.17 63.44 846.68C49.47 848.54 38.30 837.01 31.24 824.12C9.21 793.87 16.92 778.22 54.35 777.17L87.89 778.40C95.23 776.26 102.21 773.03 108.59 768.83C102.07 772.78 95.12 775.99 87.89 778.40C114.99 762.87 129.10 741.79 123.40 708.55C118.61 688.14 122.85 666.66 135.04 649.60C135.13 515.39 135.23 381.17 135.33 246.94C114.76 216.80 122.19 186.89 134.34 155.88C149.94 115.97 134.01 95.10 91.83 92.27C77.74 92.45 63.70 90.47 50.21 86.39C36.83 80.54 28.50 66.97 29.35 52.38C27.94 33.84 41.40 17.48 59.87 15.29C73.87 13.23 88.10 13.11 102.13 14.92C258.12 30.34 414.37 29.61 570.77 24.31C602.76 23.94 634.70 27.00 666.04 33.44C692.72 38.36 714.22 57.92 710.86 85.11C701.40 169.56 697.20 254.52 698.27 339.49ZM667.80 687.04C668.92 685.41 670.14 683.86 671.47 682.40C673.26 680.29 674.83 678.00 676.18 675.57L676.18 675.07C672.87 678.67 670.05 682.70 667.80 687.04Z"  horiz-adv-x="760" vert-adv-y="1000"  />

      
      <glyph glyph-name="unic9" unicode="&#xc9;" d="M698.27 339.49C698.32 361.91 680.10 377.66 654.99 377.20C629.02 376.72 616.52 358.84 614.90 336.29C611.87 294.12 600.86 253.17 605.92 209.54C613.85 141.20 603.00 125.30 540.18 113.52C459.34 98.34 377.31 103.41 295.96 112.84C263.18 116.64 245.53 137.85 245.95 171.02C246.83 241.89 249.81 312.56 244.90 383.64C241.70 429.74 278.10 440.65 317.40 441.69C355.64 442.71 390.26 439.08 392.55 389.20C394.32 350.61 388.52 309.79 425.01 281.69C443.24 267.65 463.66 260.50 483.15 276.11C503.95 292.78 498.30 313.09 483.98 331.98C480.28 410.32 508.92 486.90 497.48 565.45C492.68 598.40 479.71 629.08 440.82 633.13C401.02 637.28 396.22 607.54 392.54 577.76C391.69 569.98 389.80 562.35 386.91 555.07C380.01 545.71 371.94 537.27 362.88 529.97C343.25 521.80 317.28 526.44 294.18 528.29C240.40 532.60 214.99 560.05 218.05 611.09C220.99 660.35 230.70 709.25 237.42 758.23C227.37 750.88 219.22 741.23 213.65 730.08C215.87 743.10 224.98 753.89 237.45 758.26C280.73 781.45 329.77 763.60 374.34 777.58C437.72 761.11 503.23 785.51 566.55 767.89L566.61 767.85L599.07 714.36C612.77 707.20 622.00 693.69 623.68 678.32C618.48 692.13 610.04 704.49 599.07 714.36C600.74 675.51 599.07 636.14 605.01 597.96C611.41 557.00 630.72 529.73 675.64 565.41L675.69 565.41L675.62 565.46C714.45 601.24 701.73 637.48 677.46 673.82C701.15 856.21 694.46 869.45 516.83 854.67C513.44 854.53 510.04 854.25 506.63 853.80L498.94 853.15C492.71 851.95 486.67 849.87 481.02 846.96C341.91 868.01 202.72 828.17 63.44 846.68C49.47 848.54 38.30 837.01 31.24 824.12C9.21 793.87 16.92 778.22 54.35 777.17L87.89 778.40C95.23 776.26 102.21 773.03 108.59 768.83C102.07 772.78 95.12 775.99 87.89 778.40C114.99 762.87 129.10 741.79 123.40 708.55C118.61 688.14 122.85 666.66 135.04 649.60C135.13 515.39 135.23 381.17 135.33 246.94C114.76 216.80 122.19 186.89 134.34 155.88C149.94 115.97 134.01 95.10 91.83 92.27C77.74 92.45 63.70 90.47 50.21 86.39C36.83 80.54 28.50 66.97 29.35 52.38C27.94 33.84 41.40 17.48 59.87 15.29C73.87 13.23 88.10 13.11 102.13 14.92C258.12 30.34 414.37 29.61 570.77 24.31C602.76 23.94 634.70 27.00 666.04 33.44C692.72 38.36 714.22 57.92 710.86 85.11C701.40 169.56 697.20 254.52 698.27 339.49ZM667.80 687.04C668.92 685.41 670.14 683.86 671.47 682.40C673.26 680.29 674.83 678.00 676.18 675.57L676.18 675.07C672.87 678.67 670.05 682.70 667.80 687.04Z"  horiz-adv-x="760" vert-adv-y="1000"  />

      
      <glyph glyph-name="unica" unicode="&#xca;" d="M698.27 339.49C698.32 361.91 680.10 377.66 654.99 377.20C629.02 376.72 616.52 358.84 614.90 336.29C611.87 294.12 600.86 253.17 605.92 209.54C613.85 141.20 603.00 125.30 540.18 113.52C459.34 98.34 377.31 103.41 295.96 112.84C263.18 116.64 245.53 137.85 245.95 171.02C246.83 241.89 249.81 312.56 244.90 383.64C241.70 429.74 278.10 440.65 317.40 441.69C355.64 442.71 390.26 439.08 392.55 389.20C394.32 350.61 388.52 309.79 425.01 281.69C443.24 267.65 463.66 260.50 483.15 276.11C503.95 292.78 498.30 313.09 483.98 331.98C480.28 410.32 508.92 486.90 497.48 565.45C492.68 598.40 479.71 629.08 440.82 633.13C401.02 637.28 396.22 607.54 392.54 577.76C391.69 569.98 389.80 562.35 386.91 555.07C380.01 545.71 371.94 537.27 362.88 529.97C343.25 521.80 317.28 526.44 294.18 528.29C240.40 532.60 214.99 560.05 218.05 611.09C220.99 660.35 230.70 709.25 237.42 758.23C227.37 750.88 219.22 741.23 213.65 730.08C215.87 743.10 224.98 753.89 237.45 758.26C280.73 781.45 329.77 763.60 374.34 777.58C437.72 761.11 503.23 785.51 566.55 767.89L566.61 767.85L599.07 714.36C612.77 707.20 622.00 693.69 623.68 678.32C618.48 692.13 610.04 704.49 599.07 714.36C600.74 675.51 599.07 636.14 605.01 597.96C611.41 557.00 630.72 529.73 675.64 565.41L675.69 565.41L675.62 565.46C714.45 601.24 701.73 637.48 677.46 673.82C701.15 856.21 694.46 869.45 516.83 854.67C513.44 854.53 510.04 854.25 506.63 853.80L498.94 853.15C492.71 851.95 486.67 849.87 481.02 846.96C341.91 868.01 202.72 828.17 63.44 846.68C49.47 848.54 38.30 837.01 31.24 824.12C9.21 793.87 16.92 778.22 54.35 777.17L87.89 778.40C95.23 776.26 102.21 773.03 108.59 768.83C102.07 772.78 95.12 775.99 87.89 778.40C114.99 762.87 129.10 741.79 123.40 708.55C118.61 688.14 122.85 666.66 135.04 649.60C135.13 515.39 135.23 381.17 135.33 246.94C114.76 216.80 122.19 186.89 134.34 155.88C149.94 115.97 134.01 95.10 91.83 92.27C77.74 92.45 63.70 90.47 50.21 86.39C36.83 80.54 28.50 66.97 29.35 52.38C27.94 33.84 41.40 17.48 59.87 15.29C73.87 13.23 88.10 13.11 102.13 14.92C258.12 30.34 414.37 29.61 570.77 24.31C602.76 23.94 634.70 27.00 666.04 33.44C692.72 38.36 714.22 57.92 710.86 85.11C701.40 169.56 697.20 254.52 698.27 339.49ZM667.80 687.04C668.92 685.41 670.14 683.86 671.47 682.40C673.26 680.29 674.83 678.00 676.18 675.57L676.18 675.07C672.87 678.67 670.05 682.70 667.80 687.04Z"  horiz-adv-x="760" vert-adv-y="1000"  />

      
      <glyph glyph-name="unicb" unicode="&#xcb;" d="M698.27 339.49C698.32 361.91 680.10 377.66 654.99 377.20C629.02 376.72 616.52 358.84 614.90 336.29C611.87 294.12 600.86 253.17 605.92 209.54C613.85 141.20 603.00 125.30 540.18 113.52C459.34 98.34 377.31 103.41 295.96 112.84C263.18 116.64 245.53 137.85 245.95 171.02C246.83 241.89 249.81 312.56 244.90 383.64C241.70 429.74 278.10 440.65 317.40 441.69C355.64 442.71 390.26 439.08 392.55 389.20C394.32 350.61 388.52 309.79 425.01 281.69C443.24 267.65 463.66 260.50 483.15 276.11C503.95 292.78 498.30 313.09 483.98 331.98C480.28 410.32 508.92 486.90 497.48 565.45C492.68 598.40 479.71 629.08 440.82 633.13C401.02 637.28 396.22 607.54 392.54 577.76C391.69 569.98 389.80 562.35 386.91 555.07C380.01 545.71 371.94 537.27 362.88 529.97C343.25 521.80 317.28 526.44 294.18 528.29C240.40 532.60 214.99 560.05 218.05 611.09C220.99 660.35 230.70 709.25 237.42 758.23C227.37 750.88 219.22 741.23 213.65 730.08C215.87 743.10 224.98 753.89 237.45 758.26C280.73 781.45 329.77 763.60 374.34 777.58C437.72 761.11 503.23 785.51 566.55 767.89L566.61 767.85L599.07 714.36C612.77 707.20 622.00 693.69 623.68 678.32C618.48 692.13 610.04 704.49 599.07 714.36C600.74 675.51 599.07 636.14 605.01 597.96C611.41 557.00 630.72 529.73 675.64 565.41L675.69 565.41L675.62 565.46C714.45 601.24 701.73 637.48 677.46 673.82C701.15 856.21 694.46 869.45 516.83 854.67C513.44 854.53 510.04 854.25 506.63 853.80L498.94 853.15C492.71 851.95 486.67 849.87 481.02 846.96C341.91 868.01 202.72 828.17 63.44 846.68C49.47 848.54 38.30 837.01 31.24 824.12C9.21 793.87 16.92 778.22 54.35 777.17L87.89 778.40C95.23 776.26 102.21 773.03 108.59 768.83C102.07 772.78 95.12 775.99 87.89 778.40C114.99 762.87 129.10 741.79 123.40 708.55C118.61 688.14 122.85 666.66 135.04 649.60C135.13 515.39 135.23 381.17 135.33 246.94C114.76 216.80 122.19 186.89 134.34 155.88C149.94 115.97 134.01 95.10 91.83 92.27C77.74 92.45 63.70 90.47 50.21 86.39C36.83 80.54 28.50 66.97 29.35 52.38C27.94 33.84 41.40 17.48 59.87 15.29C73.87 13.23 88.10 13.11 102.13 14.92C258.12 30.34 414.37 29.61 570.77 24.31C602.76 23.94 634.70 27.00 666.04 33.44C692.72 38.36 714.22 57.92 710.86 85.11C701.40 169.56 697.20 254.52 698.27 339.49ZM667.80 687.04C668.92 685.41 670.14 683.86 671.47 682.40C673.26 680.29 674.83 678.00 676.18 675.57L676.18 675.07C672.87 678.67 670.05 682.70 667.80 687.04Z"  horiz-adv-x="760" vert-adv-y="1000"  />

      
      <glyph glyph-name="uni46" unicode="&#x46;" d="M594.87 858.03C470.44 856.09 346.01 857.55 221.58 857.55L221.58 854.01C171.92 857.98 122.31 862.68 72.59 865.60C48.73 867.00 17.55 873.40 14.17 838.09C11.85 813.56 34.01 800.88 56.57 798.72C130.97 791.58 146.51 745.85 145.64 679.75C143.67 530.39 147.18 380.97 147.41 231.58C147.52 142.96 146.71 142.51 59.97 116.54C41.21 110.93 25.27 101.82 23.29 82.98C20.52 56.75 41.53 46.72 62.89 40.73C73.27 38.12 83.99 37.06 94.68 37.58C176.56 39.69 258.45 41.79 340.28 45.03C361.26 45.85 386.27 47.51 390.03 74.53C394.59 107.19 369.94 113.82 343.98 120.44C264.73 140.65 239.93 168.98 247.15 240.86C251.73 286.31 266.02 329.83 255.84 377.25C250.03 404.36 272.16 421.42 298.25 430.69C359.21 452.33 393.02 435.64 448.26 352.71C462.63 331.15 475.82 308.73 506.39 318.31C530.15 325.75 536.41 347.10 536.39 369.44C536.33 454.75 535.85 540.05 534.95 625.34C534.77 644.34 526.92 661.50 508.06 667.08C489.51 672.60 474.21 662.00 461.15 648.53C437.80 624.46 431.83 592.51 419.74 563.00C395.31 503.38 344.12 523.44 299.78 527.40C271.96 529.87 245.79 547.11 255.93 575.07C277.43 634.38 237.88 703.85 273.04 751.40C310.20 801.63 382.08 752.36 435.39 775.06C444.53 778.92 456.54 776.32 467.23 776.30C590.40 775.98 626.04 736.83 613.22 612.65C609.93 580.73 603.08 549.32 612.25 517.58C617.40 499.75 626.61 484.53 647.41 483.73C668.43 482.96 680.36 498.19 685.51 515.15C691.38 535.52 694.66 556.56 695.26 577.75C697.64 638.10 697.89 698.53 699.74 758.89C702.52 848.45 689.06 859.50 594.87 858.03Z"  horiz-adv-x="726" vert-adv-y="1000"  />

      
      <glyph glyph-name="uni47" unicode="&#x47;" d="M658.58 526.03C580.68 523.48 502.94 510.89 424.79 521.29C397.35 516.25 369.80 511.73 342.51 505.96C328.08 503.38 317.42 491.06 316.94 476.41C314.72 458.41 324.08 440.96 340.30 432.85C360.34 422.03 381.66 427.44 402.52 428.81C435.21 432.53 466.53 414.59 479.86 384.51C510.07 324.73 474.99 218.88 406.20 159.61C345.52 107.35 336.55 110.11 242.36 176.24C212.28 197.37 194.44 226.98 169.81 251.60C131.29 345.51 124.80 443.27 137.50 542.59C146.78 615.34 177.11 678.07 237.32 723.08C336.41 797.16 438.94 769.20 486.23 656.00C492.93 639.98 500.69 624.41 507.96 608.62L512.56 572.43C536.85 563.64 565.69 529.72 578.52 584.33L577.36 584.72C602.81 653.79 586.29 726.59 594.70 797.41C598.84 832.25 580.61 868.77 529.84 844.84C493.45 830.93 460.91 824.51 418.26 837.34C323.36 865.94 237.59 836.91 163.21 770.06C26.73 647.37 18.60 495.06 56.64 330.90C54.83 290.83 68.83 253.77 79.56 216.34C125.42 56.36 247.80-14.99 403.69 31.91C446.51 44.79 478.84 56.84 521.31 25.01C560.57-4.41 580.46 10.21 588.79 64.92C600.10 139.25 595.87 213.89 588.32 288.45C577.92 391.08 578.13 391.58 677.20 432.52C705.43 444.18 731.17 458.02 725.32 492.93C718.96 531.42 688.13 527.00 658.58 526.03Z"  horiz-adv-x="738" vert-adv-y="1000"  />

      
      <glyph glyph-name="uni48" unicode="&#x48;" d="M662.07 775.21C688.47 777.44 713.66 784.65 708.96 818.89C704.90 848.47 681.31 860.89 655.07 860.67C591.19 860.13 527.30 856.97 463.50 853.30C445.46 852.26 428.63 844.03 425.77 822.65C423.01 802.03 436.80 791.34 451.82 780.49C532.28 722.36 544.56 687.55 521.48 596.96C511.34 557.15 488.00 533.71 447.00 534.20C379.46 534.97 311.95 538.57 244.45 541.47C225.56 542.28 204.43 550.51 203.79 568.93C201.12 625.33 202.37 681.85 207.53 738.07C210.99 771.11 245.03 775.94 272.68 784.04C294.94 790.56 310.42 806.15 305.46 831.22C300.63 855.62 281.02 865.00 257.95 865.02C201.06 865.10 144.17 864.15 87.29 863.48C65.59 863.22 41.78 862.59 34.17 837.97C26.64 813.55 42.67 795.68 63.90 788.70C114.91 771.94 121.82 734.26 121.35 687.90C119.69 524.43 119.25 360.96 120.04 197.46C120.24 147.23 114.58 104.72 52.65 96.11C34.37 93.56 19.95 81.43 22.24 59.58C22.95 40.78 37.94 25.66 56.73 24.80C123.74 22.34 190.80 21.61 257.90 22.61C268.83 22.23 279.46 26.21 287.45 33.69C295.43 41.16 300.11 51.51 300.45 62.44C301.81 82.42 288.27 95.46 269.62 100.38C197.05 119.51 193.56 176.20 195.72 235.42C195.82 263.82 198.46 292.16 203.59 320.09C212.68 361.64 174.85 408.31 209.14 443.32C246.34 481.29 298.21 441.77 335.60 455.42C363.43 455.42 384.81 455.89 406.15 455.33C484.02 453.31 500.20 440.80 506.51 364.91C510.02 322.74 505.38 279.84 503.66 237.30C501.34 178.75 515.75 112.92 436.33 87.97C421.73 83.38 419.59 66.08 422.87 51.40C426.39 35.64 442.11 22.47 453.01 26.54C521.29 52.11 586.18 23.35 652.47 18.65C674.95 17.05 695.75 25.18 701.16 50.27C706.45 74.73 694.07 94.37 670.91 98.73C609.70 110.25 610.57 150.70 607.53 201.52C597.49 371.55 619.69 541.10 609.80 710.84C607.53 749.33 621.55 771.80 662.07 775.21Z"  horiz-adv-x="733" vert-adv-y="1000"  />

      
      <glyph glyph-name="uni49" unicode="&#x49;" d="M512.51 97.50C473.57 99.74 433.86 95.95 395.65 102.13C333.40 112.12 316.34 133.87 321.13 195.77C333.99 362.10 344.75 528.10 331.39 695.20C326.54 755.92 347.22 771.40 406.95 768.88C428.16 767.98 449.17 761.58 470.33 761.15C509.10 760.31 544.87 769.65 541.82 818.04C538.99 862.92 504.55 863.25 470.57 857.35C413.81 847.48 357.11 855.62 300.38 856.68C226.01 856.68 151.62 857.90 77.30 856.12C44.21 855.35 9.67 847.16 12.12 803.57C14.20 766.57 44.58 761.83 74.66 761.27C81.75 761.14 88.90 762.69 95.94 762.22C176.32 756.89 206.17 730.83 207.47 652.75C210.06 497.00 207.86 341.19 209.54 185.42C210.09 133.56 188.03 105.70 137.04 98.93C108.89 95.19 80.57 91.58 52.99 85.08C30.34 79.73 15.75 64.31 17.97 39.04C20.28 13.19 37.70 2.29 61.42 2.22C79.01 2.18 96.58 6.86 114.24 7.63C227.60 12.50 341.18 26.28 453.92 0.61C478.21-6.00 504.08-3.40 526.57 7.91C546.88 18.69 559.63 35.23 556.26 59.29C552.85 83.73 535.94 96.14 512.51 97.50Z"  horiz-adv-x="569" vert-adv-y="1000"  />

      
      <glyph glyph-name="unicc" unicode="&#xcc;" d="M512.51 97.50C473.57 99.74 433.86 95.95 395.65 102.13C333.40 112.12 316.34 133.87 321.13 195.77C333.99 362.10 344.75 528.10 331.39 695.20C326.54 755.92 347.22 771.40 406.95 768.88C428.16 767.98 449.17 761.58 470.33 761.15C509.10 760.31 544.87 769.65 541.82 818.04C538.99 862.92 504.55 863.25 470.57 857.35C413.81 847.48 357.11 855.62 300.38 856.68C226.01 856.68 151.62 857.90 77.30 856.12C44.21 855.35 9.67 847.16 12.12 803.57C14.20 766.57 44.58 761.83 74.66 761.27C81.75 761.14 88.90 762.69 95.94 762.22C176.32 756.89 206.17 730.83 207.47 652.75C210.06 497.00 207.86 341.19 209.54 185.42C210.09 133.56 188.03 105.70 137.04 98.93C108.89 95.19 80.57 91.58 52.99 85.08C30.34 79.73 15.75 64.31 17.97 39.04C20.28 13.19 37.70 2.29 61.42 2.22C79.01 2.18 96.58 6.86 114.24 7.63C227.60 12.50 341.18 26.28 453.92 0.61C478.21-6.00 504.08-3.40 526.57 7.91C546.88 18.69 559.63 35.23 556.26 59.29C552.85 83.73 535.94 96.14 512.51 97.50Z"  horiz-adv-x="569" vert-adv-y="1000"  />

      
      <glyph glyph-name="unicd" unicode="&#xcd;" d="M512.51 97.50C473.57 99.74 433.86 95.95 395.65 102.13C333.40 112.12 316.34 133.87 321.13 195.77C333.99 362.10 344.75 528.10 331.39 695.20C326.54 755.92 347.22 771.40 406.95 768.88C428.16 767.98 449.17 761.58 470.33 761.15C509.10 760.31 544.87 769.65 541.82 818.04C538.99 862.92 504.55 863.25 470.57 857.35C413.81 847.48 357.11 855.62 300.38 856.68C226.01 856.68 151.62 857.90 77.30 856.12C44.21 855.35 9.67 847.16 12.12 803.57C14.20 766.57 44.58 761.83 74.66 761.27C81.75 761.14 88.90 762.69 95.94 762.22C176.32 756.89 206.17 730.83 207.47 652.75C210.06 497.00 207.86 341.19 209.54 185.42C210.09 133.56 188.03 105.70 137.04 98.93C108.89 95.19 80.57 91.58 52.99 85.08C30.34 79.73 15.75 64.31 17.97 39.04C20.28 13.19 37.70 2.29 61.42 2.22C79.01 2.18 96.58 6.86 114.24 7.63C227.60 12.50 341.18 26.28 453.92 0.61C478.21-6.00 504.08-3.40 526.57 7.91C546.88 18.69 559.63 35.23 556.26 59.29C552.85 83.73 535.94 96.14 512.51 97.50Z"  horiz-adv-x="569" vert-adv-y="1000"  />

      
      <glyph glyph-name="unice" unicode="&#xce;" d="M512.51 97.50C473.57 99.74 433.86 95.95 395.65 102.13C333.40 112.12 316.34 133.87 321.13 195.77C333.99 362.10 344.75 528.10 331.39 695.20C326.54 755.92 347.22 771.40 406.95 768.88C428.16 767.98 449.17 761.58 470.33 761.15C509.10 760.31 544.87 769.65 541.82 818.04C538.99 862.92 504.55 863.25 470.57 857.35C413.81 847.48 357.11 855.62 300.38 856.68C226.01 856.68 151.62 857.90 77.30 856.12C44.21 855.35 9.67 847.16 12.12 803.57C14.20 766.57 44.58 761.83 74.66 761.27C81.75 761.14 88.90 762.69 95.94 762.22C176.32 756.89 206.17 730.83 207.47 652.75C210.06 497.00 207.86 341.19 209.54 185.42C210.09 133.56 188.03 105.70 137.04 98.93C108.89 95.19 80.57 91.58 52.99 85.08C30.34 79.73 15.75 64.31 17.97 39.04C20.28 13.19 37.70 2.29 61.42 2.22C79.01 2.18 96.58 6.86 114.24 7.63C227.60 12.50 341.18 26.28 453.92 0.61C478.21-6.00 504.08-3.40 526.57 7.91C546.88 18.69 559.63 35.23 556.26 59.29C552.85 83.73 535.94 96.14 512.51 97.50Z"  horiz-adv-x="569" vert-adv-y="1000"  />

      
      <glyph glyph-name="unicf" unicode="&#xcf;" d="M512.51 97.50C473.57 99.74 433.86 95.95 395.65 102.13C333.40 112.12 316.34 133.87 321.13 195.77C333.99 362.10 344.75 528.10 331.39 695.20C326.54 755.92 347.22 771.40 406.95 768.88C428.16 767.98 449.17 761.58 470.33 761.15C509.10 760.31 544.87 769.65 541.82 818.04C538.99 862.92 504.55 863.25 470.57 857.35C413.81 847.48 357.11 855.62 300.38 856.68C226.01 856.68 151.62 857.90 77.30 856.12C44.21 855.35 9.67 847.16 12.12 803.57C14.20 766.57 44.58 761.83 74.66 761.27C81.75 761.14 88.90 762.69 95.94 762.22C176.32 756.89 206.17 730.83 207.47 652.75C210.06 497.00 207.86 341.19 209.54 185.42C210.09 133.56 188.03 105.70 137.04 98.93C108.89 95.19 80.57 91.58 52.99 85.08C30.34 79.73 15.75 64.31 17.97 39.04C20.28 13.19 37.70 2.29 61.42 2.22C79.01 2.18 96.58 6.86 114.24 7.63C227.60 12.50 341.18 26.28 453.92 0.61C478.21-6.00 504.08-3.40 526.57 7.91C546.88 18.69 559.63 35.23 556.26 59.29C552.85 83.73 535.94 96.14 512.51 97.50Z"  horiz-adv-x="569" vert-adv-y="1000"  />

      
      <glyph glyph-name="uni4a" unicode="&#x4a;" d="M545.96 858.41C462.25 842.95 378.25 851.69 294.34 852.00C243.21 852.19 202.98 827.27 209.86 794.14C218.79 751.26 255.29 760.20 286.90 759.18C372.63 756.42 380.29 746.61 373.46 655.93C366.30 560.63 358.78 465.36 352.29 380.97C355.32 305.46 349.40 241.86 329.25 180.29C304.15 103.58 253.59 82.36 180.81 116.61C123.62 143.51 117.28 160.26 157.38 215.67C185.25 254.19 176.44 282.36 144.53 307.03C113.17 331.29 78.84 333.37 47.86 303.75C29.94 286.13 18.33 263.09 14.82 238.20C1.16 157.82 66.47 36.13 137.58 9.49C232.00-25.88 372.72 7.81 417.06 81.84C446.03 130.23 467.57 184.37 469.82 241.89C474.94 372.92 477.75 504.06 480.10 635.17C481.76 727.53 480.23 728.88 569.48 762.56C600.39 774.24 620.86 789.69 613.53 823.75C605.81 860.04 575.07 863.77 545.96 858.41Z"  horiz-adv-x="619" vert-adv-y="1000"  />

      
      <glyph glyph-name="uni4b" unicode="&#x4b;" d="M293.37 365.88C357.57 422.69 365.58 422.93 414.51 352.74C440.84 314.97 459.93 272.22 485.39 233.76C517.02 185.96 522.98 148.81 471.62 105.39C426.64 67.39 439.43 39.39 496.35 30.09C580.71 16.28 665.43 43.60 750.27 27.20C772.55 22.90 789.56 42.65 792.01 66.75C795.10 97.33 777.94 117.55 748.85 113.86C682.33 105.40 656.34 151.62 622.87 194.09C547.24 289.99 512.85 408.94 442.33 507.61C418.75 540.58 441.46 566.95 463.83 591.97C508.85 642.31 553.68 692.90 596.57 745.04C615.67 768.27 635.21 785.23 666.97 786.44C697.11 787.56 728.90 796.23 725.39 833.14C721.24 876.76 681.26 874.10 650.50 873.32C586.59 871.69 522.74 866.51 458.93 861.82C406.31 857.95 393.24 836.74 430.56 796.83C473.70 750.66 457.36 713.84 432.38 673.00C392.82 608.31 326.66 568.37 278.45 511.13C254.23 482.37 206.96 501.72 211.51 538.44C218.07 601.65 221.26 665.17 221.06 728.72C221.38 747.94 235.25 760.65 251.30 769.78C266.76 778.56 283.10 785.84 298.26 795.09C317.50 806.84 332.21 822.04 321.74 847.07C313.41 866.95 294.52 870.54 277.03 867.32C216.81 856.24 156.22 863.86 95.92 860.91C78.28 859.33 60.93 855.36 44.36 849.11C30.64 844.47 19.31 834.93 19.01 818.62C18.71 802.72 28.10 788.23 42.35 787.83C128.96 785.37 129.08 723.75 135.62 661.56C140.49 615.40 146.62 571.86 131.33 525.34C116.07 481.15 114.52 433.39 126.87 388.30C146.78 323.63 132.06 261.27 129.28 198.28C127.25 152.56 121.59 104.06 60.49 92.75C41.98 89.09 29.76 71.33 32.96 52.73C35.50 26.26 56.01 17.86 78.31 17.79C113.86 17.69 149.41 20.80 184.92 22.54L185.06 26.41C220.45 23.88 255.81 20.63 291.25 19.13C310.37 18.32 327.45 26.70 332.75 45.75C338.15 63.77 328.68 82.89 311.07 89.50C277.07 104.12 250.60 123.42 236.59 160.33C204.53 244.66 218.55 299.66 293.37 365.88Z"  horiz-adv-x="798" vert-adv-y="1000"  />

      
      <glyph glyph-name="uni4c" unicode="&#x4c;" d="M747.45 339.56C750.84 379.93 736.83 411.62 691.68 414.65C641.16 418.03 635.71 381.76 636.19 343.30C636.77 297.07 638.73 250.82 638.08 204.61C637.59 170.23 626.11 133.16 586.58 137.26C518.57 144.32 453.16 120.44 384.95 131.01C286.94 146.22 268.00 152.36 275.70 248.11C285.92 375.21 253.24 501.21 276.47 628.00C283.94 668.69 255.00 715.81 278.31 753.11C307.89 800.43 363.44 772.55 406.83 781.62C429.54 786.38 447.02 797.17 447.79 822.65C448.57 847.88 432.61 861.21 409.85 866.41C399.42 868.71 388.67 869.16 378.09 867.74C272.07 853.39 166.03 844.18 58.95 856.49C36.85 859.03 14.27 850.50 10.60 824.80C6.09 793.29 27.60 783.34 55.13 777.31C145.18 757.60 167.19 739.57 170.44 658.79C176.36 510.50 176.21 361.96 177.35 213.51C177.81 154.77 163.53 107.30 88.97 107.72C54.63 107.92 37.28 82.39 39.78 50.34C43.02 8.96 75.30 16.54 104.33 16.90C200.07 18.11 295.83 17.36 428.56 17.36C494.57 15.13 597.58 28.58 700.70 15.04C739.62 9.94 763.24 34.86 756.54 73.98C742.21 161.75 739.15 251.00 747.45 339.56Z"  horiz-adv-x="782" vert-adv-y="1000"  />

      
      <glyph glyph-name="uni4d" unicode="&#x4d;" d="M803.62 103.47C738.28 113.06 730.79 157.34 728.45 211.93C721.74 367.91 717.80 523.47 728.79 679.67C732.72 735.71 728.27 785.71 791.54 810.99C800.00 814.42 806.62 821.26 809.75 829.84C812.88 838.41 812.23 847.91 807.97 855.98C799.35 874.60 782.24 879.84 763.61 878.54C728.16 876.07 692.85 870.29 657.40 869.33C553.29 866.53 555.20 866.74 532.19 769.34C500.51 634.98 465.22 501.46 432.25 367.39C427.93 349.82 426.57 329.22 404.43 329.15C382.85 329.06 375.29 347.11 376.79 366.69C386.22 490.65 341.66 604.60 305.86 718.71C257.60 872.56 253.05 871.13 94.80 870.19C91.24 870.19 87.67 870.62 84.13 870.46C66.54 869.64 46.90 870.78 38.57 851.19C27.48 825.04 44.76 810.39 65.62 802.67C111.17 785.77 134.65 757.91 130.94 706.37C118.94 539.80 115.17 372.92 117.34 205.90C117.96 157.48 110.81 113.09 53.61 96.75C31.86 90.57 14.87 75.41 23.12 49.42C30.52 26.11 51.72 18.33 73.78 17.47C134.28 15.13 194.82 13.69 255.40 13.15C281.08 12.89 307.18 16.51 312.10 48.70C315.88 73.44 300.01 88.68 279.45 97.98C240.46 115.63 219.17 140.59 218.80 187.67C218.03 294.23 210.80 400.72 207.70 507.28C206.93 534.49 198.76 564.77 232.54 593.61C262.53 573.78 268.09 545.89 274.94 518.37C306.71 391.07 338.68 263.83 370.87 136.63C376.07 116.02 379.43 94.25 388.70 75.51C404.28 44.03 437.24 42.94 455.28 73.02C463.99 88.39 469.54 105.34 471.61 122.89C484.48 220.94 529.94 311.26 533.26 412.62C535.19 471.59 559.74 530.03 576.02 588.18C580.74 605.01 591.69 621.58 614.49 614.94C631.08 610.11 633.22 594.38 632.92 580.70C631.10 498.96 633.82 416.80 617.92 336.04C610.96 300.83 602.59 266.13 615.52 230.98C637.16 172.25 629.88 126.35 563.47 102.93C542.45 95.51 525.65 81.50 531.71 55.24C535.37 36.93 550.87 23.36 569.50 22.13C643.44 20.23 717.52 20.02 791.42 22.78C814.03 24.23 832.01 42.32 833.31 64.94C835.73 83.77 822.45 101.01 803.62 103.47Z"  horiz-adv-x="853" vert-adv-y="1000"  />

      
      <glyph glyph-name="uni4e" unicode="&#x4e;" d="M679.52 863.73C622.70 862.01 565.91 859.10 509.13 856.29C486.40 855.18 466.25 847.58 460.44 823.26C454.37 797.85 470.18 780.75 491.88 775.27C564.89 756.94 569.59 701.70 568.73 641.91C568.18 602.78 568.62 563.65 568.62 524.52L569.75 524.52C569.75 474.72 570.29 424.92 569.50 375.13C569.15 353.81 567.57 330.15 538.86 328.06C518.46 326.58 505.99 341.90 499.72 358.90C452.94 485.65 374.68 596.39 317.99 718.28C253.13 857.78 218.00 871.71 65.80 847.35C48.44 844.57 28.63 845.76 20.97 825.98C11.33 800.98 26.54 783.64 46.48 774.57C112.57 744.54 124.01 689.68 124.03 624.77C124.03 503.94 132.53 382.97 128.50 262.35C126.41 199.30 144.09 125.99 67.07 81.91C37.83 65.17 51.19 24.88 87.86 22.13C165.55 16.30 243.83 17.36 321.85 17.80C340.66 17.91 352.93 33.38 357.08 52.39C362.85 73.81 353.26 96.40 333.84 107.11C321.21 113.60 307.22 116.98 293.02 116.96C231.26 119.48 218.95 155.33 219.66 210.17C221.21 327.13 217.51 444.17 215.25 561.17C214.79 585.12 201.48 615.27 233.33 625.45C261.84 634.60 280.05 611.01 289.30 587.51C340.31 457.85 430.41 348.95 482.91 219.82C505.54 164.18 538.55 112.58 568.13 59.84C582.66 33.95 603.49 11.58 636.43 20.07C677.74 30.73 672.69 65.58 671.86 98.26C666.69 300.61 663.35 503.02 656.68 705.31C655.46 742.21 657.75 767.74 700.10 774.99C727.87 779.74 746.60 796.08 737.83 827.15C729.95 855.32 706.32 864.54 679.52 863.73Z"  horiz-adv-x="766" vert-adv-y="1000"  />

      
      <glyph glyph-name="unid1" unicode="&#xd1;" d="M679.52 863.73C622.70 862.01 565.91 859.10 509.13 856.29C486.40 855.18 466.25 847.58 460.44 823.26C454.37 797.85 470.18 780.75 491.88 775.27C564.89 756.94 569.59 701.70 568.73 641.91C568.18 602.78 568.62 563.65 568.62 524.52L569.75 524.52C569.75 474.72 570.29 424.92 569.50 375.13C569.15 353.81 567.57 330.15 538.86 328.06C518.46 326.58 505.99 341.90 499.72 358.90C452.94 485.65 374.68 596.39 317.99 718.28C253.13 857.78 218.00 871.71 65.80 847.35C48.44 844.57 28.63 845.76 20.97 825.98C11.33 800.98 26.54 783.64 46.48 774.57C112.57 744.54 124.01 689.68 124.03 624.77C124.03 503.94 132.53 382.97 128.50 262.35C126.41 199.30 144.09 125.99 67.07 81.91C37.83 65.17 51.19 24.88 87.86 22.13C165.55 16.30 243.83 17.36 321.85 17.80C340.66 17.91 352.93 33.38 357.08 52.39C362.85 73.81 353.26 96.40 333.84 107.11C321.21 113.60 307.22 116.98 293.02 116.96C231.26 119.48 218.95 155.33 219.66 210.17C221.21 327.13 217.51 444.17 215.25 561.17C214.79 585.12 201.48 615.27 233.33 625.45C261.84 634.60 280.05 611.01 289.30 587.51C340.31 457.85 430.41 348.95 482.91 219.82C505.54 164.18 538.55 112.58 568.13 59.84C582.66 33.95 603.49 11.58 636.43 20.07C677.74 30.73 672.69 65.58 671.86 98.26C666.69 300.61 663.35 503.02 656.68 705.31C655.46 742.21 657.75 767.74 700.10 774.99C727.87 779.74 746.60 796.08 737.83 827.15C729.95 855.32 706.32 864.54 679.52 863.73Z"  horiz-adv-x="766" vert-adv-y="1000"  />

      
      <glyph glyph-name="uni4f" unicode="&#x4f;" d="M380.25 879.10C237.85 871.01 140.52 806.65 80.91 676.86C22.68 550.04 38.95 418.58 55.13 289.54C65.25 208.85 108.55 132.57 167.48 74.90C236.76 7.09 319.73-21.39 421.22 12.44C530.19 48.77 629.43 93.98 663.48 212.67C689.08 297.83 702.56 386.16 703.55 475.07C706.92 557.09 688.42 638.53 649.95 711.05C591.90 822.13 512.77 886.63 380.25 879.10ZM590.73 360.55C580.40 294.70 566.89 228.73 519.75 174.24C433.68 74.75 282.36 54.01 201.60 196.12C156.00 276.40 140.86 361.42 147.16 469.86C126.10 564.62 180.34 650.23 248.09 731.45C311.51 807.48 419.47 810.71 489.65 736.23C590.40 629.32 612.52 499.48 590.73 360.55Z"  horiz-adv-x="744" vert-adv-y="1000"  />

      
      <glyph glyph-name="unid2" unicode="&#xd2;" d="M380.25 879.10C237.85 871.01 140.52 806.65 80.91 676.86C22.68 550.04 38.95 418.58 55.13 289.54C65.25 208.85 108.55 132.57 167.48 74.90C236.76 7.09 319.73-21.39 421.22 12.44C530.19 48.77 629.43 93.98 663.48 212.67C689.08 297.83 702.56 386.16 703.55 475.07C706.92 557.09 688.42 638.53 649.95 711.05C591.90 822.13 512.77 886.63 380.25 879.10ZM590.73 360.55C580.40 294.70 566.89 228.73 519.75 174.24C433.68 74.75 282.36 54.01 201.60 196.12C156.00 276.40 140.86 361.42 147.16 469.86C126.10 564.62 180.34 650.23 248.09 731.45C311.51 807.48 419.47 810.71 489.65 736.23C590.40 629.32 612.52 499.48 590.73 360.55Z"  horiz-adv-x="744" vert-adv-y="1000"  />

      
      <glyph glyph-name="unid3" unicode="&#xd3;" d="M380.25 879.10C237.85 871.01 140.52 806.65 80.91 676.86C22.68 550.04 38.95 418.58 55.13 289.54C65.25 208.85 108.55 132.57 167.48 74.90C236.76 7.09 319.73-21.39 421.22 12.44C530.19 48.77 629.43 93.98 663.48 212.67C689.08 297.83 702.56 386.16 703.55 475.07C706.92 557.09 688.42 638.53 649.95 711.05C591.90 822.13 512.77 886.63 380.25 879.10ZM590.73 360.55C580.40 294.70 566.89 228.73 519.75 174.24C433.68 74.75 282.36 54.01 201.60 196.12C156.00 276.40 140.86 361.42 147.16 469.86C126.10 564.62 180.34 650.23 248.09 731.45C311.51 807.48 419.47 810.71 489.65 736.23C590.40 629.32 612.52 499.48 590.73 360.55Z"  horiz-adv-x="744" vert-adv-y="1000"  />

      
      <glyph glyph-name="unid4" unicode="&#xd4;" d="M380.25 879.10C237.85 871.01 140.52 806.65 80.91 676.86C22.68 550.04 38.95 418.58 55.13 289.54C65.25 208.85 108.55 132.57 167.48 74.90C236.76 7.09 319.73-21.39 421.22 12.44C530.19 48.77 629.43 93.98 663.48 212.67C689.08 297.83 702.56 386.16 703.55 475.07C706.92 557.09 688.42 638.53 649.95 711.05C591.90 822.13 512.77 886.63 380.25 879.10ZM590.73 360.55C580.40 294.70 566.89 228.73 519.75 174.24C433.68 74.75 282.36 54.01 201.60 196.12C156.00 276.40 140.86 361.42 147.16 469.86C126.10 564.62 180.34 650.23 248.09 731.45C311.51 807.48 419.47 810.71 489.65 736.23C590.40 629.32 612.52 499.48 590.73 360.55Z"  horiz-adv-x="744" vert-adv-y="1000"  />

      
      <glyph glyph-name="unid5" unicode="&#xd5;" d="M380.25 879.10C237.85 871.01 140.52 806.65 80.91 676.86C22.68 550.04 38.95 418.58 55.13 289.54C65.25 208.85 108.55 132.57 167.48 74.90C236.76 7.09 319.73-21.39 421.22 12.44C530.19 48.77 629.43 93.98 663.48 212.67C689.08 297.83 702.56 386.16 703.55 475.07C706.92 557.09 688.42 638.53 649.95 711.05C591.90 822.13 512.77 886.63 380.25 879.10ZM590.73 360.55C580.40 294.70 566.89 228.73 519.75 174.24C433.68 74.75 282.36 54.01 201.60 196.12C156.00 276.40 140.86 361.42 147.16 469.86C126.10 564.62 180.34 650.23 248.09 731.45C311.51 807.48 419.47 810.71 489.65 736.23C590.40 629.32 612.52 499.48 590.73 360.55Z"  horiz-adv-x="744" vert-adv-y="1000"  />

      
      <glyph glyph-name="unid6" unicode="&#xd6;" d="M380.25 879.10C237.85 871.01 140.52 806.65 80.91 676.86C22.68 550.04 38.95 418.58 55.13 289.54C65.25 208.85 108.55 132.57 167.48 74.90C236.76 7.09 319.73-21.39 421.22 12.44C530.19 48.77 629.43 93.98 663.48 212.67C689.08 297.83 702.56 386.16 703.55 475.07C706.92 557.09 688.42 638.53 649.95 711.05C591.90 822.13 512.77 886.63 380.25 879.10ZM590.73 360.55C580.40 294.70 566.89 228.73 519.75 174.24C433.68 74.75 282.36 54.01 201.60 196.12C156.00 276.40 140.86 361.42 147.16 469.86C126.10 564.62 180.34 650.23 248.09 731.45C311.51 807.48 419.47 810.71 489.65 736.23C590.40 629.32 612.52 499.48 590.73 360.55Z"  horiz-adv-x="744" vert-adv-y="1000"  />

      
      <glyph glyph-name="unid8" unicode="&#xd8;" d="M380.25 879.10C237.85 871.01 140.52 806.65 80.91 676.86C22.68 550.04 38.95 418.58 55.13 289.54C65.25 208.85 108.55 132.57 167.48 74.90C236.76 7.09 319.73-21.39 421.22 12.44C530.19 48.77 629.43 93.98 663.48 212.67C689.08 297.83 702.56 386.16 703.55 475.07C706.92 557.09 688.42 638.53 649.95 711.05C591.90 822.13 512.77 886.63 380.25 879.10ZM590.73 360.55C580.40 294.70 566.89 228.73 519.75 174.24C433.68 74.75 282.36 54.01 201.60 196.12C156.00 276.40 140.86 361.42 147.16 469.86C126.10 564.62 180.34 650.23 248.09 731.45C311.51 807.48 419.47 810.71 489.65 736.23C590.40 629.32 612.52 499.48 590.73 360.55Z"  horiz-adv-x="744" vert-adv-y="1000"  />

      
      <glyph glyph-name="uni50" unicode="&#x50;" d="M482.15 861.25C457.32 863.41 432.37 863.80 407.48 862.41C312.13 858.64 217.10 836.75 121.24 862.24C102.02 867.35 78.44 861.55 58.20 855.98C33.76 849.25 9.59 836.62 16.07 804.71C21.31 778.84 44.19 773.70 66.13 775.72C134.08 781.96 148.33 746.44 151.78 685.73C160.82 526.04 141.03 366.78 149.78 207.37C153.29 143.44 134.09 95.76 67.00 76.76C39.95 69.10 21.97 51.33 31.04 21.72C39.62-6.34 65.17-14.60 91.32-10.11C130.44-3.43 169.21-4.24 208.29-4.35C229.61-4.35 250.96-3.71 272.25-4.53C293.55-5.35 314.92-9.94 336.03-8.76C371.86-6.81 397.61 12.30 402.18 48.69C406.32 81.74 385.10 101.09 355.03 110.59C322.40 120.87 279.63 106.58 258.72 144.52C238.63 181.02 254.58 221.46 253.49 260.11C252.89 281.41 254.33 302.77 254.32 324.11C254.32 420.97 272.58 440.81 371.23 443.28C417.41 444.42 463.72 439.01 509.24 451.65C607.61 478.98 686.88 572.59 682.05 656.30C674.55 785.78 614.89 847.46 482.15 861.25ZM483.43 562.74C427.78 557.15 371.20 564.65 315.77 549.46C305.57 546.67 288.92 556.95 279.02 565.52C252.75 588.30 239.12 718.88 258.66 746.96C271.95 766.06 292.66 771.64 313.97 772.74C342.07 774.20 370.31 773.10 377.35 773.10C426.69 770.63 455.15 771.32 482.95 767.41C546.49 758.47 576.91 722.45 575.89 661.10C575.56 609.17 535.24 566.28 483.43 562.74Z"  horiz-adv-x="698" vert-adv-y="1000"  />

      
      <glyph glyph-name="uni51" unicode="&#x51;" d="M647.02 88.07C596.86 91.20 595.70 50.85 593.40 14.79C593.18 11.24 593.33 7.64 592.78 4.15C589.68-15.32 578.86-29.65 559.19-31.29C540.52-32.83 525.00-22.01 514.37-6.85C493.43 22.96 495.22 53.70 516.24 82.22C533.20 105.06 551.49 126.89 571.00 147.58C722.16 308.99 704.46 618.26 550.96 783.60C463.82 877.47 263.61 889.78 173.26 797.60C90.05 712.69 26.67 614.96 39.62 475.38C20.79 390.15 63.73 303.29 93.36 218.40C125.40 126.63 190.47 47.31 297.15 36.25C364.97 29.24 407.61 8.70 435.32-55.89C452.93-96.94 485.52-138.28 541.14-130.86C602.73-124.33 656.92-87.28 685.36-32.25C704.12 3.04 677.24 86.17 647.02 88.07ZM330.64 110.23C294.37 111.19 273.11 133.12 269.63 168.44C266.90 196.22 280.11 216.79 310.60 215.70C346.59 214.40 366.30 192.18 372.83 158.95C372.59 129.36 360.81 109.44 330.62 110.23ZM451.59 237.17C355.41 337.09 355.26 337.44 217.41 278.79C175.38 260.90 153.45 283.53 148.51 318.34C142.58 360.17 147.10 403.47 147.10 458.91C126.19 536.65 156.38 615.10 207.01 687.33C268.07 774.34 386.80 785.90 469.13 718.61C585.72 623.31 618.43 377.90 541.98 244.32C514.89 197.01 491.15 196.06 451.59 237.17Z"  horiz-adv-x="728" vert-adv-y="1000"  />

      
      <glyph glyph-name="uni52" unicode="&#x52;" d="M538.67 34.07C592.68-6.45 662.59-2.79 690.05 44.95C719.01 95.32 723.46 153.15 722.06 210.30C720.96 228.98 706.60 244.16 688.01 246.28C669.92 250.61 651.38 241.01 644.49 223.73C639.71 210.41 635.92 196.77 633.13 182.90C629.27 169.29 625.81 154.20 608.16 152.85C585.65 151.12 576.47 168.43 573.20 185.39C567.97 213.25 564.96 241.48 564.20 269.81C563.23 298.18 567.15 326.65 553.34 353.47C540.61 378.20 509.57 393.95 513.23 426.16C517.43 463.13 553.66 472.86 576.51 494.12C624.09 538.38 667.90 581.03 644.26 659.13C619.30 741.58 576.03 807.60 489.84 817.00C352.07 832.02 212.77 833.31 74.04 839.02C48.35 840.08 22.01 832.19 18.40 801.02C14.46 767.20 40.45 760.23 66.52 758.03C118.34 753.66 130.56 722.64 126.03 676.73C124.44 651.88 124.41 626.96 125.93 602.11C129.40 475.13 135.08 348.17 135.85 221.18C136.16 171.40 128.49 120.67 72.30 96.20C51.80 87.29 34.56 70.46 42.33 46.23C51.55 17.49 79.43 13.77 104.37 16.61C164.73 23.52 224.34 29.29 284.76 14.92C310.18 8.87 338.08 15.82 346.35 44.22C357.82 83.54 327.27 92.37 297.88 97.66C240.03 108.08 223.46 146.15 228.18 198.90C230.07 220.03 232.87 241.11 237.40 281.07C236.97 289.13 237.06 297.20 237.67 305.25C240.55 342.73 225.71 390.33 273.03 407.99C322.49 426.46 370.61 416.97 410.94 377.45C450.94 338.26 475.23 297.37 469.25 236.42C461.86 161.07 470.21 85.43 538.67 34.07ZM462.37 529.90C403.07 497.64 339.38 503.46 276.11 504.33C257.56 504.58 238.39 514.25 234.42 531.69C221.62 589.66 224.23 649.97 241.99 706.62C255.74 750.67 308.11 752.77 352.09 750.85C359.14 750.55 366.21 750.85 373.27 750.85C411.79 750.08 451.56 756.65 484.87 728.94C556.39 669.40 545.08 574.90 462.37 529.90Z"  horiz-adv-x="747" vert-adv-y="1000"  />

      
      <glyph glyph-name="uni53" unicode="&#x53;" d="M393.37 500.73C321.97 532.83 253.24 570.60 187.86 613.67C152.09 637.69 145.78 664.80 169.17 703.72C217.76 784.58 315.13 805.15 387.41 743.18C416.73 718.03 438.70 684.44 465.02 655.65C486.99 631.59 513.35 623.34 538.90 648.69C564.45 674.04 566.85 815.16 543.65 842.38C519.32 870.92 490.71 878.03 460.03 852.61C435.84 832.57 414.23 828.65 382.74 842.01C255.27 896.11 135.26 848.41 72.61 727.43C46.81 677.61 48.65 634.81 75.70 587.01C118.76 511.05 186.95 468.14 264.23 437.66C324.58 413.87 381.47 385.39 428.22 340.28C480.27 290.05 488.13 233.40 455.85 165.04C426.89 103.69 394.80 89.30 317.25 92.97C255.12 95.94 207.86 117.91 177.37 173.96C165.54 195.87 150.92 216.16 133.86 234.30C114.99 254.15 90.01 256.26 65.12 243.90C43.40 233.08 35.69 213.69 37.18 190.96C38.81 166.18 42.39 141.53 44.70 120.63C43.53 102.50 42.22 88.32 41.76 74.12C40.38 31.49 33.37-15.88 81.18-38.17C121.78-57.10 146.74-23.73 170.89 2.05C195.79 28.66 217.41 21.04 245.68 4.25C359.29-63.21 535.45-13.36 593.17 104.14C629.49 178.14 625.33 255.52 590.37 330.51C550.26 416.59 475.63 462.85 393.37 500.73Z"  horiz-adv-x="651" vert-adv-y="1000"  />

      
      <glyph glyph-name="uni54" unicode="&#x54;" d="M115.99 516.85C119.80 544.88 118.45 573.57 120.96 601.86C124.42 640.69 127.38 679.75 134.28 718.04C141.45 757.86 174.37 763.48 207.86 764.85C240.11 766.16 263.14 753.73 270.24 720.02C276.81 688.82 288.88 657.42 288.25 626.29C285.23 477.60 279.20 328.97 272.98 180.35C271.82 152.74 278.57 121.66 256.85 98.91C236.03 77.08 209.71 94.40 185.87 93.94C161.61 93.46 144.85 81.97 139.39 58.34C132.77 29.75 146.85 10.03 171.85-1.41C184.66-7.64 198.58-11.29 212.81-12.14C301.73-14.33 390.71-16.17 479.65-16.05C519.64-15.99 550.32-0.91 544.98 47.33C539.88 93.32 505.67 124.44 458.42 111.85C404.84 97.56 398.50 120.40 393.36 162.96C381.36 262.32 386.56 361.74 384.96 461.20C384.96 535.77 383.52 610.36 385.40 684.90C386.94 746.62 423.58 773.95 483.40 763.05C530.62 754.46 546.83 721.58 549.87 679.07C553.62 622.22 548.36 565.15 534.27 509.95C526.19 477.29 541.23 452.11 576.78 450.44C608.33 448.98 631.65 465.82 636.36 499.34C637.02 513.47 636.17 527.64 633.81 541.60C627.93 616.01 627.92 690.77 633.76 765.19C640.53 853.97 632.31 862.08 540.90 859.99C516.04 859.43 491.22 856.78 466.41 854.86C356.94 847.63 247.09 848.39 137.73 857.13C54.54 862.83 40.65 853.69 32.13 768.35C24.08 687.74 59.02 607.37 28.21 525.92C18.12 499.24 44.26 481.30 72.74 479.32C98.49 477.47 112.86 493.84 115.99 516.85Z"  horiz-adv-x="670" vert-adv-y="1000"  />

      
      <glyph glyph-name="uni55" unicode="&#x55;" d="M657.77 634.19C657.77 688.68 654.44 725.30 706.99 757.66C745.72 781.51 732.89 829.90 688.55 832.80C614.35 837.67 539.39 833.58 464.89 830.80C443.30 829.99 421.61 818.29 419.82 793.17C417.98 767.60 437.30 754.45 459.94 752.16C520.62 746.03 550.96 708.36 551.84 653.24C554.23 504.37 563.27 355.02 532.62 207.24C525.35 168.43 501.43 134.76 467.17 115.13C353.47 44.52 220.82 107.20 215.16 245.88C210.52 359.50 195.98 471.90 191.12 585.17C187.84 661.64 182.22 737.35 284.50 758.57C305.71 762.97 315.76 786.89 310.70 810.71C305.70 834.17 288.07 851.81 266.26 849.24C199.16 841.35 131.79 846.30 65.05 841.24C21.24 837.90 7.27 789.57 44.36 766.89C94.54 736.21 95.56 698.60 91.20 649.28C86.23 592.92 90.05 535.79 90.05 479.00C91.37 372.27 93.65 265.75 113.24 160.44C127.61 83.19 199.17 2.25 264.25 1.23C334.85 0.11 407.40-5.83 476.34 15.32C554.05 39.16 619.28 78.45 637.36 167.49C668.72 321.96 657.76 478.70 657.77 634.19Z"  horiz-adv-x="753" vert-adv-y="1000"  />

      
      <glyph glyph-name="unid9" unicode="&#xd9;" d="M657.77 634.19C657.77 688.68 654.44 725.30 706.99 757.66C745.72 781.51 732.89 829.90 688.55 832.80C614.35 837.67 539.39 833.58 464.89 830.80C443.30 829.99 421.61 818.29 419.82 793.17C417.98 767.60 437.30 754.45 459.94 752.16C520.62 746.03 550.96 708.36 551.84 653.24C554.23 504.37 563.27 355.02 532.62 207.24C525.35 168.43 501.43 134.76 467.17 115.13C353.47 44.52 220.82 107.20 215.16 245.88C210.52 359.50 195.98 471.90 191.12 585.17C187.84 661.64 182.22 737.35 284.50 758.57C305.71 762.97 315.76 786.89 310.70 810.71C305.70 834.17 288.07 851.81 266.26 849.24C199.16 841.35 131.79 846.30 65.05 841.24C21.24 837.90 7.27 789.57 44.36 766.89C94.54 736.21 95.56 698.60 91.20 649.28C86.23 592.92 90.05 535.79 90.05 479.00C91.37 372.27 93.65 265.75 113.24 160.44C127.61 83.19 199.17 2.25 264.25 1.23C334.85 0.11 407.40-5.83 476.34 15.32C554.05 39.16 619.28 78.45 637.36 167.49C668.72 321.96 657.76 478.70 657.77 634.19Z"  horiz-adv-x="753" vert-adv-y="1000"  />

      
      <glyph glyph-name="unida" unicode="&#xda;" d="M657.77 634.19C657.77 688.68 654.44 725.30 706.99 757.66C745.72 781.51 732.89 829.90 688.55 832.80C614.35 837.67 539.39 833.58 464.89 830.80C443.30 829.99 421.61 818.29 419.82 793.17C417.98 767.60 437.30 754.45 459.94 752.16C520.62 746.03 550.96 708.36 551.84 653.24C554.23 504.37 563.27 355.02 532.62 207.24C525.35 168.43 501.43 134.76 467.17 115.13C353.47 44.52 220.82 107.20 215.16 245.88C210.52 359.50 195.98 471.90 191.12 585.17C187.84 661.64 182.22 737.35 284.50 758.57C305.71 762.97 315.76 786.89 310.70 810.71C305.70 834.17 288.07 851.81 266.26 849.24C199.16 841.35 131.79 846.30 65.05 841.24C21.24 837.90 7.27 789.57 44.36 766.89C94.54 736.21 95.56 698.60 91.20 649.28C86.23 592.92 90.05 535.79 90.05 479.00C91.37 372.27 93.65 265.75 113.24 160.44C127.61 83.19 199.17 2.25 264.25 1.23C334.85 0.11 407.40-5.83 476.34 15.32C554.05 39.16 619.28 78.45 637.36 167.49C668.72 321.96 657.76 478.70 657.77 634.19Z"  horiz-adv-x="753" vert-adv-y="1000"  />

      
      <glyph glyph-name="unidb" unicode="&#xdb;" d="M657.77 634.19C657.77 688.68 654.44 725.30 706.99 757.66C745.72 781.51 732.89 829.90 688.55 832.80C614.35 837.67 539.39 833.58 464.89 830.80C443.30 829.99 421.61 818.29 419.82 793.17C417.98 767.60 437.30 754.45 459.94 752.16C520.62 746.03 550.96 708.36 551.84 653.24C554.23 504.37 563.27 355.02 532.62 207.24C525.35 168.43 501.43 134.76 467.17 115.13C353.47 44.52 220.82 107.20 215.16 245.88C210.52 359.50 195.98 471.90 191.12 585.17C187.84 661.64 182.22 737.35 284.50 758.57C305.71 762.97 315.76 786.89 310.70 810.71C305.70 834.17 288.07 851.81 266.26 849.24C199.16 841.35 131.79 846.30 65.05 841.24C21.24 837.90 7.27 789.57 44.36 766.89C94.54 736.21 95.56 698.60 91.20 649.28C86.23 592.92 90.05 535.79 90.05 479.00C91.37 372.27 93.65 265.75 113.24 160.44C127.61 83.19 199.17 2.25 264.25 1.23C334.85 0.11 407.40-5.83 476.34 15.32C554.05 39.16 619.28 78.45 637.36 167.49C668.72 321.96 657.76 478.70 657.77 634.19Z"  horiz-adv-x="753" vert-adv-y="1000"  />

      
      <glyph glyph-name="unidc" unicode="&#xdc;" d="M657.77 634.19C657.77 688.68 654.44 725.30 706.99 757.66C745.72 781.51 732.89 829.90 688.55 832.80C614.35 837.67 539.39 833.58 464.89 830.80C443.30 829.99 421.61 818.29 419.82 793.17C417.98 767.60 437.30 754.45 459.94 752.16C520.62 746.03 550.96 708.36 551.84 653.24C554.23 504.37 563.27 355.02 532.62 207.24C525.35 168.43 501.43 134.76 467.17 115.13C353.47 44.52 220.82 107.20 215.16 245.88C210.52 359.50 195.98 471.90 191.12 585.17C187.84 661.64 182.22 737.35 284.50 758.57C305.71 762.97 315.76 786.89 310.70 810.71C305.70 834.17 288.07 851.81 266.26 849.24C199.16 841.35 131.79 846.30 65.05 841.24C21.24 837.90 7.27 789.57 44.36 766.89C94.54 736.21 95.56 698.60 91.20 649.28C86.23 592.92 90.05 535.79 90.05 479.00C91.37 372.27 93.65 265.75 113.24 160.44C127.61 83.19 199.17 2.25 264.25 1.23C334.85 0.11 407.40-5.83 476.34 15.32C554.05 39.16 619.28 78.45 637.36 167.49C668.72 321.96 657.76 478.70 657.77 634.19Z"  horiz-adv-x="753" vert-adv-y="1000"  />

      
      <glyph glyph-name="uni56" unicode="&#x56;" d="M688.24 842.20C656.25 841.37 624.29 839.24 592.32 837.66L592.32 834.33C560.37 834.33 528.43 834.33 496.48 834.33C474.43 834.36 451.06 833.28 445.98 806.68C440.97 780.45 460.73 768.90 482.30 762.30C525.03 749.25 539.49 721.34 523.48 680.50C475.56 558.38 423.61 437.82 391.12 310.10C386.07 290.26 378.81 264.62 353.00 264.70C320.23 264.80 316.51 294.80 313.25 318.48C299.08 421.39 261.17 518.03 230.11 615.82C211.67 673.87 183.44 716.93 257.23 757.18C292.69 776.50 283.82 823.03 246.27 828.85C176.59 839.67 105.26 854.77 34.82 838.03C0.93 829.97-11.48 801.94 16.24 773.93C41.08 748.84 72.65 730.34 83.69 693.80C124.61 557.98 196.09 433.16 222.93 291.76C237.41 215.51 264.13 141.17 290.05 67.63C309.61 12.16 347.24 9.34 383.57 56.70C405.72 85.62 414.57 120.16 424.75 154.34C469.45 300.50 521.44 444.33 580.52 585.29C609.48 655.78 624.19 738.41 712.64 768.23C730.61 774.30 734.93 796.05 729.13 814.18C723.84 832.01 706.78 843.71 688.24 842.20Z"  horiz-adv-x="731" vert-adv-y="1000"  />

      
      <glyph glyph-name="uni57" unicode="&#x57;" d="M590.61 64.82C592.51 75.31 592.99 86.05 594.74 96.58C623.89 271.64 659.31 445.64 680.30 622.12C686.60 674.95 696.06 729.33 756.91 752.45C771.28 756.62 780.30 770.83 777.96 785.61C774.27 806.48 756.90 814.83 738.98 814.59C682.27 813.81 625.70 801.25 568.81 814.97C554.66 819.60 539.23 813.35 532.29 800.17C521.74 778.53 537.44 766.54 553.42 758.89C585.06 743.75 610.43 722.63 601.87 685.47C582.61 601.81 576.76 516.82 568.51 431.89C566.15 407.46 557.61 378.66 527.08 378.05C493.66 377.38 492.38 406.95 490.75 431.83C489.57 449.56 490.89 467.47 489.52 485.15C481.79 584.85 460.41 682.04 434.43 778.32C428.55 800.10 417.22 818.61 391.27 817.39C359.69 815.90 350.17 794.07 349.59 766.31C350.40 759.27 350.83 752.18 350.87 745.08C336.15 636.64 321.61 528.15 305.68 419.88C302.07 395.36 295.57 366.65 262.56 368.82C229.92 370.96 228.14 399.31 226.30 424.61C219.86 513.06 218.82 602.10 188.08 687.26C178.69 713.24 187.16 736.14 214.35 749.33C236.40 760.04 265.20 769.00 252.76 801.89C241.01 832.93 211.08 821.21 187.39 821.98C169.61 822.53 151.78 822.09 133.98 822.09L133.98 821.32C101.95 821.32 69.80 823.01 37.91 820.86C3.29 818.54-11.12 793.81 16.52 773.17C84.61 722.35 94.58 649.64 106.41 575.58C129.92 428.53 190.06 289.49 201.29 139.49C203.33 112.03 218.68 85.54 228.06 58.66C238.05 30.02 253.44 5.97 288.04 8.36C325.32 10.95 329.05 40.50 334.07 69.63C348.54 153.62 371.82 236.31 366.82 322.96C365.81 340.50 371.09 359.66 394.14 361.61C412.72 363.36 429.58 350.66 433.02 332.32C437.92 311.66 440.64 290.54 441.13 269.32C444.60 197.61 462.78 128.93 482.30 60.46C490.72 30.91 506.92 7.20 540.26 6.97C576.95 6.67 585.31 35.57 590.61 64.82Z"  horiz-adv-x="783" vert-adv-y="1000"  />

      
      <glyph glyph-name="uni58" unicode="&#x58;" d="M706.20 80.59C642.14 81.37 612.87 127.47 580.58 168.70C516.71 250.31 477.64 346.40 429.84 437.29C416.93 459.63 416.90 487.14 429.76 509.51C484.86 598.05 503.12 713.69 614.40 761.46C631.10 768.62 645.31 780.82 643.05 801.65C640.20 827.93 619.35 837.86 597.77 837.56C558.67 837.89 519.64 834.38 481.22 827.08C445.87 819.48 411.91 813.33 375.97 820.53C375.40 820.65 374.84 820.71 374.28 820.82C373.36 820.30 372.40 819.87 371.50 819.31C348.87 805.34 354.54 785.94 365.80 767.13C390.36 756.21 407.83 733.73 412.36 707.24C418.11 663.34 379.68 588.43 349.68 585.12C321.18 581.94 272.50 646.14 266.54 694.79C262.37 725.44 278.74 755.20 306.84 768.11C307.75 772.20 308.40 776.35 308.79 780.53C306.51 788.87 305.82 797.56 306.74 806.16C301.87 819.90 290.19 825.35 273.05 825.89C215.61 823.35 157.94 816.52 100.75 829.93C77.75 835.34 46.07 833.23 40.40 801.42C35.99 776.69 59.53 764.95 80.00 758.01C175.46 725.65 198.30 632.94 250.66 562.90C323.38 465.59 254.47 395.86 223.20 317.03C214.79 293.53 203.13 271.34 188.54 251.09C138.81 187.45 132.72 84.36 24.80 71.74C7.72 69.75 4.12 43.97 9.00 25.85C13.32 7.67 30.04-4.80 48.70-3.75C133.88-0.13 219.01 4.99 304.09 10.48C319.01 11.43 330.53 23.96 330.22 38.90C331.94 53.55 324.44 67.75 311.36 74.60C292.24 83.55 270.75 87.38 251.36 95.86C224.31 107.70 210.65 130.74 229.41 155.51C266.60 204.60 277.62 266.51 313.15 315.71C342.71 356.67 367.63 358.49 395.77 317.36C421.76 279.38 441.37 237.06 463.78 196.61C502.59 126.42 502.72 126.28 435.30 69.38C423.82 59.69 414.28 48.91 417.82 33.89C422.76 12.93 441.00 8.90 459.32 8.64C498.47 8.08 537.62 8.47 576.80 8.47L576.80 6.63C615.88 6.63 654.99 5.66 694.02 7.03C714.41 7.75 740.86 4.71 747.58 30.74C755.77 62.49 730.34 80.29 706.20 80.59Z"  horiz-adv-x="751" vert-adv-y="1000"  />

      
      <glyph glyph-name="uni59" unicode="&#x59;" d="M603.69 842.43C554.15 839.56 504.77 833.92 455.20 831.61C430.70 830.45 402.86 839.33 390.34 809.53C380.13 785.26 398.88 770.46 414.82 756.11C438.70 734.64 449.01 708.26 430.37 680.33C403.24 638.62 383.58 592.52 372.26 544.07C368.56 525.60 351.03 513.26 332.40 516.02C317.39 517.78 303.42 528.08 303.08 542.57C301.49 610.69 247.49 655.27 227.97 715.04C235.55 729.81 243.14 744.58 250.74 759.34C278.27 774.98 304.19 807.31 264.53 818.89C185.44 840.92 101.90 841.44 22.54 820.39C8.36 816.42-1.52 803.60-1.74 788.88C-3.79 774.01 6.38 760.22 21.20 757.80C91.79 746.37 113.17 687.27 145.96 636.79C196.60 558.79 227.68 471.14 273.86 391.17C287.10 368.25 293.23 344.49 284.76 319.81C269.15 274.30 275.49 228.05 278.36 182.24C282.04 123.86 289.48 66.63 214.12 44.87C196.45 39.77 186.80 22.46 190.17 2.30C194.40-23.20 213.00-32.21 236.09-32.60C307.19-33.81 378.30-35.04 449.40-34.45C474.73-34.24 500.77-27.71 508.38 1.34C516.27 31.48 496.10 48.57 471.74 57.96C411.46 81.23 396.96 125.59 402.35 185.61C406.13 227.72 400.94 270.68 399.13 313.23C397.46 352.65 398.19 391.98 415.69 428.19C449.65 498.46 482.31 569.62 520.57 637.50C548.13 686.43 576.53 737.20 632.80 761.93C653.36 770.97 670.82 786.37 664.22 811.00C656.19 840.83 629.33 843.90 603.69 842.43Z"  horiz-adv-x="664" vert-adv-y="1000"  />

      
      <glyph glyph-name="unidd" unicode="&#xdd;" d="M603.69 842.43C554.15 839.56 504.77 833.92 455.20 831.61C430.70 830.45 402.86 839.33 390.34 809.53C380.13 785.26 398.88 770.46 414.82 756.11C438.70 734.64 449.01 708.26 430.37 680.33C403.24 638.62 383.58 592.52 372.26 544.07C368.56 525.60 351.03 513.26 332.40 516.02C317.39 517.78 303.42 528.08 303.08 542.57C301.49 610.69 247.49 655.27 227.97 715.04C235.55 729.81 243.14 744.58 250.74 759.34C278.27 774.98 304.19 807.31 264.53 818.89C185.44 840.92 101.90 841.44 22.54 820.39C8.36 816.42-1.52 803.60-1.74 788.88C-3.79 774.01 6.38 760.22 21.20 757.80C91.79 746.37 113.17 687.27 145.96 636.79C196.60 558.79 227.68 471.14 273.86 391.17C287.10 368.25 293.23 344.49 284.76 319.81C269.15 274.30 275.49 228.05 278.36 182.24C282.04 123.86 289.48 66.63 214.12 44.87C196.45 39.77 186.80 22.46 190.17 2.30C194.40-23.20 213.00-32.21 236.09-32.60C307.19-33.81 378.30-35.04 449.40-34.45C474.73-34.24 500.77-27.71 508.38 1.34C516.27 31.48 496.10 48.57 471.74 57.96C411.46 81.23 396.96 125.59 402.35 185.61C406.13 227.72 400.94 270.68 399.13 313.23C397.46 352.65 398.19 391.98 415.69 428.19C449.65 498.46 482.31 569.62 520.57 637.50C548.13 686.43 576.53 737.20 632.80 761.93C653.36 770.97 670.82 786.37 664.22 811.00C656.19 840.83 629.33 843.90 603.69 842.43Z"  horiz-adv-x="664" vert-adv-y="1000"  />

      
      <glyph glyph-name="uni0178" unicode="&#x0178;" d="M603.69 842.43C554.15 839.56 504.77 833.92 455.20 831.61C430.70 830.45 402.86 839.33 390.34 809.53C380.13 785.26 398.88 770.46 414.82 756.11C438.70 734.64 449.01 708.26 430.37 680.33C403.24 638.62 383.58 592.52 372.26 544.07C368.56 525.60 351.03 513.26 332.40 516.02C317.39 517.78 303.42 528.08 303.08 542.57C301.49 610.69 247.49 655.27 227.97 715.04C235.55 729.81 243.14 744.58 250.74 759.34C278.27 774.98 304.19 807.31 264.53 818.89C185.44 840.92 101.90 841.44 22.54 820.39C8.36 816.42-1.52 803.60-1.74 788.88C-3.79 774.01 6.38 760.22 21.20 757.80C91.79 746.37 113.17 687.27 145.96 636.79C196.60 558.79 227.68 471.14 273.86 391.17C287.10 368.25 293.23 344.49 284.76 319.81C269.15 274.30 275.49 228.05 278.36 182.24C282.04 123.86 289.48 66.63 214.12 44.87C196.45 39.77 186.80 22.46 190.17 2.30C194.40-23.20 213.00-32.21 236.09-32.60C307.19-33.81 378.30-35.04 449.40-34.45C474.73-34.24 500.77-27.71 508.38 1.34C516.27 31.48 496.10 48.57 471.74 57.96C411.46 81.23 396.96 125.59 402.35 185.61C406.13 227.72 400.94 270.68 399.13 313.23C397.46 352.65 398.19 391.98 415.69 428.19C449.65 498.46 482.31 569.62 520.57 637.50C548.13 686.43 576.53 737.20 632.80 761.93C653.36 770.97 670.82 786.37 664.22 811.00C656.19 840.83 629.33 843.90 603.69 842.43Z"  horiz-adv-x="664" vert-adv-y="1000"  />

      
      <glyph glyph-name="uni5a" unicode="&#x5a;" d="M517.45 334.09C478.03 339.57 456.18 311.07 453.79 255.80C446.71 92.12 446.71 92.06 282.99 92.62C261.70 92.03 240.39 92.70 219.18 94.63C177.38 99.78 181.81 129.16 187.98 158.60C185.10 156.83 182.26 155.17 179.44 153.58C181.84 155.92 184.77 157.64 187.98 158.60C320.01 339.76 390.16 556.99 526.16 736.27C553.11 771.82 531.89 802.74 481.25 804.33C367.33 808.02 253.26 807.28 139.22 808.20C108.87 808.44 81.17 800.06 67.84 770.81C32.60 693.53 31.30 612.09 48.88 530.99C55.75 499.31 95.46 495.74 116.19 521.46C133.13 542.52 132.83 566.82 131.05 592.37C121.05 735.82 121.36 735.84 266.38 733.69C357.28 732.35 364.27 718.23 331.60 636.16C269.66 480.59 184.22 336.57 114.64 184.84C80.90 160.26 79.28 117.12 56.78 85.01C17.08 28.37 31.57 0.59 100.93 0.39C228.80 0.03 356.75 3.86 484.52 9.88C551.04 13.01 577.62 45.51 579.05 113.66C580.02 159.70 575.50 206.01 578.91 251.78C582.51 299.71 564.04 327.61 517.45 334.09Z"  horiz-adv-x="611" vert-adv-y="1000"  />

      
      <glyph glyph-name="uni61" unicode="&#x61;" d="M166.92-3.95C250.02-13.92 337.29-32.29 417.09 18.10C449.70 38.69 480.75 35.29 516.79 15.54C583.63-21.10 624.85-9.73 674.73 46.98C699.19 74.80 720.59 105.37 698.18 142.57C677.00 177.78 647.06 171.22 614.97 153.80C574.95 132.09 563.09 159.25 562.98 191.58C562.82 234.17 567.41 276.77 569.93 319.37C578.06 575.27 464.98 668.75 213.85 613.21C210.37 612.43 206.89 611.61 203.43 610.78C118.42 590.54 83.45 552.82 70.22 467.10C62.57 417.59 82.88 381.18 120.84 376.32C163.61 370.85 198.40 404.80 200.21 453.77C202.89 525.80 207.89 533.53 272.00 537.30C314.65 540.54 357.52 539.63 400.00 534.59C451.27 527.54 468.95 483.98 443.23 439.14C424.23 406.03 392.29 391.54 358.09 379.02C277.95 349.72 195.92 324.52 121.67 281.33C59.27 245.00 24.67 179.56 37.74 122.53C53.62 53.35 98.98 4.19 166.92-3.95ZM164.20 201.71C236.12 250.53 320.54 268.13 399.02 300.05C440.02 316.73 461.05 293.36 462.39 242.58C464.41 167.55 433.79 127.22 359.91 101.10C285.77 74.90 214.88 59.47 156.49 132.57C135.54 158.87 130.21 178.63 164.20 201.71Z"  horiz-adv-x="722" vert-adv-y="1000"  />

      
      <glyph glyph-name="unie0" unicode="&#xe0;" d="M166.92-3.95C250.02-13.92 337.29-32.29 417.09 18.10C449.70 38.69 480.75 35.29 516.79 15.54C583.63-21.10 624.85-9.73 674.73 46.98C699.19 74.80 720.59 105.37 698.18 142.57C677.00 177.78 647.06 171.22 614.97 153.80C574.95 132.09 563.09 159.25 562.98 191.58C562.82 234.17 567.41 276.77 569.93 319.37C578.06 575.27 464.98 668.75 213.85 613.21C210.37 612.43 206.89 611.61 203.43 610.78C118.42 590.54 83.45 552.82 70.22 467.10C62.57 417.59 82.88 381.18 120.84 376.32C163.61 370.85 198.40 404.80 200.21 453.77C202.89 525.80 207.89 533.53 272.00 537.30C314.65 540.54 357.52 539.63 400.00 534.59C451.27 527.54 468.95 483.98 443.23 439.14C424.23 406.03 392.29 391.54 358.09 379.02C277.95 349.72 195.92 324.52 121.67 281.33C59.27 245.00 24.67 179.56 37.74 122.53C53.62 53.35 98.98 4.19 166.92-3.95ZM164.20 201.71C236.12 250.53 320.54 268.13 399.02 300.05C440.02 316.73 461.05 293.36 462.39 242.58C464.41 167.55 433.79 127.22 359.91 101.10C285.77 74.90 214.88 59.47 156.49 132.57C135.54 158.87 130.21 178.63 164.20 201.71Z"  horiz-adv-x="722" vert-adv-y="1000"  />

      
      <glyph glyph-name="unie1" unicode="&#xe1;" d="M166.92-3.95C250.02-13.92 337.29-32.29 417.09 18.10C449.70 38.69 480.75 35.29 516.79 15.54C583.63-21.10 624.85-9.73 674.73 46.98C699.19 74.80 720.59 105.37 698.18 142.57C677.00 177.78 647.06 171.22 614.97 153.80C574.95 132.09 563.09 159.25 562.98 191.58C562.82 234.17 567.41 276.77 569.93 319.37C578.06 575.27 464.98 668.75 213.85 613.21C210.37 612.43 206.89 611.61 203.43 610.78C118.42 590.54 83.45 552.82 70.22 467.10C62.57 417.59 82.88 381.18 120.84 376.32C163.61 370.85 198.40 404.80 200.21 453.77C202.89 525.80 207.89 533.53 272.00 537.30C314.65 540.54 357.52 539.63 400.00 534.59C451.27 527.54 468.95 483.98 443.23 439.14C424.23 406.03 392.29 391.54 358.09 379.02C277.95 349.72 195.92 324.52 121.67 281.33C59.27 245.00 24.67 179.56 37.74 122.53C53.62 53.35 98.98 4.19 166.92-3.95ZM164.20 201.71C236.12 250.53 320.54 268.13 399.02 300.05C440.02 316.73 461.05 293.36 462.39 242.58C464.41 167.55 433.79 127.22 359.91 101.10C285.77 74.90 214.88 59.47 156.49 132.57C135.54 158.87 130.21 178.63 164.20 201.71Z"  horiz-adv-x="722" vert-adv-y="1000"  />

      
      <glyph glyph-name="unie2" unicode="&#xe2;" d="M166.92-3.95C250.02-13.92 337.29-32.29 417.09 18.10C449.70 38.69 480.75 35.29 516.79 15.54C583.63-21.10 624.85-9.73 674.73 46.98C699.19 74.80 720.59 105.37 698.18 142.57C677.00 177.78 647.06 171.22 614.97 153.80C574.95 132.09 563.09 159.25 562.98 191.58C562.82 234.17 567.41 276.77 569.93 319.37C578.06 575.27 464.98 668.75 213.85 613.21C210.37 612.43 206.89 611.61 203.43 610.78C118.42 590.54 83.45 552.82 70.22 467.10C62.57 417.59 82.88 381.18 120.84 376.32C163.61 370.85 198.40 404.80 200.21 453.77C202.89 525.80 207.89 533.53 272.00 537.30C314.65 540.54 357.52 539.63 400.00 534.59C451.27 527.54 468.95 483.98 443.23 439.14C424.23 406.03 392.29 391.54 358.09 379.02C277.95 349.72 195.92 324.52 121.67 281.33C59.27 245.00 24.67 179.56 37.74 122.53C53.62 53.35 98.98 4.19 166.92-3.95ZM164.20 201.71C236.12 250.53 320.54 268.13 399.02 300.05C440.02 316.73 461.05 293.36 462.39 242.58C464.41 167.55 433.79 127.22 359.91 101.10C285.77 74.90 214.88 59.47 156.49 132.57C135.54 158.87 130.21 178.63 164.20 201.71Z"  horiz-adv-x="722" vert-adv-y="1000"  />

      
      <glyph glyph-name="unie3" unicode="&#xe3;" d="M166.92-3.95C250.02-13.92 337.29-32.29 417.09 18.10C449.70 38.69 480.75 35.29 516.79 15.54C583.63-21.10 624.85-9.73 674.73 46.98C699.19 74.80 720.59 105.37 698.18 142.57C677.00 177.78 647.06 171.22 614.97 153.80C574.95 132.09 563.09 159.25 562.98 191.58C562.82 234.17 567.41 276.77 569.93 319.37C578.06 575.27 464.98 668.75 213.85 613.21C210.37 612.43 206.89 611.61 203.43 610.78C118.42 590.54 83.45 552.82 70.22 467.10C62.57 417.59 82.88 381.18 120.84 376.32C163.61 370.85 198.40 404.80 200.21 453.77C202.89 525.80 207.89 533.53 272.00 537.30C314.65 540.54 357.52 539.63 400.00 534.59C451.27 527.54 468.95 483.98 443.23 439.14C424.23 406.03 392.29 391.54 358.09 379.02C277.95 349.72 195.92 324.52 121.67 281.33C59.27 245.00 24.67 179.56 37.74 122.53C53.62 53.35 98.98 4.19 166.92-3.95ZM164.20 201.71C236.12 250.53 320.54 268.13 399.02 300.05C440.02 316.73 461.05 293.36 462.39 242.58C464.41 167.55 433.79 127.22 359.91 101.10C285.77 74.90 214.88 59.47 156.49 132.57C135.54 158.87 130.21 178.63 164.20 201.71Z"  horiz-adv-x="722" vert-adv-y="1000"  />

      
      <glyph glyph-name="unie4" unicode="&#xe4;" d="M166.92-3.95C250.02-13.92 337.29-32.29 417.09 18.10C449.70 38.69 480.75 35.29 516.79 15.54C583.63-21.10 624.85-9.73 674.73 46.98C699.19 74.80 720.59 105.37 698.18 142.57C677.00 177.78 647.06 171.22 614.97 153.80C574.95 132.09 563.09 159.25 562.98 191.58C562.82 234.17 567.41 276.77 569.93 319.37C578.06 575.27 464.98 668.75 213.85 613.21C210.37 612.43 206.89 611.61 203.43 610.78C118.42 590.54 83.45 552.82 70.22 467.10C62.57 417.59 82.88 381.18 120.84 376.32C163.61 370.85 198.40 404.80 200.21 453.77C202.89 525.80 207.89 533.53 272.00 537.30C314.65 540.54 357.52 539.63 400.00 534.59C451.27 527.54 468.95 483.98 443.23 439.14C424.23 406.03 392.29 391.54 358.09 379.02C277.95 349.72 195.92 324.52 121.67 281.33C59.27 245.00 24.67 179.56 37.74 122.53C53.62 53.35 98.98 4.19 166.92-3.95ZM164.20 201.71C236.12 250.53 320.54 268.13 399.02 300.05C440.02 316.73 461.05 293.36 462.39 242.58C464.41 167.55 433.79 127.22 359.91 101.10C285.77 74.90 214.88 59.47 156.49 132.57C135.54 158.87 130.21 178.63 164.20 201.71Z"  horiz-adv-x="722" vert-adv-y="1000"  />

      
      <glyph glyph-name="unie5" unicode="&#xe5;" d="M166.92-3.95C250.02-13.92 337.29-32.29 417.09 18.10C449.70 38.69 480.75 35.29 516.79 15.54C583.63-21.10 624.85-9.73 674.73 46.98C699.19 74.80 720.59 105.37 698.18 142.57C677.00 177.78 647.06 171.22 614.97 153.80C574.95 132.09 563.09 159.25 562.98 191.58C562.82 234.17 567.41 276.77 569.93 319.37C578.06 575.27 464.98 668.75 213.85 613.21C210.37 612.43 206.89 611.61 203.43 610.78C118.42 590.54 83.45 552.82 70.22 467.10C62.57 417.59 82.88 381.18 120.84 376.32C163.61 370.85 198.40 404.80 200.21 453.77C202.89 525.80 207.89 533.53 272.00 537.30C314.65 540.54 357.52 539.63 400.00 534.59C451.27 527.54 468.95 483.98 443.23 439.14C424.23 406.03 392.29 391.54 358.09 379.02C277.95 349.72 195.92 324.52 121.67 281.33C59.27 245.00 24.67 179.56 37.74 122.53C53.62 53.35 98.98 4.19 166.92-3.95ZM164.20 201.71C236.12 250.53 320.54 268.13 399.02 300.05C440.02 316.73 461.05 293.36 462.39 242.58C464.41 167.55 433.79 127.22 359.91 101.10C285.77 74.90 214.88 59.47 156.49 132.57C135.54 158.87 130.21 178.63 164.20 201.71Z"  horiz-adv-x="722" vert-adv-y="1000"  />

      
      <glyph glyph-name="uni62" unicode="&#x62;" d="M13.00 861.65C5.93 860.97-1.24 861.21-8.31 860.46C-26.31 858.54-46.18 855.24-50.81 835.44C-56.87 809.62-38.86 793.31-16.45 791.18C57.04 784.23 64.17 737.67 61.14 677.57C50.61 468.77 79.10 260.08 56.17 45.89C113.11 38.93 143.38 79.29 192.96 49.54C314.41-23.29 434.05 12.06 539.60 92.44C628.21 159.92 641.96 260.44 631.11 362.21C614.66 516.45 545.61 601.99 422.87 624.21C363.26 635.35 301.86 632.28 243.65 615.27C161.73 591.27 140.01 613.68 157.25 696.93C189.04 850.34 166.21 876.39 13.00 861.65ZM223.34 483.12C297.18 555.77 356.52 564.82 438.96 505.08C529.34 439.60 556.29 279.11 492.29 187.65C444.70 122.46 360.87 94.84 283.85 118.99C198.95 146.66 160.12 210.69 162.64 328.32C161.46 381.67 175.55 436.10 223.34 483.12Z"  horiz-adv-x="672" vert-adv-y="1000"  />

      
      <glyph glyph-name="uni63" unicode="&#x63;" d="M40 286.06C52.37 91.82 195.55-74.41 440.05 36.80C520.12 73.23 544.14 150.33 571.55 222.96C582.83 252.86 562.41 278.69 532.68 289.77C501.52 301.36 486.85 278.44 476.63 254.86C465.34 228.80 458.56 200.75 446.89 174.91C408.79 90.47 366.27 71.13 275.89 94.97C195.60 116.15 137.89 179.73 137.79 263.53C137.67 364.40 119.18 476.26 239.50 532.88C255.86 539.85 273.10 544.56 290.73 546.87C379.68 561.56 402.72 543.29 411.64 452.46C416.90 398.92 438.05 378.86 483.03 384.74C530.90 391.00 559.92 427.79 548.56 475.65C536.91 524.72 513.67 568.39 471.19 599.96C367.75 676.85 198.54 656.63 116.15 555.51C62.49 489.64 30.49 416.08 44.64 334.80C41.92 318.69 40.37 302.40 40 286.06Z"  horiz-adv-x="608" vert-adv-y="1000"  />

      
      <glyph glyph-name="unie7" unicode="&#xe7;" d="M40 286.06C52.37 91.82 195.55-74.41 440.05 36.80C520.12 73.23 544.14 150.33 571.55 222.96C582.83 252.86 562.41 278.69 532.68 289.77C501.52 301.36 486.85 278.44 476.63 254.86C465.34 228.80 458.56 200.75 446.89 174.91C408.79 90.47 366.27 71.13 275.89 94.97C195.60 116.15 137.89 179.73 137.79 263.53C137.67 364.40 119.18 476.26 239.50 532.88C255.86 539.85 273.10 544.56 290.73 546.87C379.68 561.56 402.72 543.29 411.64 452.46C416.90 398.92 438.05 378.86 483.03 384.74C530.90 391.00 559.92 427.79 548.56 475.65C536.91 524.72 513.67 568.39 471.19 599.96C367.75 676.85 198.54 656.63 116.15 555.51C62.49 489.64 30.49 416.08 44.64 334.80C41.92 318.69 40.37 302.40 40 286.06Z"  horiz-adv-x="608" vert-adv-y="1000"  />

      
      <glyph glyph-name="uni64" unicode="&#x64;" d="M430.18 572.06C410.38 579.16 393.18 593.19 373.76 601.65C262.04 650.22 81.90 569.79 54.83 450.16C31.52 347.14 21.36 244.12 86.58 142.57C169.55 13.40 256.26-23.74 399.09 36.17C421.92 45.74 445.94 66.93 467.33 45.44C514.18-1.53 577.64 28.26 628.91 4.83C655.08-7.13 679.84-2.01 690.20 26.90C694.72 38.91 694.07 52.25 688.39 63.75C682.71 75.26 672.52 83.90 660.25 87.62C573.78 117.92 574.64 186.33 571.37 260.59C565.86 384.87 591.51 509.45 568.28 632.85C560.89 670.81 562.29 709.95 572.39 747.28C602.03 863.58 591.13 875.22 471.10 872.87C467.54 872.80 463.99 872.87 460.43 872.87L460.43 873.65C428.49 873.65 396.48 874.89 364.63 873.18C345.92 872.97 330.67 858.10 329.98 839.39C327.45 814.99 338.74 796.89 362.71 792.53C379.71 789.44 397.98 794.02 415.67 793.85C449.42 793.53 470.22 773.52 474.41 742.84C480.90 697.19 483.78 651.10 483.01 605.00C482.30 574.73 459.52 561.54 430.18 572.06ZM359.15 127.11C303.50 101.80 239.26 123.71 188.04 180.37C115.90 260.15 114.37 396.51 184.74 473.94C258.59 555.20 379.99 532.95 427.94 424.90C447.76 380.25 452.62 329.00 463.85 282.55C447.91 215.64 423.74 156.50 359.15 127.11Z"  horiz-adv-x="704" vert-adv-y="1000"  />

      
      </font>
</defs>
</svg>
